<?xml version="1.0" standalone="no"?>
<!DOCTYPE svg PUBLIC "-//W3C//DTD SVG 1.1//EN" "http://www.w3.org/Graphics/SVG/1.1/DTD/svg11.dtd" >
<svg>
<metadata>
Created by FontForge 20090914 at Thu Mar 25 17:10:34 2021
 By www-data
&#194;&#169;Gazoz, Istanbul&#226;&#128;&#148;1999
</metadata>
<defs>
<font id="MutluOrnamental" horiz-adv-x="560" >
  <font-face 
    font-family="Mutlu"
    font-weight="400"
    font-stretch="normal"
    units-per-em="1000"
    panose-1="0 0 4 0 0 0 0 0 0 0"
    ascent="800"
    descent="-200"
    x-height="491.998"
    cap-height="668"
    bbox="-1239 -651.998 2382 1483"
    underline-thickness="20"
    underline-position="-123"
    unicode-range="U+0020-U+F002"
  />
<missing-glyph horiz-adv-x="500" 
d="M63 0v1483h375v-1483h-375zM125 63h250v1358h-250v-1358z" />
    <glyph glyph-name=".notdef" horiz-adv-x="500" 
d="M63 0v1483h375v-1483h-375zM125 63h250v1358h-250v-1358z" />
    <glyph glyph-name="space" unicode=" " horiz-adv-x="235" 
 />
    <glyph glyph-name="exclam" unicode="!" horiz-adv-x="235" 
d="M260 630c0 -12.667 -7.00391 -36.999 -21.0039 -72.999l-137 -353l-5 1l41 209c-18.667 -40.667 -57.667 -82 -117 -124l-147 -100c-112.667 -80 -169 -162.667 -169 -248c0 -60.667 18.833 -109.667 56.5 -147s86.834 -56 147.501 -56c32 0 65.667 14.667 101 44
c32.667 26.667 55.667 56 69 88c10 24.667 14.667 46.667 14 66c-1.33301 23.333 -6.66602 44 -15.999 62c-6 -2.66699 -12.333 -4 -19 -4c-12.667 0 -23.5 4.66699 -32.5 14s-13.5 20.333 -13.5 33v5c-8 2.66699 -16.667 4 -26 4c-2 0 -2.66699 1 -2 3
c0 1.33301 0.666992 2 2 2c9.33301 0 18.333 -1 27 -3c6 22 21 33 45 33c12.667 0 23.334 -4.33301 32.001 -13s13 -19.334 13 -32.001s-4.66699 -23.667 -14 -33c14 -19.333 21.667 -42.666 23 -69.999c2.66699 -62 -28 -118.667 -92 -170
c-39.333 -31.333 -76.333 -47 -111 -47c-65.333 0 -118.666 20.5 -159.999 61.5s-62 94.167 -62 159.5c0 89.333 59.667 176 179 260l115 76c111.333 74 167 145 167 213c0 58.667 -31 107 -93 145c-1.33301 0.666992 -1.66602 1.66699 -0.999023 3
s1.66699 1.66602 3 0.999023c62 -38 95 -84.333 99 -139l13 66c9.33301 46.667 17.666 75.167 24.999 85.5s17.333 15.5 30 15.5c24 0 36 -12.667 36 -38z" />
    <glyph glyph-name="quotedbl" unicode="&#x22;" horiz-adv-x="344" 
d="M653 549c0 -80.667 -43.667 -153.328 -131 -217.995c-2 0.666992 -3 2 -3 4c86 63.333 129 134.666 129 213.999c0 104 -38 183 -114 237c-67.333 48 -155.333 72 -264 72c-150.667 0 -266.667 -45.667 -348 -137c-60.667 -68.667 -91 -132 -91 -190
c0 -44 11.667 -82.333 35 -115c26 -36.667 60 -55 102 -55c42.667 0 83 18.667 121 56c34 32.667 58.333 71 73 115c2 6.66699 9.33301 20.667 22 42c7.33301 12.667 16.666 19 27.999 19c16 0 24 -7.66699 24 -23c0 -6.66699 -5.66699 -19.334 -17 -38.001l-99 -164l-6 2
l38 120c-24 -42.667 -48.333 -74.334 -73 -95.001c-31.333 -26 -68.333 -39 -111 -39c-43.333 0 -78.666 19 -105.999 57c-24 33.333 -36 72.666 -36 117.999c0 59.333 30.667 123.666 92 192.999c82 92.667 199.333 139 352 139c110.667 0 200 -24 268 -72
c76.667 -55.333 115 -136 115 -242zM378 570.006c0 -6.66699 -5.66699 -19.333 -17 -38l-99 -164l-6 2l55 166c12.667 38 27 57 43 57s24 -7.66699 24 -23z" />
    <glyph glyph-name="numbersign" unicode="#" horiz-adv-x="404" 
d="M784 436c0 -110.667 -49.6689 -223.997 -149.002 -339.997c-42 -49.333 -100.667 -97.666 -176 -144.999c-116 -73.333 -217.667 -110 -305 -110c-53.333 0 -106.666 12.667 -159.999 38s-95 59 -125 101c-46.667 65.333 -70 135.666 -70 210.999
c0 48 13.333 95.667 40 143c26 45.333 59.333 82.666 100 111.999c-12 -4 -24.333 -6 -37 -6c-42 0 -63 22.667 -63 68c0 11.333 8.33301 33.666 25 66.999c0.666992 2 1.66699 2.66699 3 2s1.66602 -1.66699 0.999023 -3c-16 -36 -24 -58 -24 -66c0 -42 19.333 -63 58 -63
c33.333 0 68 18.667 104 56c10.667 11.333 40.334 49.666 89.001 114.999c36 48.667 67.667 81.334 95 98.001c78.667 48 154 72 226 72c112.667 0 203.334 -30.333 272.001 -91c32 -28 56.667 -67.667 74 -119c14.667 -44.667 22 -91.334 22 -140.001zM322.998 410.003
c-23.333 34 -53.667 58.333 -91 73l-32 -83h119zM358.997 295.003c0 32 -7.66699 63 -23 93h-8l-63 -165h78c10.667 22 16 46 16 72zM776.997 436.003c0 46.667 -7.33496 92.3311 -22.002 136.998c-16.667 50.667 -40.334 89.667 -71.001 117
c-66.667 59.333 -156 89 -268 89c-68.667 0 -142.667 -24 -222 -72c-33.333 -20 -69 -57.333 -107 -112c-43.333 -62 -76.333 -102.333 -99 -121c53.333 26 96.666 39 129.999 39c42.667 0 78.334 -4.66699 107.001 -14l24 63h13l-26 -67
c38.667 -14.667 69.334 -38.334 92.001 -71.001l53 138h13l-58 -151c2.66699 -3.33301 5 -7 7 -11h70l-5 -12h-60c12 -27.333 18 -55.666 18 -84.999c0 -34 -8 -64.667 -24 -92c-0.666992 -1.33301 -2 -1.33301 -4 0h-78l-66 -175h-12l66 175h-120l-66 -175h-12l66 175h-85
l5 12h84l63 165h-84l5 12h84l32 87c-26.667 8.66699 -60.667 13 -102 13c-20.667 0 -47.334 -6.33301 -80.001 -19c-29.333 -10.667 -54.666 -22.667 -75.999 -36c-43.333 -27.333 -78.666 -63.666 -105.999 -108.999c-28.667 -47.333 -43 -95.666 -43 -144.999
c0 -69.333 23.333 -136.666 70 -201.999c28.667 -40.667 69 -73 121 -97c50 -23.333 101 -35 153 -35c86.667 0 185.334 35 296.001 105c72 45.333 129.333 93 172 143c54 63.333 90.667 113.333 110 150c28 53.333 42 113.666 42 180.999zM314.995 388h-119l-63 -165h119z
" />
    <glyph glyph-name="dollar" unicode="$" horiz-adv-x="372" 
d="M494 588c-1.33301 -1.33301 -2.66504 -1.33496 -3.99805 -0.00195312c-76.667 77.333 -162.334 116 -257.001 116c-52.667 0 -97.167 -18.167 -133.5 -54.5s-54.5 -81.166 -54.5 -134.499c0 -52 28 -99.333 84 -142c-8.66699 19.333 -13 40.666 -13 63.999
c0 50.667 17.333 90.834 52 120.501s77.334 43.167 128.001 40.5l21 61h20l-22 -63c61.333 -11.333 92 -31.666 92 -60.999c0 -15.333 -7.33301 -23 -22 -23c-8.66699 0 -17.334 6.33301 -26.001 19l-20.5 30.5c-7 10.333 -15.833 18.166 -26.5 23.499l-78 -229
c49.333 -48 80.333 -92.333 93 -133c69.333 -68 104 -145.667 104 -233c0 -36.667 -9 -75.167 -27 -115.5s-40.333 -74.5 -67 -102.5c-56 -58.667 -132.667 -88 -230 -88c-90 0 -167.333 29 -232 87c-67.333 60.667 -101 135.334 -101 224.001c0 37.333 7.66699 74 23 110
c17.333 39.333 40.666 68.333 69.999 87c40 25.333 89.667 36.666 149 33.999c1.33301 -1.33301 1.33301 -2.66602 0 -3.99902c-107.333 3.33301 -178.333 -36.334 -213 -119.001c-14 -33.333 -21 -69.333 -21 -108c0 -86 33 -157.333 99 -214
c63.333 -54 138.666 -81 225.999 -81c56 0 103 9.33301 141 28c68 33.333 116 87.666 144 162.999c14.667 39.333 22 72.333 22 99c0 78.667 -27 148.334 -81 209.001c2 -10.667 3 -21.334 3 -32.001c0 -24 -5 -47.667 -15 -71c-29.333 -67.333 -87.333 -101 -174 -101
c-8.66699 0 -20.667 0.666992 -36 2l-29 -85h-19l29 87c-79.333 16 -119 40 -119 72c0 18.667 9 28 27 28c10.667 0 22 -8 34 -24l28 -37c8.66699 -12 20.334 -21 35.001 -27l95 279c-24.667 24.667 -42.667 46.334 -54 65.001c-65.333 48.667 -98 102 -98 160
c0 54.667 18.667 100.667 56 138s83 56 137 56c96 0 183 -39 261 -117c1.33301 -1.33301 1.33301 -2.66602 0 -3.99902zM295.001 591.998c-12.667 1.33301 -21 2 -25 2c-30 0 -56.5 -11.667 -79.5 -35s-34.5 -50 -34.5 -80c0 -33.333 21 -70 63 -110zM289.001 130.998
c0 44 -27.666 92.333 -82.999 145l-91 -269c15.333 -2 27.666 -3 36.999 -3c38.667 0 71.167 11.667 97.5 35s39.5 54 39.5 92z" />
    <glyph glyph-name="percent" unicode="%" horiz-adv-x="501" 
d="M595 64c0 -59.333 -15.332 -106 -45.999 -140c-20.667 -23.333 -47 -35 -79 -35c-82 0 -148.333 55.333 -199 166c-23.333 49.333 -35 95.333 -35 138c0 10.667 0.666992 20.667 2 30l-140 -223l-4 2l61 97c-28 -29.333 -55 -44 -81 -44c-27.333 0 -50 14.667 -68 44
c-15.333 24.667 -23 51.667 -23 81c0 44.667 8.66699 82 26 112c8.66699 15.333 18.667 23 30 23c13.333 0 20 -10 20 -30c0 -1.33301 -3.33301 -15.333 -10 -42c4 16.667 6 30.667 6 42c0 15.333 -4.66699 23 -14 23c-17.333 0 -30.333 -18 -39 -54
c-6 -24 -9 -48.667 -9 -74c0 -26 7 -50 21 -72c15.333 -25.333 35.333 -38 60 -38c3.33301 0 10.666 2.33301 21.999 7c31.333 12.667 59.166 37.167 83.499 73.5s36.166 71.166 35.499 104.499c0 14 -5.66699 26.333 -17 37s-23.666 14.334 -36.999 11.001
c-9.33301 -4 -18.333 -6 -27 -6c-35.333 0 -53 20.333 -53 61c0 41.333 15 89.333 45 144c34 61.333 69.333 92 106 92c16.667 0 30 -6 40 -18s15 -26.667 15 -44c0 -34 -11.5 -74 -34.5 -120s-47.833 -78.667 -74.5 -98c12.667 -1.33301 23.5 -8.33301 32.5 -21
s13.5 -25.334 13.5 -38.001c0 -20.667 -4.33301 -43 -13 -67l257 410l4 -3l-196 -312c-18.667 -30 -29 -57.667 -31 -83c-3.33301 -48.667 8.33398 -98.334 35.001 -149.001v8c0 38.667 14 84.667 42 138c30.667 58.667 63.667 91 99 97c10 6 20.667 9 32 9
c26 0 51 -14 75 -42c18 -21.333 33 -46.666 45 -75.999c14.667 -39.333 22 -79.666 22 -120.999zM251.001 522c0 38 -12.6689 57.001 -38.002 57.001c-15.333 0 -30.666 -9.33301 -45.999 -28c-32.667 -40.667 -49 -97.334 -49 -170.001c0 -44 13.333 -66 40 -66
c28.667 0 52.334 28.667 71.001 86c14.667 44.667 22 85 22 121zM576.999 68.001c0 35.333 -6.33301 70.667 -19 106c-14 40 -32.667 70.333 -56 91c-16.667 14.667 -33 23 -49 25c22 -10 33 -29.333 33 -58c0 -39.333 -16 -87 -48 -143
c-34.667 -60.667 -69.667 -91 -105 -91c-8 0 -15 1.33301 -21 4c15.333 -19.333 31 -36.333 47 -51c33.333 -30 68.666 -45 105.999 -45c50.667 0 85.334 33.333 104.001 100c5.33301 19.333 8 40 8 62zM449.999 223.002c0 33.333 -10.001 52 -30.001 56
c-20.667 -17.333 -31 -44.666 -31 -81.999c0 -7.33301 0.333008 -14.333 1 -21c0.666992 -2 0 -3 -2 -3c-2 -0.666992 -3 0 -3 2c-2 9.33301 -3 18.666 -3 27.999c0 32.667 7.66699 58 23 76c-13.333 -2 -26.666 -11 -39.999 -27c-32.667 -40 -49 -96.667 -49 -170
c0 -44 13.667 -66 41 -66c28 0 51.667 28.667 71 86c14.667 44 22 84.333 22 121z" />
    <glyph glyph-name="ampersand" unicode="&#x26;" horiz-adv-x="982" 
d="M1020 427c0 -58.667 -24.999 -107.994 -74.999 -147.994c-46.667 -36.667 -100 -55 -160 -55c-14.667 0 -70 8 -166 24c-40 6.66699 -67 10 -81 10c-6.66699 0 -19 -2.33301 -37 -7c41.333 -14.667 62 -41.334 62 -80.001c0 -39.333 -18.667 -76 -56 -110
c-48 -44 -109.667 -66 -185 -66c-16.667 0 -32.334 1 -47.001 3c-25.333 -22.667 -52.666 -39.334 -81.999 -50.001c-24 -8.66699 -55 -13 -93 -13c-19.333 0 -35.666 1.66699 -48.999 5c-50 12.667 -88.333 44.334 -115 95.001c-22.667 43.333 -34 93.333 -34 150
c0 58 15.167 112 45.5 162s71.166 89 122.499 117v5c0 58 19.333 108 58 150s86.667 63 144 63c40.667 0 70.334 -10.333 89.001 -31c25.333 6.66699 53 10 83 10s54.667 -6 74 -18c23.333 -14.667 35 -36.334 35 -65.001c0 -29.333 -23 -45 -69 -47h-10
c-6 -0.666992 -11.667 -0.666992 -17 0c-4.66699 0 -7.66699 0.333008 -9 1c0.666992 1.33301 1 2.66602 1 3.99902v1l2 -1c15.333 0 28.166 5 38.499 15s16.166 22.667 17.499 38c1.33301 18 -6 33 -22 45c-14.667 10 -31.334 15 -50.001 15c-18 0 -38.333 -6 -61 -18
c4.66699 -10 7 -21.667 7 -35c0 -46 -26 -80.333 -78 -103c55.333 -14.667 85.333 -43 90 -85c7.33301 -6.66699 11 -14.334 11 -23.001c0 -17.333 -9 -31.333 -27 -42c-15.333 -8.66699 -32.333 -13 -51 -13c-30.667 0 -58 12.667 -82 38c-10 -6 -19 -13 -27 -21
c-41.333 -40 -62 -83.333 -62 -130c0 -42 14.333 -78.667 43 -110c27.333 -28.667 62 -48.334 104 -59.001c40.667 45.333 61 95.333 61 150c0 12 -3.16699 27 -9.5 45s-9.5 26.333 -9.5 25c0 0.666992 0.333008 1.33398 1 2.00098c2 0.666992 3.33301 0.333984 4 -0.999023
c6.66699 -12 12 -24 16 -36c7.33301 44 30.666 79.333 69.999 106c36 24.667 77.333 37 124 37c24.667 0 53.667 -4.66699 87 -14c52 -14.667 80.333 -22.334 85 -23.001c17.333 -3.33301 29.333 -5 36 -5c61.333 0 106 10 134 30c22 16 36.333 36.333 43 61
c0.666992 3.33301 2.66699 4.66602 6 3.99902s4.66602 -2.66699 3.99902 -6c-7.33301 -27.333 -23.666 -49.666 -48.999 -66.999c-22.667 -16 -49 -25.333 -79 -28c-22 -2 -41.667 -3 -59 -3c-24 0 -58.667 7.66699 -104 23s-80 23 -104 23c-46 0 -89 -15.333 -129 -46
c-42.667 -33.333 -64 -72.333 -64 -117c0 -22 6.33301 -43.667 19 -65c-1.33301 6 -2 12.333 -2 19c0 13.333 4.66699 27.666 14 42.999c28.667 46.667 92.334 70 191.001 70c17.333 0 43.333 -1.33301 78 -4s60.667 -4 78 -4c63.333 0 118.333 10 165 30
c64 27.333 96 69.333 96 126c0 30 -10 54.167 -30 72.5s-45 27.5 -75 27.5c-25.333 0 -48 -6 -68 -18c-24 -13.333 -36 -32 -36 -56c0 -12.667 4 -23.834 12 -33.501s18.333 -14.5 31 -14.5c10 0 20.667 3.33301 32 10v-2l1 -1c-18.667 -14.667 -37.667 -22 -57 -22
c-20.667 0 -37.667 6.5 -51 19.5s-20 29.833 -20 50.5c0 30.667 14.667 56.334 44 77.001c26.667 19.333 56 29 88 29c38.667 0 72.334 -12.833 101.001 -38.5s43 -57.834 43 -96.501zM376.001 596.006c0 12 -2.33398 22.667 -7.00098 32
c-39.333 -24.667 -69.666 -68 -90.999 -130c5.33301 -1.33301 11 -2.33301 17 -3c54 22 81 55.667 81 101zM353 648.006c-17.333 14 -44.334 21 -81.001 21c-52.667 0 -96.667 -19.667 -132 -59s-53.333 -85.333 -54 -138c38.667 18 79 28 121 30
c9.33301 34 27.333 64 54 90s57.334 44.667 92.001 56zM386.999 413.006c-6.66699 38.667 -37.999 63.668 -93.999 75.001c-4 0.666992 -11 -1.33301 -21 -6c-4 -14.667 -6 -28 -6 -40c0 -5.33301 0.666992 -14.666 2 -27.999c24.667 9.33301 46 13.666 64 12.999h24
c9.33301 -0.666992 19.666 -5.33398 30.999 -14.001zM387 382.007c0 21.333 -14.667 32 -44 32c-23.333 0 -47 -6 -71 -18l-1 -1c20.667 -30 46 -45 76 -45c10 0 19.167 3 27.5 9s12.5 13.667 12.5 23zM219 386.007c-12.667 22.667 -18.999 44.668 -18.999 66.001
c0 14.667 1.66699 29 5 43c-42 -2.66699 -81.667 -13.334 -119 -32.001c1.33301 -28.667 10.166 -52.667 26.499 -72s38.166 -29.333 65.499 -30c12.667 8.66699 26.334 17 41.001 25zM544.001 176.008c0 16.667 -5.83105 31.333 -17.498 44s-25.834 19 -42.501 19
c-16 0 -29.667 -5 -41 -15s-17 -23 -17 -39c0 -8.66699 7 -20 21 -34c2 -2 2.66699 -4.66699 2 -8c-1.33301 -22.667 -12.666 -34 -33.999 -34c-10.667 0 -19 5.66699 -25 17c-8.66699 10.667 -15.334 22.667 -20.001 36c-5.33301 -40 -22.666 -79.333 -51.999 -118
c13.333 -2.66699 26.666 -4 39.999 -4c61.333 0 111.666 19.333 150.999 58c23.333 23.333 35 49.333 35 78zM252.003 2.00684c-47.333 8.66699 -88.6641 29.332 -123.997 61.999c-38 36 -57 77 -57 123c0 62 31.333 116.667 94 164c-58 8 -89.333 42.667 -94 104
c-48.667 -28 -86.834 -66 -114.501 -114s-41.5 -100 -41.5 -156c0 -52.667 11 -99 33 -139c24.667 -46 60.667 -75 108 -87c13.333 -3.33301 28 -5 44 -5c33.333 0 60.666 3.33301 81.999 10s44.666 19.334 69.999 38.001z" />
    <glyph glyph-name="quotesingle" unicode="'" horiz-adv-x="219" 
d="M242 570c0 -6.66699 -5.66797 -19.333 -17.001 -38l-100 -164l-6 2l55 166c12.667 38 27.334 57 44.001 57c16 0 24 -7.66699 24 -23z" />
    <glyph glyph-name="parenleft" unicode="(" horiz-adv-x="344" 
d="M379 699c-19.333 -30.667 -52.333 -87.333 -99 -170c-110 -210.667 -172.667 -437.334 -188 -680.001h-6c-6.66699 48.667 -10 100 -10 154c0 146 23.667 273.667 71 383c46 106.667 121.667 212.334 227 317.001z" />
    <glyph glyph-name="parenright" unicode=")" horiz-adv-x="281" 
d="M270 548c0 -145.333 -23.667 -272.666 -71 -381.999c-46 -106.667 -121.667 -212 -227 -316l-5 5c38 60 71 116.667 99 170c50 93.333 92.667 203.666 128 330.999c34 122 53.667 238.333 59 349h7c6.66699 -48.667 10 -101 10 -157z" />
    <glyph glyph-name="asterisk" unicode="*" horiz-adv-x="363" 
d="M326 645c0 -6.66699 -8.33301 -22 -25 -46c-18 -26.667 -28.667 -44 -32 -52c3.33301 16 5 29.667 5 41c0 4.66699 -0.5 12 -1.5 22s-1.5 17.333 -1.5 22c0 24.667 8.66699 37 26 37c19.333 0 29 -8 29 -24z" />
    <glyph glyph-name="plus" unicode="+" horiz-adv-x="369" 
d="M374 307l-4.00098 -14h-145l-23 -73l-24 -76h-15l10 32c-46.667 -55.333 -105.667 -83 -177 -83c-49.333 0 -93.666 16 -132.999 48c-42.667 34 -64 75 -64 123c0 37.333 17.667 69.333 53 96c32 24.667 67.333 37 106 37c24.667 0 56.667 -10 96 -30
c1.33301 -0.666992 1.66602 -1.66699 0.999023 -3s-1.66699 -1.66602 -3 -0.999023c-38.667 19.333 -70 29 -94 29c-36 0 -69.333 -12 -100 -36c-32.667 -26 -49 -56.667 -49 -92c0 -44.667 20.333 -82.667 61 -114c38 -28.667 80 -43 126 -43
c42.667 0 81.834 12.167 117.501 36.5s62.167 56.166 79.5 95.499c3.33301 10.667 8 28.667 14 54h-143l5 14h145l47 149h15l-47 -149h145z" />
    <glyph glyph-name="comma" unicode="," horiz-adv-x="200" 
d="M94 34c0 -28.667 -11.333 -57.333 -34 -86s-48 -48.667 -76 -60l-36 -11v3c54.667 20 93.667 58.667 117 116c-10 -1.33301 -16.667 -2 -20 -2c-12 0 -22.333 4.5 -31 13.5s-13 19.5 -13 31.5c0 13.333 4.33301 24.333 13 33s19.667 13 33 13c14 0 25.333 -5 34 -15
s13 -22 13 -36z" />
    <glyph glyph-name="hyphen" unicode="-" horiz-adv-x="267" 
d="M396 291c0 -54 -20.5 -102.832 -61.5 -146.499s-88.167 -65.5 -141.5 -65.5c-39.333 0 -72.333 10.333 -99 31c-42.667 33.333 -67 75 -73 125h-13l13 33c6 54 27.667 87 65 99c-34 -20 -54 -49 -60 -87h201l-17 -45h-184c3.33301 -28.667 15.5 -56.334 36.5 -83.001
s44.833 -45 71.5 -55c16 -6 35.667 -9 59 -9c46.667 0 89.834 22 129.501 66s59.5 89.667 59.5 137c0 51.333 -12.667 94.666 -38 129.999c-28 40 -66.667 60 -116 60c-26 0 -50 -7.66699 -72 -23c-24.667 -17.333 -37 -38.333 -37 -63c0 -28 13.667 -47.667 41 -59
c0 -1.33301 -0.333008 -2.33301 -1 -3c-33.333 8.66699 -50 27.334 -50 56.001c0 31.333 11.333 56.333 34 75c20.667 17.333 47 26 79 26c51.333 0 93.666 -20.667 126.999 -62c31.333 -39.333 47 -85 47 -137z" />
    <glyph glyph-name="hyphen" unicode="&#x2010;" horiz-adv-x="267" 
d="M396 291c0 -54 -20.5 -102.832 -61.5 -146.499s-88.167 -65.5 -141.5 -65.5c-39.333 0 -72.333 10.333 -99 31c-42.667 33.333 -67 75 -73 125h-13l13 33c6 54 27.667 87 65 99c-34 -20 -54 -49 -60 -87h201l-17 -45h-184c3.33301 -28.667 15.5 -56.334 36.5 -83.001
s44.833 -45 71.5 -55c16 -6 35.667 -9 59 -9c46.667 0 89.834 22 129.501 66s59.5 89.667 59.5 137c0 51.333 -12.667 94.666 -38 129.999c-28 40 -66.667 60 -116 60c-26 0 -50 -7.66699 -72 -23c-24.667 -17.333 -37 -38.333 -37 -63c0 -28 13.667 -47.667 41 -59
c0 -1.33301 -0.333008 -2.33301 -1 -3c-33.333 8.66699 -50 27.334 -50 56.001c0 31.333 11.333 56.333 34 75c20.667 17.333 47 26 79 26c51.333 0 93.666 -20.667 126.999 -62c31.333 -39.333 47 -85 47 -137z" />
    <glyph glyph-name="period" unicode="." horiz-adv-x="120" 
d="M90 47c0 -12.667 -4.33105 -23.502 -12.998 -32.502s-19.334 -13.5 -32.001 -13.5s-23.5 4.5 -32.5 13.5s-13.5 19.833 -13.5 32.5s4.5 23.334 13.5 32.001s19.833 13 32.5 13c13.333 0 24.166 -4.16699 32.499 -12.5s12.5 -19.166 12.5 -32.499z" />
    <glyph glyph-name="slash" unicode="/" horiz-adv-x="395" 
d="M435 662l-466 -743l-9 5l466 743z" />
    <glyph glyph-name="zero" unicode="0" horiz-adv-x="387" 
d="M493 380c0 -114 -46.667 -212.666 -140 -295.999c-83.333 -74.667 -164 -112 -242 -112c-71.333 0 -132.166 27 -182.499 81s-75.5 117 -75.5 189c0 112 49.667 197.333 149 256c38.667 22.667 79 36.334 121 41.001c-43.333 -8.66699 -82.333 -24.334 -117 -47.001
c-98.667 -64 -148 -147.333 -148 -250c0 -70 25.833 -130 77.5 -180s112.5 -75 182.5 -75c74.667 0 151 35.333 229 106c86.667 78.667 130 173.667 130 285c0 35.333 -11.833 65.5 -35.5 90.5s-53.167 37.5 -88.5 37.5c-66 0 -134.667 -29.667 -206 -89
c-10.667 -8.66699 -23.667 -22.334 -39 -41.001c22.667 22.667 42.667 34.667 60 36c26 16.667 55 25 87 25c34.667 0 62 -11.5 82 -34.5s30 -52.167 30 -87.5c0 -48 -13.333 -99.667 -40 -155s-58.667 -98.333 -96 -129c-32 -26.667 -67 -40 -105 -40
c-34 0 -60.833 10.167 -80.5 30.5s-29.5 47.5 -29.5 81.5c0 52 14.667 108.667 44 170c7.33301 62.667 38 118 92 166c63.333 56 132.666 84 207.999 84c39.333 0 71.333 -13.833 96 -41.5s37 -61.5 37 -101.5zM305 271.001c0 93.333 -31.667 140.003 -95 140.003
c-34.667 0 -64 -13.667 -88 -41s-36 -58.333 -36 -93c0 -41.333 22 -62 66 -62c30.667 0 57 12.667 79 38c14.667 17.333 22 33.666 22 48.999c0 26.667 -21.667 38.667 -65 36c22 6.66699 42.333 4 61 -8c10.667 -6.66699 16 -15.667 16 -27
c0 -18.667 -11.333 -38.334 -34 -59.001c-20 -18.667 -40 -31.334 -60 -38.001c-16 -5.33301 -31.333 -8 -46 -8c-22.667 0 -39.667 6 -51 18c-0.666992 -12 -1 -24.667 -1 -38c0 -102 34 -153 102 -153c86.667 0 130 82 130 246z" />
    <glyph glyph-name="one" unicode="1" horiz-adv-x="278" 
d="M472 65c0 -40.667 -10.6719 -78.5049 -32.0049 -113.505s-50.333 -61.833 -87 -80.5c-44 -22.667 -95 -34 -153 -34c-43.333 0 -80.666 15.5 -111.999 46.5s-47 68.167 -47 111.5v5h-51c-31.333 -7.33301 -47 4.33398 -47 35.001c0 18.667 9.66699 34 29 46
c16.667 11.333 34.667 17 54 17c16.667 0 31 -4.33301 43 -13c4.66699 12 11.334 30.333 20.001 55l46 136l29 85c1.33301 2 2 3.66699 2 5c0 2 -2 3 -6 3c-5.33301 -1.33301 -30 -9.33301 -74 -24c-32 -10.667 -57.667 -16 -77 -16c-14 0 -26.333 2 -37 6
c-25.333 9.33301 -36.333 25.666 -33 48.999c3.33301 22.667 19 41.334 47 56.001c10.667 5.33301 21.334 9 32.001 11c2.66699 0.666992 12 2.33398 28 5.00098c50.667 2.66699 101.334 -13 152.001 -47c18.667 10.667 35.667 21.334 51 32.001
c1.33301 -1.33301 3 -2.66602 5 -3.99902c-6 -15.333 -12.667 -34 -20 -56c18.667 -17.333 35 -38 49 -62c-1.33301 -2 -3 -3 -5 -3c-12.667 22.667 -28 42 -46 58l-45 -137c32.667 26.667 68.334 40 107.001 40c95.333 0 153.333 -58.333 174 -175
c2.66699 -15.333 4 -27.666 4 -36.999zM190.995 404.995c-59.333 36 -116.666 49.333 -171.999 40c-6.66699 -1.33301 -16.667 -5.33301 -30 -12c-25.333 -13.333 -39.666 -30.333 -42.999 -51c-4.66699 -31.333 16.666 -47 63.999 -47c39.333 0 99.666 23.333 180.999 70z
M460.995 73.9951c0 54 -14.002 99.667 -42.002 137c-30.667 41.333 -72.334 62 -125.001 62c-39.333 0 -75.666 -14.333 -108.999 -43c-7.33301 -19.333 -22.666 -63.666 -45.999 -132.999c-10 -29.333 -15 -48.333 -15 -57c0 -6.66699 5.66699 -12 17 -16l35 -8
c27.333 -6 41 -19.333 41 -40c0 -12.667 -5.66699 -23.167 -17 -31.5s-23.666 -12.166 -36.999 -11.499c-17.333 1.33301 -32 12.666 -44 33.999c-6.66699 12 -10.667 23 -12 33h-52v-5c0 -38.667 14.333 -71.5 43 -98.5s62.667 -40.5 102 -40.5
c103.333 0 179.333 36.333 228 109c22 33.333 33 69.666 33 108.999zM207.993 -22.0049c-1.33301 14.667 -19.002 22 -53.002 22h-40c1.33301 -8.66699 5 -18.334 11 -29.001c10.667 -19.333 25.334 -29 44.001 -29c10.667 0 19.834 3.33301 27.501 10
s11.167 15.334 10.5 26.001zM66.9912 78.9951c-14 10.667 -30 16.001 -48 16.001c-14 0 -25.667 -4.33301 -35 -13c-14.667 -14 -22 -27.333 -22 -40c0 -20 11.333 -30 34 -30c26.667 0 45.667 12.333 57 37l5 11c2 3.33301 5 9.66602 9 18.999z" />
    <glyph glyph-name="two" unicode="2" horiz-adv-x="375" 
d="M528 126c-31.333 -42.667 -69 -79.333 -113 -110c-52 -36 -100.667 -54 -146 -54c-20 0 -40 3 -60 9c-25.333 6.66699 -42.333 16.334 -51 29.001h-184c15.333 45.333 58.333 94.666 129 147.999c0.666992 16.667 2.66699 31.667 6 45c-4 -0.666992 -8.33301 -1 -13 -1
c-17.333 0 -31 6.5 -41 19.5s-15 28.5 -15 46.5c0 49.333 28.333 93.666 85 132.999c-29.333 35.333 -64.333 53 -105 53c-58.667 0 -94.334 -31.667 -107.001 -95l-6 -35c0 36.667 9.66699 67.667 29 93c21.333 28 49.666 42 84.999 42
c42.667 0 79.334 -18.667 110.001 -56c38 27.333 78 41 120 41c28 0 53.333 -8.33301 76 -25c25.333 -18 38 -40.667 38 -68s-10.667 -51 -32 -71c-14 -13.333 -37 -28 -69 -44c28.667 -31.333 43 -62.666 43 -93.999c0 -18 -5 -40.333 -15 -67
c-6 -14 -14.667 -35.667 -26 -65h-65c24.667 -15.333 54.334 -23 89.001 -23c40 0 82.333 15.333 127 46c38 26 71 58 99 96zM292 332.001c0 23.333 -7.33301 42.999 -22 58.999s-33.667 24 -57 24c-26 0 -52 -9 -78 -27c20 -27.333 30 -60.666 30 -99.999
c0 -8 -0.333008 -16 -1 -24c6.66699 2.66699 13.667 4 21 4c19.333 0 38.333 -7.33301 57 -22c33.333 26 50 54.667 50 86zM159 289c0 38.667 -9.33398 70.668 -28.001 96.001c-21.333 -13.333 -39.666 -30.333 -54.999 -51c-20 -26.667 -30 -53.334 -30 -80.001
c0 -37.333 17.333 -56 52 -56c4 0 8 0.333008 12 1c9.33301 31.333 25 52.333 47 63c1.33301 8.66699 2 17.667 2 27zM235.999 241.001c-16.667 10.667 -32.999 16.001 -48.999 16.001c-9.33301 0 -18 -1.66699 -26 -5c-6.66699 -28.667 -21.334 -47.334 -44.001 -56.001
c-3.33301 -12.667 -5.33301 -26.667 -6 -42zM154 248.002c-18 -11.333 -29.667 -26.667 -35 -46c16 6 27.667 21.333 35 46zM296 131.001c0 36.667 -12.667 67.333 -38 92c-33.333 -16 -82.333 -41.667 -147 -77c-0.666992 -28.667 6 -54.667 20 -78
c11.333 0 28.5 -0.333008 51.5 -1s40.167 -1 51.5 -1c41.333 0 62 21.667 62 65zM116 68c-11.333 20 -15.999 44 -13.999 72c-18.667 -15.333 -45.334 -40 -80.001 -74h56c4 0 10.333 0.333008 19 1s15 1 19 1z" />
    <glyph glyph-name="three" unicode="3" horiz-adv-x="402" 
d="M351 343c0 -31.333 -15.333 -62.667 -46 -94c-16 -16.667 -44.333 -39.667 -85 -69c56.667 -30 85 -72.333 85 -127c0 -60.667 -27 -113.667 -81 -159c-51.333 -42.667 -108 -64 -170 -64c-26.667 0 -50.667 4 -72 12c-29.333 11.333 -44 27.666 -44 48.999
c0 12.667 7.33301 21 22 25c-21.333 14 -32 42 -32 84c0 29.333 10 55.5 30 78.5s44.667 34.5 74 34.5c36 0 61.667 -19.333 77 -58c20 -4.66699 36.333 -15.334 49 -32.001c-10 6.66699 -25.667 15.334 -47 26.001c4.66699 -13.333 7 -25.666 7 -36.999
c0 -16 -5 -32 -15 -48c-16.667 -26.667 -37.667 -40 -63 -40c-9.33301 0 -18.666 3 -27.999 9c-18.667 12 -28 28.667 -28 50c0 12 3 22.667 9 32c18 28.667 47.333 43 88 43c7.33301 0 14.333 -0.666992 21 -2c-15.333 35.333 -40 53 -74 53c-31.333 0 -57 -15.667 -77 -47
c-10.667 -16.667 -16 -34 -16 -52c0 -41.333 24.333 -77 73 -107c6 -4 17 -16.333 33 -37c11.333 -14.667 24.666 -22 39.999 -22c42 0 78.333 20.667 109 62c28.667 38 43 78.667 43 122c0 27.333 -6.66699 51.333 -20 72c-15.333 24.667 -36 37 -62 37
c-13.333 0 -36.333 -5 -69 -15v5l17 7c-22.667 0.666992 -41.667 8.66699 -57 24s-23 34.333 -23 57c0 46.667 27 95 81 145s104.333 75 151 75c28 0 51.667 -8.5 71 -25.5s29 -39.167 29 -66.5zM283 318.999c0 22.667 -7.33398 42.5 -22.001 59.5s-33 25.5 -55 25.5
c-35.333 0 -74.5 -22.833 -117.5 -68.5s-64.5 -86.167 -64.5 -121.5c0 -22.667 7.83301 -40.834 23.5 -54.501s34.834 -20.167 57.501 -19.5c12 0.666992 31 8.66699 57 24c23.333 14 40 26.333 50 37c12 13.333 18 30.333 18 51c0 41.333 -19.333 62 -58 62
c-26.667 0 -46.667 -11.667 -60 -35l-10 -6c17.333 31.333 42 47 74 47c19.333 0 34.833 -6.33301 46.5 -19s17.5 -28.667 17.5 -48c0 -13.333 -3 -26.666 -9 -39.999c34.667 32.667 52 68 52 106zM112.999 12.999c0 11.333 -2.66797 24 -8.00098 38c-7.33301 2 -15 3 -23 3
c-36.667 0 -63.667 -14 -81 -42c-5.33301 -8.66699 -8 -18 -8 -28c0 -12.667 4.5 -24.667 13.5 -36s19.5 -17 31.5 -17c24.667 0 45.334 13.333 62.001 40c8.66699 14 13 28 13 42z" />
    <glyph glyph-name="four" unicode="4" horiz-adv-x="387" 
d="M531 390c0 -46.667 -22.3311 -101.001 -66.998 -163.001l-26 -33c-2.66699 -5.33301 -6.33398 -13.666 -11.001 -24.999c-26.667 -47.333 -64.667 -85 -114 -113c-6.66699 -15.333 -11.667 -28 -15 -38h-75l-59 -170h-37c-9.33301 0 -19.333 -0.333008 -30 -1
c-22 -21.333 -51 -40 -87 -56c-38 -16.667 -71.667 -25 -101 -25c-74.667 0 -112 35.667 -112 107l6 4c0 -36.667 7.5 -63 22.5 -79s40.833 -24 77.5 -24c36 0 72.167 8.16699 108.5 24.5s66.166 37.833 89.499 64.5l55 155h-202l17 44l328 365
c7.33301 23.333 23.166 44.5 47.499 63.5s48.5 28.5 72.5 28.5c50.667 0 85.334 -27.333 104.001 -82c5.33301 -15.333 8 -31 8 -47zM511.002 380.999c0 16.667 -2.33203 33.332 -6.99902 49.999c-15.333 54 -44.666 81 -87.999 81c-20 0 -39.333 -7.5 -58 -22.5
s-31.334 -32.5 -38.001 -52.5h12c5.33301 0.666992 9.66602 1 12.999 1c2.66699 0 6.66699 -0.333008 12 -1h13l-21 -61h6c28 0 51.667 -13 71 -39c16.667 -24 25 -50.667 25 -80c0 -14.667 -2.33301 -30 -7 -46c44.667 58.667 67 115.334 67 170.001zM436.003 252.997
c0 26.667 -8.33301 51.334 -25 74.001c-18 25.333 -39.667 38.666 -65 39.999l-105 -305h27c20 9.33301 47.667 27.833 83 55.5s58.333 49.5 69 65.5s16 39.333 16 70zM412.003 165.997c-40.667 -42 -85.332 -76.668 -133.999 -104.001h37
c43.333 30.667 75.666 65.334 96.999 104.001zM285.005 397.996l-298.999 -337h184c1.33301 2.66699 2.66602 6 3.99902 10z" />
    <glyph glyph-name="five" unicode="5" horiz-adv-x="369" 
d="M367 435c-1.33301 -2.66699 -2.33008 -5.66602 -2.99707 -8.99902l-5 -15l-12 -34l-12 -35h-1c-10.667 -24 -29.5 -44.667 -56.5 -62s-53.5 -26 -79.5 -26c-18 0 -29 6.33301 -33 19c-2.66699 9.33301 -4.66699 16.666 -6 21.999l4 3l2 -3c6.66699 -10 19.667 -17 39 -21
c6.66699 -1.33301 13.667 -2 21 -2c42 0 75.667 23.333 101 70c-32 0.666992 -53.667 0.666992 -65 0c-1.33301 -0.666992 -13 -1 -35 -1h-23c-14 0.666992 -25 1 -33 1h-58l-38 -103c7.33301 0.666992 14.666 1 21.999 1c54.667 0 95.667 -19.333 123 -58
c49.333 -22 74 -65 74 -129c0 -31.333 -8 -62.333 -24 -93c-45.333 -86.667 -116 -130 -212 -130c-62.667 0 -109.334 26 -140.001 78c-19.333 32.667 -29 69 -29 109c0 53.333 16 101 48 143s73.667 67.667 125 77l61 163c36 2 67.667 3 95 3h93
c22.667 0 36.667 5.66699 42 17c1.33301 2 3.66602 7.33301 6.99902 16c2 0 4.66699 -0.333008 8 -1zM202.003 188.001c-26.667 30.667 -63.667 46 -111 46c-6 0 -12.333 -0.333008 -19 -1c-12.667 -36 -19.334 -56.667 -20.001 -62c38.667 16 73 24 103 24
c16.667 0 32.334 -2.33301 47.001 -7zM222.003 41.001c-34 -52 -82.665 -78 -145.998 -78s-110.333 26.667 -141 80l1 6c27.333 -47.333 74.666 -71 141.999 -71c32 0 62 8.33301 90 25c33.333 19.333 50 43.666 50 72.999c0 17.333 -11.833 33.333 -35.5 48
s-44.834 22 -63.501 22c-27.333 0 -57.666 -6 -90.999 -18c-0.666992 0 -2.33398 1.66699 -5.00098 5c1.33301 5.33301 13.333 38.333 36 99c-49.333 -9.33301 -89.166 -34.833 -119.499 -76.5s-45.5 -88.167 -45.5 -139.5c0 -53.333 14 -95.666 42 -126.999v7
c0 18 8.66699 27 26 27c11.333 0 24.333 -8 39 -24l35 -38c15.333 -12.667 31 -19 47 -19c33.333 0 62.666 16.333 87.999 49c36 46 53 96 51 150z" />
    <glyph glyph-name="six" unicode="6" horiz-adv-x="366" 
d="M593 494c0 -12 -2.33398 -24 -7.00098 -36c-16 -40.667 -43 -74.834 -81 -102.501s-79 -43.167 -123 -46.5c-16 -1.33301 -30.333 -1 -43 1c4.66699 -11.333 7 -23.666 7 -36.999c0 -58 -22.667 -118.667 -68 -182c-48.667 -67.333 -100.667 -101 -156 -101
c-33.333 0 -59 18.667 -77 56c-14 30 -21 63.667 -21 101c0 115.333 51.667 219 155 311c-2 11.333 -3 24.333 -3 39c0 12 0.666992 25 2 39l7 4c-0.666992 -7.33301 -1 -14.333 -1 -21c0 -18 2.33301 -35 7 -51c34.667 30 61.334 51.333 80.001 64c66.667 46 131 69 193 69
c54.667 0 92.667 -18.667 114 -56c10 -17.333 15 -34.333 15 -51zM578.999 499c0 28.667 -12 52.333 -36 71s-50.667 28 -80 28c-22 0 -42.333 -5 -61 -15c-70.667 -38 -133.667 -92.667 -189 -164c9.33301 -14 25 -29.333 47 -46c26.667 -4.66699 48 -16.667 64 -36
c25.333 -9.33301 52.333 -13 81 -11c78 6 132.667 48.333 164 127c6.66699 16.667 10 32 10 46zM220.999 374.999c-6.66699 7.33301 -13.333 16.667 -20 28c-10.667 -14 -20.667 -28.667 -30 -44c21.333 8.66699 38 14 50 16zM284 294
c0 45.333 -21.001 68.001 -63.001 68.001c-28 0 -55 -23.667 -81 -71c-7.33301 -25.333 -10.666 -47 -9.99902 -65c0 -12.667 3 -24.667 9 -36c7.33301 -13.333 17 -20 29 -20c10 0 19.167 4.66699 27.5 14s12.5 19 12.5 29c0 4 -0.666992 7.66699 -2 11
c-4 6 -10.333 11 -19 15c2.66699 1.33301 5.33398 2 8.00098 2c7.33301 0 14.333 -4.66699 21 -14c4.66699 -6.66699 5 -17.667 1 -33c-6.66699 -24.667 -24.667 -37 -54 -37c-32 0 -48.333 21 -49 63c-0.666992 4.66699 -0.666992 9.66699 0 15
c-25.333 -62.667 -38 -113 -38 -151c0 -20 3.66699 -37.667 11 -53c9.33301 -20 22.666 -30 39.999 -30c34 0 69.667 41.333 107 124c33.333 73.333 50 129.666 50 168.999z" />
    <glyph glyph-name="seven" unicode="7" horiz-adv-x="316" 
d="M369 298l-69.002 -49.9971c-27.333 -18.667 -52 -33 -74 -43c-17.333 -34.667 -33.666 -70 -48.999 -106c7.33301 -2 14.666 -3 21.999 -3c30.667 0 50 15 58 45l12 7c-5.33301 -20.667 -17.833 -37.334 -37.5 -50.001s-40.5 -18.667 -62.5 -18
c-19.333 -46.667 -37.333 -99.334 -54 -158.001c-18 -61.333 -40 -92 -66 -92c-23.333 0 -35 12.333 -35 37c0 10 6.33301 30.333 19 61c20 48.667 50.667 104.667 92 168c-18 12.667 -34.333 19 -49 19c-12.667 0 -23 -5 -31 -15l-13 -8c18 23.333 41 35 69 35
c12.667 0 25.667 -2.66699 39 -8l48 71c-21.333 -6 -42.333 -9 -63 -9c-19.333 0 -37.666 2 -54.999 6c-42 10 -65.333 37 -70 81c-2.66699 30.667 10 59.334 38 86.001c12 11.333 20.5 26.666 25.5 45.999s10.5 33 16.5 41s19 20.333 39 37c22 13.333 45.333 20 70 20
c36.667 0 63.667 -14.333 81 -43c10 -16.667 14.667 -34.334 14 -53.001h57c2 0 5 0.333008 9 1l-29 -40c-36 -52.667 -66.333 -103 -91 -151c30.667 13.333 76.334 43 137.001 89zM278.998 402.003c0.666992 18.667 -3.66602 35.667 -12.999 51
c-15.333 25.333 -40.333 38 -75 38c-17.333 0 -38 -7 -62 -21c-27.333 -15.333 -39 -31 -35 -47c3.33301 -13.333 12.666 -20 27.999 -20zM289.998 343.003c-10.667 -0.666992 -21.335 -0.999023 -32.002 -0.999023c-35.333 -40.667 -81.666 -61 -138.999 -61l10 6
c48.667 0 89.334 18 122.001 54h-23c-12.667 0.666992 -22 1 -28 1h-49h-37c-27.333 0 -43 -0.333008 -47 -1c-28 -4.66699 -42 -24.334 -42 -59.001c0 -44.667 20 -71.667 60 -81s76.333 -10 109 -2z" />
    <glyph glyph-name="eight" unicode="8" horiz-adv-x="389" 
d="M426 303c0 -49.333 -26.001 -94.998 -78.001 -136.998v-8c0 -48.667 -18.167 -89.167 -54.5 -121.5s-79.166 -48.5 -128.499 -48.5c-44 0 -81.667 12 -113 36c-34.667 26 -52 60.333 -52 103c0 54.667 35 100.334 105 137.001l81 42
c-3.33301 7.33301 -7 14.666 -11 21.999l-31 54c-7.33301 16.667 -11 37.334 -11 62.001c0 42 15.667 77.667 47 107s68.333 44 111 44c34 0 63.333 -9.33301 88 -28c27.333 -20.667 41 -47.334 41 -80.001c0 -58.667 -52 -111.334 -156 -158.001
c50 -58 77.667 -109.333 83 -154c48.667 44.667 73 91.667 73 141c0 15.333 -3 29.666 -9 42.999c10 -9.33301 15 -28 15 -56zM372.999 492.002c0 26 -8.49805 47.6689 -25.498 65.002s-38.5 26 -64.5 26c-24 0 -45.167 -7.66699 -63.5 -23s-29.833 -35 -34.5 -59
c20 23.333 43.667 35 71 35c17.333 0 33 -5.83301 47 -17.5s21 -25.834 21 -42.501c0 -12.667 -5.5 -25 -16.5 -37s-22.833 -18 -35.5 -18c-9.33301 0 -14.333 0.333008 -15 1c0.666992 0 6.66699 0.5 18 1.5s21.666 7.16699 30.999 18.5s14 22.333 14 33
c0 15.333 -6.16699 28 -18.5 38s-26.5 15 -42.5 15c-34 0 -59.333 -12.667 -76 -38v-9c0 -28.667 8 -55.334 24 -80.001c3.33301 -4.66699 20.666 -27 51.999 -67c76 39.333 114 92 114 158zM289.001 133.004c-4 28.667 -14.666 55.668 -31.999 81.001l-51 71l-7 10l-5 3
c-16 -6 -28.333 -22.667 -37 -50c-6.66699 -20.667 -10 -42.334 -10 -65.001c0 -21.333 7.16699 -38.333 21.5 -51s32.166 -19 53.499 -19c12.667 0 35 6.66699 67 20zM290.002 115.005c0 4 -0.333984 8.33398 -1.00098 13.001c-33.333 -19.333 -62.666 -29 -87.999 -29
c-24 0 -44.333 7.16699 -61 21.5s-25 33.5 -25 57.5c0 32.667 15.333 67.667 46 105c-65.333 -36.667 -98 -87 -98 -151c0 -34.667 10.667 -65.334 32 -92.001c22.667 -28.667 51 -43 85 -43c31.333 0 57.5 11.667 78.5 35s31.5 51 31.5 83z" />
    <glyph glyph-name="nine" unicode="9" horiz-adv-x="373" 
d="M344 292c0 -106.667 -34.667 -202 -104 -286c-66 -79.333 -151.667 -135.333 -257 -168c-28 -8.66699 -53 -13 -75 -13c-51.333 0 -88 19 -110 57c-14.667 25.333 -22 53.333 -22 84c0 66 27.333 115.333 82 148l5 3c20 12 41 18 63 18c19.333 0 34.333 -7 45 -21
s16 -31 16 -51c0 -34 -16.667 -60.333 -50 -79l-4 -3l-2 4c34 19.333 51 45.666 51 78.999c0 18.667 -5.16699 34.334 -15.5 47.001s-24.5 19 -42.5 19c-20.667 0 -41.334 -6 -62.001 -18c-46 -27.333 -69 -69.333 -69 -126c0 -32.667 8.33301 -63.334 25 -92.001
c23.333 -40 58 -60 104 -60c14.667 0 30.334 1.66699 47.001 5l-1 1c100.667 52.667 178 130.334 232 233.001c-31.333 -12.667 -56.666 -19 -75.999 -19c-28 0 -51.667 8.83301 -71 26.5s-29 40.5 -29 68.5c0 50 16 101.833 48 155.5s70 92.167 114 115.5
c19.333 10 37.666 15 54.999 15c68.667 0 103 -47.667 103 -143zM294 362c0 42.667 -16.3311 64.002 -48.998 64.002c-20.667 0 -40.667 -12 -60 -36c-26 -32 -47.667 -70.667 -65 -116c-18 -47.333 -27 -90.666 -27 -129.999c0 -48.667 19.333 -73 58 -73
c37.333 0 70.666 36 99.999 108c-9.33301 -11.333 -16 -19 -20 -23c-8.66699 -8.66699 -17 -14.667 -25 -18c-11.333 -4.66699 -25.666 -7 -42.999 -7c-12.667 0 -23 5.66699 -31 17s-12 23.666 -12 36.999c0 25.333 12 52.666 36 81.999c20.667 26 43.667 46 69 60
c1.33301 -2 1.66602 -3.33301 0.999023 -4c-21.333 -12 -39 -28.333 -53 -49c-16 -22.667 -24 -45.334 -24 -68.001c0 -26 8.33301 -42 25 -48c6 -2 11.667 -3 17 -3c31.333 0 59.666 32 84.999 96c12 46 18 83 18 111z" />
    <glyph glyph-name="colon" unicode=":" horiz-adv-x="201" 
d="M212 400c0 -10.667 -2.3291 -19.667 -6.99609 -27c-0.666992 -12 -5.33398 -22.167 -14.001 -30.5s-19 -12.5 -31 -12.5c-13.333 0 -24.5 4.66699 -33.5 14s-13.5 20.666 -13.5 33.999c0 12.667 4.66699 23.167 14 31.5s20.666 12.5 33.999 12.5c18 0 31 -8 39 -24
c-2 16 -9.66699 29.5 -23 40.5s-28 16.5 -44 16.5c-37.333 0 -69 -18.667 -95 -56c-23.333 -34 -35 -70.667 -35 -110c0 -34 9.66699 -63.333 29 -88c20.667 -26.667 47.667 -40 81 -40c10 0 20 1 30 3c-8 14.667 -20.667 27.667 -38 39l6 4
c15.333 -10 27.666 -24 36.999 -42c12 2.66699 22.667 5.66699 32 9c-6 -2 -16 -6.33301 -30 -13c6.66699 -14.667 10 -30.667 10 -48c0 -44.667 -16.5 -85 -49.5 -121s-71.5 -54 -115.5 -54c-39.333 0 -71.666 12.167 -96.999 36.5s-38 56.166 -38 95.499
c0 34 9.66699 63.833 29 89.5s45.666 38.5 78.999 38.5c36 0 66.333 -13.167 91 -39.5s37 -57.833 37 -94.5c0 -9.33301 -2 -17 -6 -23c-4.66699 -26.667 -19.667 -40 -45 -40c-12 0 -22.667 4.66699 -32 14s-14 20 -14 32c0 12.667 4.5 23.334 13.5 32.001
s19.833 13 32.5 13c14 0 25.667 -5 35 -15c-4 31.333 -17.333 57.5 -40 78.5s-49.667 31.5 -81 31.5c-29.333 0 -52.5 -11.333 -69.5 -34s-25.5 -49 -25.5 -79c0 -39.333 12.167 -71 36.5 -95s56.166 -36 95.499 -36c42.667 0 79.667 17.5 111 52.5s47 74.167 47 117.5
c0 16.667 -3 32 -9 46c-16 -5.33301 -30 -8 -42 -8c-32 0 -58.333 14.667 -79 44c-19.333 26.667 -29 56.334 -29 89.001c0 42.667 13 82 39 118c28 40 62.667 60 104 60c18 0 34.833 -6 50.5 -18s23.5 -26.667 23.5 -44z" />
    <glyph glyph-name="semicolon" unicode=";" horiz-adv-x="199" 
d="M204 376c0 -12.667 -4.16699 -23.498 -12.5 -32.498s-18.833 -13.5 -31.5 -13.5s-23.667 4.5 -33 13.5s-14 19.833 -14 32.5c0 13.333 4.5 24.166 13.5 32.499s20.167 12.5 33.5 12.5c12.667 0 23.167 -4.33301 31.5 -13s12.5 -19.334 12.5 -32.001zM180 282.002
c-45.333 -11.333 -69.002 -17.334 -71.002 -18.001c-27.333 -12 -54.333 -38.333 -81 -79c32.667 -7.33301 49 -27.333 49 -60c0 -20 -7 -33.333 -21 -40c25.333 -4.66699 38 -22 38 -52c0 -28.667 -11.333 -57.167 -34 -85.5s-48 -48.166 -76 -59.499l-36 -11v3
c54.667 20 93 58.333 115 115h-20c-4.66699 -13.333 -13.5 -25.166 -26.5 -35.499s-26.167 -15.5 -39.5 -15.5c-23.333 0 -41.666 12.667 -54.999 38c-11.333 21.333 -17 44.666 -17 69.999c0 33.333 11 64.333 33 93c24 32 52 45.667 84 41
c16.667 30.667 38.334 54.667 65.001 72c29.333 18 60.333 26 93 24zM70.998 127.001c0 26 -15.667 42.333 -47 49c-5.33301 -13.333 -8 -29 -8 -47c0 -28 6.66699 -43 20 -45c4 0.666992 7.66699 1 11 1c16 6 24 20 24 42zM35.998 -3.99902
c-23.333 5.33301 -35 19.667 -35 43c0 20 8.66699 34 26 42c-11.333 7.33301 -17 24 -17 50c0 18 2.66699 33.667 8 47h-10c-29.333 0 -53.333 -14.333 -72 -43c-16.667 -25.333 -25 -53.333 -25 -84c0 -25.333 5 -47.333 15 -66c12 -22.667 29.667 -34 53 -34
c25.333 0 44.333 15 57 45z" />
    <glyph glyph-name="less" unicode="&#x3c;" horiz-adv-x="466" 
d="M492 258c0 -33.333 -6.33203 -62.668 -18.999 -88.001l-18 -37c-2.66699 -6.66699 -4.33398 -16 -5.00098 -28c0 -6.66699 1.33301 -16 4 -28l-104 68l-302 195v4l105 67c-2 26.667 3.33301 50.334 16 71.001l10 7c-12.667 -22 -18 -46 -16 -72l288 186
c8 -37.333 18 -93.666 30 -168.999c1.33301 -14.667 -4.66699 -39.334 -18 -74.001c19.333 -28.667 29 -62.667 29 -102zM453.001 498.998c-0.666992 17.333 -1.99902 43 -3.99902 77l-282 -184c6 -23.333 16 -45.666 30 -66.999c24.667 -18 53.334 -37.333 86.001 -58
c11.333 -2.66699 22.666 -4 33.999 -4c22.667 0 44.334 4.66699 65.001 14c29.333 21.333 49.666 55 60.999 101c-28 31.333 -57 47 -87 47c-20.667 0 -39 -8.33301 -55 -25l-15 -9c12.667 14 23 23 31 27l4 3c11.333 6.66699 23.666 10 36.999 10
c29.333 0 58.333 -15.667 87 -47c8 35.333 10.667 73.666 8 114.999zM480.002 282.998c0 28 -6.33301 52 -19 72c-10 -24.667 -22 -43 -36 -55c-7.33301 -6.66699 -16.333 -13 -27 -19l-26 -15c-18.667 -10.667 -38 -17 -58 -19l136 -86l1 1c19.333 38.667 29 79 29 121z
M169.002 345.998c-6 12.667 -10.333 25.667 -13 39l-21 -14z" />
    <glyph glyph-name="equal" unicode="=" horiz-adv-x="362" 
d="M436 390c2.66699 -10.667 -11.3291 -22.3359 -41.9961 -35.0029c-8.66699 -3.33301 -31.334 -6 -68.001 -8c-13.333 -0.666992 -31 -0.666992 -53 0c-8 -22 -22 -54.333 -42 -97c53.333 -0.666992 95.333 0 126 2l-4 -12c-56 -2.66699 -100 -4 -132 -4
c-16 -21.333 -33.333 -36.666 -52 -45.999l-8 -4c-50.667 -25.333 -95 -37.333 -133 -36c-12.667 0.666992 -31.334 10.334 -56.001 29.001l6 3c18 -14 37.333 -21.333 58 -22c45.333 -2 87.666 8.33301 126.999 31c19.333 11.333 36.333 26.333 51 45
c0.666992 0 -23.666 1.33301 -72.999 4c-26.667 1.33301 -50.667 0 -72 -4c-9.33301 -5.33301 -24 -11.666 -44 -18.999c-4.66699 -0.666992 -11.334 0.166016 -20.001 2.49902s-14.167 5.5 -16.5 9.5s-3.5 8 -3.5 12c0 8.66699 6 16.334 18 23.001l13 7
c20 10.667 41.667 18.334 65 23.001l87 17c12.667 2.66699 32.334 8.66699 59.001 18c9.33301 5.33301 17 11.666 23 18.999c-28 1.33301 -48 2 -60 2h-107l4 13h18c16 0.666992 22 1 18 1h136c1.33301 6 0.666016 12 -2.00098 18c-9.33301 14.667 -27 22 -53 22
c-25.333 0 -54.333 -6.66699 -87 -20l-27 -11l29 17c29.333 13.333 58.333 20 87 20c16.667 0 31 -3.33301 43 -10c14.667 -8.66699 20 -20.667 16 -36h10c5.33301 7.33301 9.66602 12.333 12.999 15c8 9.33301 15.667 16 23 20l9 5c22.667 12.667 46 17 70 13
c6 -0.666992 13.333 -2 22 -4c16 -5.33301 24 -13 24 -23zM412.004 379.998c-0.666992 2 -1 3.66699 -1 5c-6.66699 8.66699 -19.667 14.667 -39 18c-22 4 -40 2 -54 -6s-26 -19 -36 -33h88c4.66699 0 16.667 1.66699 36 5c4 5.33301 6 9 6 11zM266.004 346.998l-9 1
c-8 -10 -16.333 -17 -25 -21l-6 -3c-15.333 -7.33301 -35.333 -13.666 -60 -18.999c-15.333 -3.33301 -44.333 -9 -87 -17c-22.667 -4 -45 -12 -67 -24c-8.66699 -4.66699 -10.334 -12.334 -5.00098 -23.001c4 -7.33301 9.66699 -10.333 17 -9
c2.66699 1.33301 12.334 4 29.001 8l7 1c42 6 76.667 9 104 9h59c8.66699 22.667 23 55 43 97z" />
    <glyph glyph-name="greater" unicode="&#x3e;" horiz-adv-x="419" 
d="M457 332l-214.003 -129.997c0.666992 -6 1 -12 1 -18c0 -56 -23.667 -97.333 -71 -124l-4 -3l-12 -6l-2 3l4 3c25.333 11.333 44.833 30.166 58.5 56.499s18.834 53.5 15.501 81.5c-60 -38 -114.667 -74.333 -164 -109c-8 -5.33301 -16.333 -9 -25 -11
c-5.33301 -0.666992 -10.666 -1 -15.999 -1c-60 0 -90 33.333 -90 100c0 20.667 5 40.667 15 60c-23.333 15.333 -35 42 -35 80c0 22.667 6.33301 45 19 67c6.66699 11.333 15.334 22.666 26.001 33.999c16 16.667 25.333 26.667 28 30l38 45c14 18 23.667 34.667 29 50v21
c0 15.333 -0.666992 28.666 -2 39.999l193 -132l208 -136v-1zM369.997 304.003l-109.001 79.002l-196 127c-2 -5.33301 -9 -14.333 -21 -27l-25 -26c-9.33301 -10 -23.333 -28.667 -42 -56c-21.333 -38.667 -32 -71.334 -32 -98.001c0 -21.333 6.33301 -38.333 19 -51
c32.667 48.667 74.334 73 125.001 73c14.667 0 30.667 -2 48 -6c56 -12.667 90.333 -46.334 103 -101.001zM229.996 211.005c-6 24 -17.668 45.668 -35.001 65.001s-37.333 31.666 -60 36.999c-18 4 -34.333 6 -49 6c-33.333 0 -61.333 -10.333 -84 -31
c-13.333 -12 -24.333 -25.667 -33 -41c14 -10.667 30.667 -16 50 -16c12 0 22.667 2 32 6c12 8.66699 18 18.667 18 30l6 4c0 -16 -6 -27.667 -18 -35l-8 -5c-12 -7.33301 -27 -11 -45 -11c-16 0 -30.333 3 -43 9c-6 -15.333 -9 -32.333 -9 -51
c0 -14.667 7.33301 -30 22 -46c18.667 -20.667 40.334 -31 65.001 -31c13.333 0 25.333 3.33301 36 10z" />
    <glyph glyph-name="question" unicode="?" horiz-adv-x="369" 
d="M408 537c0 -39.333 -14.3301 -75.333 -42.9971 -108c-18 -20.667 -48.667 -46 -92 -76c-36.667 -25.333 -70.667 -50.666 -102 -75.999c-14.667 -12 -27 -26.667 -37 -44c12 -7.33301 23.667 -22.333 35 -45c8 -15.333 9.33301 -34.333 4 -57v-2
c5.33301 -1.33301 10.666 -2 15.999 -2c13.333 0 25.166 4.33301 35.499 13s15.5 19.667 15.5 33c0 11.333 -6.33301 24 -19 38c-0.666992 -25.333 -8 -38 -22 -38s-21 7.33301 -21 22c0 10 3 16.667 9 20c2.66699 4.66699 9.33398 7 20.001 7c27.333 0 41 -14.333 41 -43
c0 -17.333 -6.5 -31.5 -19.5 -42.5s-28.167 -16.5 -45.5 -16.5c-4 0 -8 0.333008 -12 1c-4 -16 -13.667 -29.333 -29 -40c14.667 -8.66699 22 -22 22 -40c0 -12.667 -4.33301 -23.5 -13 -32.5s-19.334 -13.5 -32.001 -13.5c-48 0 -85.333 20.333 -112 61
c-15.333 23.333 -23 47.666 -23 72.999c0 26 9.33301 50.333 28 73c-2.66699 27.333 2 52.333 14 75c20 37.333 65 76.666 135 117.999l5 2l80 43c46.667 26 70 64.667 70 116c0 25.333 -6.66699 48.5 -20 69.5s-32 35.167 -56 42.5
c-28 -1.33301 -51.167 -10.666 -69.5 -27.999s-27.5 -39.666 -27.5 -66.999c0 -19.333 5.5 -36.333 16.5 -51s25.833 -22 44.5 -22c7.33301 0 17.333 3.66699 30 11c-24 13.333 -36 28.666 -36 45.999c0 23.333 11.333 35 34 35c16 0 27.333 -7.66699 34 -23
c8 -12 12 -24.667 12 -38c0 -30 -19.333 -58 -58 -84l-9 -6c-16.667 -11.333 -36.334 -17 -59.001 -17c-26.667 0 -49.167 10.667 -67.5 32s-27.5 45.333 -27.5 72c0 28.667 10.667 58.667 32 90c12 18 25.667 30.667 41 38l4 2c26.667 13.333 51 20 73 20
c9.33301 0 18.333 -1 27 -3c10 2 20.333 3 31 3c40 0 73.833 -13.5 101.5 -40.5s41.5 -60.5 41.5 -100.5zM271.003 533c0 4.66699 -0.333008 8.99805 -1 12.998c-1.33301 -16 -9 -28.5 -23 -37.5s-29.333 -13.5 -46 -13.5c-20.667 0 -37 7.5 -49 22.5s-18 33.167 -18 54.5
c0 50 28.667 83.333 86 100c-6.66699 0.666992 -13.334 1 -20.001 1c-44.667 0 -79.667 -18.333 -105 -55c-17.333 -25.333 -26 -51.666 -26 -78.999c0 -20 5 -38.667 15 -56v-1c6.66699 -12 11.334 -19 14.001 -21c12 -18 33.333 -27 64 -27c19.333 0 36.333 4.33301 51 13
c38.667 22.667 58 51.334 58 86.001zM358.003 550.998c0 28 -9.66699 53.333 -29 76s-43 36 -71 40c42 -21.333 63 -58.666 63 -111.999c0 -49.333 -23.667 -88.333 -71 -117l-5 -3c-17.333 -8 -47.333 -24 -90 -48c-86 -52 -131 -110.333 -135 -175
c21.333 21.333 45 32.666 71 33.999c6 31.333 22.333 59 49 83c8.66699 8 43.334 33.333 104.001 76c37.333 26 62.666 46.333 75.999 61c25.333 26.667 38 55 38 85zM167.003 133.998c2 10 3 18.666 3 25.999c0 14 -3.33301 25.333 -10 34s-17.667 16.334 -33 23.001
c-2.66699 -8 -4 -15.667 -4 -23c0 -32.667 14.333 -53.667 43 -63zM164.003 121.997c-22 5.33301 -40.002 17.333 -54.002 36s-21 39.334 -21 62.001c-24 -4 -45.333 -17.833 -64 -41.5s-28 -47.834 -28 -72.501c0 -12.667 3.33301 -26.334 10 -41.001
c12.667 -27.333 40.334 -47 83.001 -59c-11.333 10 -17 22 -17 36c0 11.333 4.33301 21.333 13 30c-13.333 3.33301 -22 9.33301 -26 18l-4 8c-6 12.667 -4.33301 24.5 5 35.5s21 16.5 35 16.5c10 0 19.167 -3.66699 27.5 -11s12.5 -15.666 12.5 -24.999
c0 -15.333 -9 -23 -27 -23h-10c2 0 9.66699 3 23 9c6 4 9 9 9 15c0 18 -10.333 27 -31 27c-16 0 -27.667 -7.33301 -35 -22c-5.33301 -10 -4.66602 -18.833 2.00098 -26.5s15.667 -12.5 27 -14.5c7.33301 4.66699 16 7 26 7c5.33301 0 10.333 -0.666992 15 -2v0
c15.333 9.33301 25 22 29 38z" />
    <glyph glyph-name="at" unicode="@" horiz-adv-x="720" 
d="M730 426c0 -74 -28.166 -138.831 -84.499 -194.498s-121.5 -83.5 -195.5 -83.5c-38.667 0 -58 12.333 -58 37c0 11.333 2.33301 25.333 7 42c-6 3.33301 -11.667 6.66602 -17 9.99902c-41.333 -58.667 -80 -88 -116 -88c-32.667 0 -49 17.333 -49 52
c0 45.333 23.667 102.333 71 171c0 4 0.833008 9.83301 2.5 17.5s2.5 13.167 2.5 16.5c2 47.333 18 89.333 48 126c-66.667 -14.667 -116 -53 -148 -115c-21.333 -40 -32 -81.333 -32 -124c0 -84 41.667 -145.667 125 -185c43.333 -20.667 90 -31 140 -31
c70.667 0 123.667 21 159 63l13 8c-16.667 -20.667 -33.667 -36 -51 -46l-5 -2c-32.667 -19.333 -72 -29 -118 -29c-48 0 -93.667 10 -137 30c-48 22 -83 52 -105 90c-17.333 30 -26 64.333 -26 103c0 42.667 10.167 83.667 30.5 123s48.166 69.666 83.499 90.999l5 3
c20 12 43.667 21 71 27c12.667 14 27.334 26 44.001 36l5 3c33.333 20 71.333 30 114 30c50 0 88.667 -16 116 -48c16.667 -19.333 25 -46 25 -80c0 -55.333 -16.333 -92.333 -49 -111l-14 -8c-9.33301 -5.33301 -20 -8 -32 -8c-25.333 0 -40.333 10 -45 30l-36 -81
c-14 -34.667 -22.667 -62 -26 -82c14 -4 28.333 -6 43 -6c38 0 72.667 11.667 104 35l4 3l2 -3c-4 -3.33301 -10.333 -7.66602 -19 -12.999l-5 -3c-30 -18 -61.333 -27 -94 -27c-12.667 0 -25 1.33301 -37 4v-9c0 -24 13 -36 39 -36c38.667 0 76.667 15.667 114 47
c34 28.667 60 62 78 100c15.333 33.333 23 67.333 23 102c0 76 -23 136 -69 180s-107.333 66 -184 66c-100 0 -182 -33.5 -246 -100.5s-96 -150.833 -96 -251.5c0 -90 27 -162.667 81 -218s125.667 -83 215 -83c67.333 0 133 20 197 60
c1.33301 -0.666992 3 -3.33398 5 -8.00098c-65.333 -42 -138 -63 -218 -63c-92 0 -166.833 28.333 -224.5 85s-86.5 131 -86.5 223c0 105.333 36 193 108 263s160.667 105 266 105c77.333 0 142.666 -21 195.999 -63c57.333 -46 86 -106.667 86 -182zM641.001 488.002
c0 29.333 -6.00195 50.999 -18.002 64.999c-28 32.667 -67 49 -117 49c-63.333 0 -114 -21 -152 -63c10.667 2 20.667 3 30 3c30 0 54.333 -8 73 -24c2.66699 0.666992 5.33398 1 8.00098 1c10.667 0 22.667 -5.66699 36 -17l12 13l57 1
c-9.33301 -10.667 -16.666 -22.667 -21.999 -36c-12 -29.333 -18 -49.333 -18 -60c0 -13.333 8.33301 -29.666 25 -48.999c3.33301 -4.66699 8 -7 14 -7c8 0 15.667 1.33301 23 4c32.667 24.667 49 64.667 49 120zM483.999 483.001l-0.000976562 6
c0 13.333 -5.66699 20.333 -17 21c6.66699 -7.33301 12.334 -16.333 17.001 -27zM449.998 517.001c-18 13.333 -40.334 20 -67.001 20c-11.333 0 -22.666 -1.33301 -33.999 -4c-30.667 -36.667 -47.334 -79 -50.001 -127c0 -4 0.666992 -9 2 -15
c54.667 74.667 104.334 116.667 149.001 126zM482.997 474.001c-5.33301 14 -13 25.667 -23 35c-19.333 -4.66699 -45 -29.667 -77 -75c-25.333 -36 -47 -72.667 -65 -110c12.667 -26 34 -50 64 -72l16 24c14 22.667 30 53.667 48 93c20.667 46.667 33 81.667 37 105z
M415.997 290.001c-9.33301 -16 -18.334 -30.332 -27.001 -42.999c4 -2.66699 8.33301 -5.33398 13 -8.00098c0.666992 4 5.33398 21 14.001 51zM374.996 242.002c-28.667 20 -50.333 42.001 -65 66.001c-20 -44.667 -30 -79.334 -30 -104.001c0 -18.667 6.66699 -28 20 -28
c18 0 42.333 21.333 73 64z" />
    <glyph glyph-name="A" unicode="A" horiz-adv-x="1033" 
d="M1199 545c0 -31.333 -6.32812 -63.6729 -18.9951 -97.0059c-13.333 -36 -30.166 -63.5 -50.499 -82.5s-40.5 -33.5 -60.5 -43.5c23.333 -31.333 35 -67 35 -107c0 -14 -2 -31 -6 -51c-10 -51.333 -43 -93.666 -99 -126.999c-48 -28.667 -96 -43 -144 -43
c-2.66699 0 -6.5 0.5 -11.5 1.5s-8.83301 1.5 -11.5 1.5c-6 0.666992 -11.333 1.33398 -16 2.00098c-16 2.66699 -27.333 3.66699 -34 3c-18 -1.33301 -47.333 -2 -88 -2c-2.66699 0 -6.66699 -0.333008 -12 -1h-13c-52 0 -92.667 4.66699 -122 14
c-39.333 12.667 -72.333 30.334 -99 53.001c-12.667 -20 -35.334 -45 -68.001 -75c-12 -11.333 -29 -25 -51 -41c-17.333 -9.33301 -40 -18 -68 -26c13.333 4.66699 34.666 14 63.999 28c15.333 9.33301 31.666 22.333 48.999 39c31.333 29.333 54.333 55.333 69 78l-8 8
c-62.667 -53.333 -132.334 -80 -209.001 -80c-60 0 -113 17.333 -159 52c-49.333 38 -74 86.333 -74 145c0 26.667 6 49.667 18 69c13.333 22.667 32 36.667 56 42c51.333 114 125.666 175 222.999 183c8.66699 0.666992 20 1 34 1c78.667 0 138.667 -29 180 -87
c24 -33.333 37 -67.333 39 -102c1.33301 -18 0 -36 -4 -54l141 176c54.667 64.667 107 119 157 163c3.33301 10.667 13.166 23.834 29.499 39.501s30.166 25.834 41.499 30.501c-23.333 -13.333 -42.666 -32.666 -57.999 -57.999c70.667 58.667 139 88 205 88
c96 0 144 -46.667 144 -140zM1185 540.993c0 32.667 -7.33301 60.668 -22 84.001c-16.667 27.333 -40.334 42.666 -71.001 45.999c-41.333 -3.33301 -74.666 -38.333 -99.999 -105l-67 -174c56.667 1.33301 104 -21 142 -67c42 22 74.333 60 97 114
c14 34.667 21 68.667 21 102zM969.005 663.994c-38.667 -14.667 -82.667 -46 -132 -94c-10 -24.667 -15 -50.667 -15 -78c0 -34.667 7.33301 -66.667 22 -96c24.667 65.333 42.667 111.333 54 138c22 50 45.667 93.333 71 130zM1062 322.994
c-36.667 43.333 -83 64.333 -139 63l-20 -53c32 -20 64.667 -29 98 -27c20 1.33301 40.333 7 61 17zM841.005 385.994c-18 30.667 -26.999 65.001 -26.999 103.001c0 24.667 4 48 12 70c-40 -40 -78.667 -85.333 -116 -136l-63 -86c53.333 0 95 -1 125 -3
c9.33301 -0.666992 18 -0.333984 26 0.999023c5.33301 5.33301 15.666 13 30.999 23zM827.006 351.995c-5.33301 -3.33301 -12.334 -8.66699 -21.001 -16l13 2c2.66699 3.33301 5.33398 8 8.00098 14zM1094 225.994c0 38 -9.66797 69.3311 -29.001 93.998
c-22 -12 -44.333 -18.667 -67 -20c-35.333 -2 -68.333 6 -99 24l-80 -210c-12.667 -33.333 -19 -55.666 -19 -66.999c0 -27.333 25.333 -42 76 -44c46 3.33301 88.833 19 128.5 47s65.834 63 78.501 105c7.33301 24.667 11 48.334 11 71.001zM807.004 297.992
c-10 0 -22.3301 0.99707 -36.9971 2.99707c-40.667 -48.667 -59.334 -105 -56.001 -169c-2 9.33301 -3 18.666 -3 27.999c0 52 18 99.333 54 142c-19.333 3.33301 -33 5 -41 5c-31.333 0 -63.333 -0.666992 -96 -2c-57.333 -78 -104 -136.667 -140 -176
c-6.66699 -11.333 -18 -29.666 -34 -54.999c57.333 -42.667 116.666 -62 177.999 -58c10 0.666992 25.667 4.33398 47 11.001c11.333 6.66699 25.333 25.334 42 56.001c4 6.66699 13.333 29.667 28 69c5.33301 14.667 24.666 63.334 57.999 146.001zM511.007 285.989
c-3.33301 38.667 -14.668 72.335 -34.001 101.002c-44 66 -107 97 -189 93c-99.333 -5.33301 -166.333 -63 -201 -173h2c24 0 45.333 -8.5 64 -25.5s28 -37.5 28 -61.5c0 -12.667 -3.33301 -24 -10 -34s-16 -15 -28 -15c-11.333 0 -19 6 -23 18
c-1.33301 3.33301 -0.5 8.83301 2.5 16.5s4.5 12.834 4.5 15.501c0 13.333 -4.66699 25.166 -14 35.499s-20.666 16.833 -33.999 19.5c-2 -12 -3 -24 -3 -36c0 -36.667 9.33301 -71.334 28 -104.001c1.33301 -2 6 -8.33301 14 -19c38 -49.333 92 -74 162 -74
c16 0 31.333 1.66699 46 5c28.667 12.667 56.667 31 84 55c-13.333 15.333 -25.666 32.666 -36.999 51.999c-25.333 44 -38 78.333 -38 103c0 27.333 13 47 39 59c-20 -15.333 -30 -36 -30 -62c0 -26.667 11 -59 33 -97c10 -17.333 22.667 -34 38 -50
c27.333 25.333 57 57 89 95c7.33301 29.333 9.66602 57 6.99902 83zM463.005 102.99c-6.66699 -7.33301 -13.667 -14 -21 -20l7 -5c5.33301 8.66699 10 17 14 25zM268.005 28.9902c-10.667 -1.33301 -21.333 -2 -32 -2c-58 0 -104.333 13.667 -139 41
c-37.333 30 -56 73 -56 129c0 25.333 4.66699 51.666 14 78.999c-18 -3.33301 -31.833 -13 -41.5 -29s-14.5 -33.667 -14.5 -53c0 -51.333 24 -93.666 72 -126.999c42.667 -29.333 90.667 -44 144 -44c17.333 0 35 2 53 6z" />
    <glyph glyph-name="B" unicode="B" horiz-adv-x="688" 
d="M761 70c0 -77.333 -29.0049 -141.331 -87.0049 -191.998c-13.333 -11.333 -29.333 -22.333 -48 -33c37.333 26 66.833 60.5 88.5 103.5s32.5 87.833 32.5 134.5c0 52 -13.667 99 -41 141c-45.333 70 -118 112 -218 126l-7 1c110 -38 165 -94.667 165 -170
c0 -40.667 -15 -76 -45 -106c-26.667 -26.667 -61 -45.334 -103 -56.001c-21.333 -5.33301 -60 -11 -116 -17c-12.667 -1.33301 -46.667 -2 -102 -2c-15.333 0 -38.666 1 -69.999 3s-54.666 3 -69.999 3c-10 0 -25 -0.666992 -45 -2c-4 0 -11.167 -0.833008 -21.5 -2.5
s-18.5 -2.5 -24.5 -2.5c-53.333 0 -98.666 32.333 -135.999 97c-20.667 36 -31 75.667 -31 119c0 81.333 32.333 157 97 227c0 34.667 9.66699 68.167 29 100.5s44.333 57.166 75 74.499c48.667 27.333 96.334 45 143.001 53c30.667 5.33301 84.334 8 161.001 8
c152 0 247.333 -36.333 286 -109c9.33301 -17.333 14 -36 14 -56c0 -84.667 -71.333 -136 -214 -154c114.667 -16 194.667 -59.333 240 -130c32 -49.333 48 -102.333 48 -159zM615.995 533.002c0 32 -10.667 59 -32 81s-48 33 -80 33c-22.667 0 -39 -13 -49 -39l-27 -70
c10 -24 15 -48 15 -72c0 -36 -10.667 -69.667 -32 -101c136.667 4.66699 205 60.667 205 168zM435.995 472.002c0 20 -3.66699 39.667 -11 59l-63 -166h38c24 34 36 69.667 36 107zM348.995 670.002c-11.333 1.33301 -23 2 -35 2c-80 0 -152.333 -18.667 -217 -56
c-58 -33.333 -88.333 -82.333 -91 -147c8 10 21.667 24 41 42c10 28 28 53.333 54 76c56 49.333 138.667 77 248 83zM392.995 355.002c-14 -1.33301 -26.667 -3.66699 -38 -7l-16 -43c20.667 14 38.667 30.667 54 50zM371.995 616.001c0 22.667 -21 34.002 -63 34.002
c-61.333 0 -117.333 -14.667 -168 -44c-40.667 -23.333 -68 -52.333 -82 -87c38 29.333 83.333 44 136 44c61.333 0 100.333 -15 117 -45c-32 25.333 -69.333 38 -112 38c-54.667 0 -103 -15.667 -145 -47c-3.33301 -11.333 -5 -23 -5 -35c0 -20 5 -37.333 15 -52
c11.333 -17.333 26.666 -26 45.999 -26c10.667 0 20.834 3.66699 30.501 11s14.5 16.333 14.5 27c0 2.66699 -1 6.16699 -3 10.5s-3 7.5 -3 9.5c0 5.33301 3.33301 9.66602 10 12.999s12.667 5 18 5c20.667 0 31 -10.667 31 -32c0 -18.667 -8 -33.834 -24 -45.501
s-33.667 -17.5 -53 -17.5c-26 0 -47.833 8.5 -65.5 25.5s-26.5 38.5 -26.5 64.5c0 10 1 19.667 3 29c-4.66699 -3.33301 -17 -16 -37 -38c0 -32 11.333 -64.333 34 -97c42.667 -61.333 104.667 -92 186 -92c5.33301 0 11 0.333008 17 1l100 260c19.333 50 29 78.667 29 86z
M569.995 195.003c0 46.667 -16.667 84.6689 -50 114.002c-30.667 27.333 -69.667 42.666 -117 45.999c-17.333 -22.667 -39.333 -41.667 -66 -57l-1 -1l-87 -227c-5.33301 -14 -8 -23 -8 -27c0 -11.333 15 -20 45 -26c20 -4 41 -6 63 -6c56.667 0 106.667 16 150 48
c47.333 35.333 71 80.666 71 135.999zM237.995 258.005c-9.33301 -2 -18.668 -3.00098 -28.001 -3.00098c-56.667 0 -106.667 14.667 -150 44c-47.333 32.667 -74 76 -80 130c-47.333 -60 -71 -124 -71 -192c0 -44 11 -85.333 33 -124c35.333 -62.667 80.333 -94 135 -94
c20.667 0 37.667 3 51 9c20.667 14.667 41.334 49.334 62.001 104.001z" />
    <glyph glyph-name="C" unicode="C" horiz-adv-x="697" 
d="M799 645c0 -15.333 -7.00098 -35.333 -21.001 -60c-19.333 -34 -30.333 -54.333 -33 -61c-3.33301 -21.333 -13 -54.666 -29 -99.999c-32 -62.667 -77 -102.667 -135 -120c14.667 -31.333 22 -66.666 22 -105.999c0 -68.667 -27.333 -132.667 -82 -192
c-52 -56 -112.667 -92 -182 -108c-22 -5.33301 -41.333 -8.33301 -58 -9c-74.667 -4 -138.667 13.667 -192 53c-57.333 42.667 -86 100.667 -86 174c0 134 52.667 256.667 158 368c103.333 109.333 222 171.333 356 186c38.667 38 91.334 58 158.001 60
c54 1.33301 92 -15.334 114 -50.001c6.66699 -10.667 10 -22.334 10 -35.001zM782.999 647c0 23.333 -17.334 42.665 -52.001 57.998c-24.667 10.667 -46.334 15.667 -65.001 15c-61.333 -1.33301 -107.666 -17.666 -138.999 -48.999c12.667 0.666992 25.334 1 38.001 1
c61.333 0 116.333 -17 165 -51c10 -7.33301 18.667 -10.666 26 -9.99902c18 0.666992 27 12.667 27 36zM590.998 262.999c-4 13.333 -9 26.667 -15 40c-4.66699 -1.33301 -8 -2.33301 -10 -3c10 -10.667 18.333 -23 25 -37zM571.998 311
c-36.667 69.333 -87.666 106.333 -152.999 111c-0.666992 -6 -1 -11.667 -1 -17c0 -26 9 -49.333 27 -70c8 1.33301 16.333 2 25 2c35.333 0 64.666 -10 87.999 -30zM540.999 304c-18.667 14 -41.668 21 -69.001 21c-5.33301 0 -10.666 -0.333008 -15.999 -1
c17.333 -14 39.333 -21 66 -21c6 0 12.333 0.333008 19 1zM713.998 503c0 32.667 -8.3291 62.002 -24.9961 88.002c-6.66699 10.667 -13.334 19 -20.001 25c-30.667 29.333 -69.334 44 -116.001 44c-12 0 -24.333 -0.666992 -37 -2c-10 -14 -15 -30.333 -15 -49
c0 -16.667 4.33301 -33 13 -49c15.333 -28 42 -42 80 -42c27.333 0 53 7 77 21c-22 -18.667 -48.333 -28 -79 -28c-40 0 -68.667 15 -86 45c-10 17.333 -15 35 -15 53c0 18.667 5 34.667 15 48c-80 -13.333 -159.667 -64.333 -239 -153c-68 -76.667 -118.333 -159 -151 -247
c-21.333 -58 -32 -110.667 -32 -158c0 -56.667 17.333 -103.5 52 -140.5s80 -55.5 136 -55.5c82 0 154.667 29.333 218 88s95 128.667 95 210c0 40 -11.333 71.333 -34 94c-10.667 -2.66699 -21 -4 -31 -4c-29.333 0 -53.333 10.667 -72 32
c-26.667 -5.33301 -49 -17 -67 -35c-18.667 -20 -28 -43 -28 -69c0 -22 7.66699 -33 23 -33c2 0 5.33301 1 10 3s8 2.66699 10 2c9.33301 -2.66699 14 -9 14 -19c0 -28 -15.667 -42 -47 -42c-16 0 -29.333 6.16699 -40 18.5s-16 26.833 -16 43.5c0 25.333 8.66699 50 26 74
c28 38 63.333 60.667 106 68c-20.667 28.667 -29.334 58 -26.001 88c-47.333 1.33301 -90.5 -15.167 -129.5 -49.5s-62.5 -75.166 -70.5 -122.499c-4.66699 -28.667 -2.66699 -57 6 -85c9.33301 -30.667 25.166 -54.334 47.499 -71.001s50.166 -25 83.499 -25
c56.667 0 100 20.333 130 61c-34 -46.667 -80.333 -70 -139 -70c-48 0 -85.333 21 -112 63c-18 28.667 -27 60.334 -27 95.001c0 55.333 21.333 104.166 64 146.499s92 63.166 148 62.499c6 36.667 25.667 64.667 59 84l2 -3c-31.333 -24 -49.666 -51 -54.999 -81
c68 -4 120.333 -42.333 157 -115c28.667 10 54 26.333 76 49c40.667 41.333 61 88.666 61 141.999z" />
    <glyph glyph-name="D" unicode="D" horiz-adv-x="844" 
d="M840 377c0 -87.333 -31 -168.335 -93 -243.002c-42.667 -51.333 -92.667 -87.666 -150 -108.999c-48 -18 -109.667 -28 -185 -30c-18 -0.666992 -43.333 0.333008 -76 3c-36 2 -61.667 3 -77 3c-48.667 0 -91 -3.66699 -127 -11
c-23.333 -7.33301 -54.333 -15.666 -93 -24.999c-14 -2 -27.333 -3 -40 -3c-24 0 -49 4.66699 -75 14c-32 11.333 -61.667 40.666 -89 87.999c-18 31.333 -27 64.666 -27 99.999c0 78.667 32 148 96 208c12 78.667 63.667 144.334 155 197.001c34 20 76 38 126 54
c80 26 162 39 246 39c205.333 0 335 -63.667 389 -191c13.333 -31.333 20 -62.666 20 -93.999zM761 397.998c0 66.667 -18.3369 122.001 -55.0039 166.001c-39.333 46 -91.666 69 -156.999 69c-37.333 0 -63.333 -19 -78 -57l-134 -349c5.33301 2.66699 16.333 9 33 19
c56.667 35.333 106 76 148 122c52.667 57.333 80.334 111 83.001 161l30 17c-3.33301 -56.667 -32.666 -115.334 -87.999 -176.001c-44.667 -48.667 -95 -89.334 -151 -122.001c-11.333 -6 -31.333 -17.333 -60 -34l-53 -138c-6 -15.333 -9 -28 -9 -38
c0 -16.667 16.333 -26.667 49 -30h65c61.333 0 111.333 7.33301 150 22c44.667 16.667 85.334 46.667 122.001 90c70 82.667 105 175.334 105 278.001zM392.996 599.999c0 26.667 -27.002 40 -81.002 40c-11.333 0 -26.333 -2 -45 -6
c-45.333 -10 -74.666 -17.333 -87.999 -22c-28.667 -10.667 -55 -30 -79 -58c-24.667 -30 -37 -59.667 -37 -89c0 -3.33301 0.333008 -6.33301 1 -9c12.667 2 25.334 3 38.001 3c34.667 0 66.334 -7.33301 95.001 -22c39.333 -20 59 -49 59 -87
c0 -9.33301 -1.33301 -19 -4 -29c0 29.333 -3.33301 49.666 -10 60.999c-18 30.667 -51.333 51.667 -100 63c8 -7.33301 12 -16 12 -26c0 -13.333 -5.33301 -25 -16 -35s-22.667 -15 -36 -15c-18.667 0 -34 8 -46 24c-10 13.333 -15.667 30 -17 50
c-22 -3.33301 -50.333 -16.666 -85 -39.999c-3.33301 -17.333 -5 -32.333 -5 -45c0 -58 22.333 -101 67 -129c36 -22.667 85 -34 147 -34c27.333 0 54.666 2.33301 81.999 7l139 362c6 15.333 9 27.333 9 36zM141.994 599.999c-108 -38.667 -170.333 -102.332 -187 -190.999
c27.333 20 55.333 33.333 84 40c0.666992 28.667 12 57.667 34 87c18.667 25.333 41.667 46.666 69 63.999zM122.994 449.001c-8 1.33301 -16.667 2 -26 2c-10 0 -20.333 -1 -31 -3c4 -12 12.667 -18 26 -18c10 0 20.333 6.33301 31 19zM237.994 181.001
c-37.333 -9.33301 -74.668 -13.999 -112.001 -13.999c-101.333 0 -168 28 -200 84c-14 24 -21.667 50.667 -23 80c-0.666992 12 -0.666992 21 0 27c-43.333 -50.667 -65 -107.334 -65 -170.001c0 -38 9.66699 -73.667 29 -107c25.333 -44 54.333 -71.667 87 -83
c26 -9.33301 51.333 -14 76 -14c34.667 0 64 6 88 18c30.667 20 57 46.333 79 79c10.667 22.667 24.334 56 41.001 100z" />
    <glyph glyph-name="E" unicode="E" horiz-adv-x="558" 
d="M613 559c0 -46 -18.3369 -85.167 -55.0039 -117.5s-78.334 -48.5 -125.001 -48.5c-12 0 -23.333 1.33301 -34 4c10.667 -11.333 26.334 -31.333 47.001 -60c21.333 -38 32 -74 32 -108c0 -11.333 -0.666992 -22.666 -2 -33.999
c-7.33301 -64.667 -42.666 -119 -105.999 -163c24.667 7.33301 47.334 16.666 68.001 27.999c60.667 32.667 107.667 76.667 141 132l10 7c-36.667 -63.333 -85.334 -114 -146.001 -152c-75.333 -47.333 -140 -71 -194 -71c-53.333 0 -99.666 11.333 -138.999 34
c-74 42 -118.667 99.333 -134 172c-4 18.667 -6 37 -6 55c0 30 5.33301 58 16 84c-43.333 2 -76.666 24 -99.999 66c-12 21.333 -18 44 -18 68c0 46 18.833 88.167 56.5 126.5s79.5 57.5 125.5 57.5c24 0 45.667 -6.66699 65 -20c-22 7.33301 -42.333 11 -61 11
c-28.667 0 -57.334 -8.33301 -86.001 -25s-51.667 -37.334 -69 -62.001c-18 -27.333 -27 -56 -27 -86c0 -24 6 -46.667 18 -68c19.333 -34.667 53.333 -53 102 -55c30 62.667 86.667 106.334 170 131.001l22 54c24 59.333 72.667 102.333 146 129
c32.667 55.333 80.667 83 144 83c46 0 86 -17 120 -51l1 -6c-34 34 -73.667 51 -119 51c-57.333 0 -101.666 -24.333 -132.999 -73c36.667 12.667 74.334 19 113.001 19c40 0 74.667 -8.33301 104 -25c35.333 -20.667 53 -49.667 53 -87zM590.996 568
c0 28.667 -14.332 51.667 -42.999 69c-24 15.333 -51.333 23 -82 23c-56 0 -106.667 -21.333 -152 -64c-4 -16.667 -6 -33.667 -6 -51c0 -58 22.667 -99.667 68 -125c20.667 -11.333 42.667 -17 66 -17c32 0 61.5 8.83301 88.5 26.5s45.833 41.167 56.5 70.5
c-16 -15.333 -35.667 -23 -59 -23c-15.333 0 -28.666 4 -39.999 12c-13.333 9.33301 -20 21.333 -20 36c0 10 4.33301 18.167 13 24.5s18 9.5 28 9.5c3.33301 0 6.66602 -4.33301 9.99902 -13c5.33301 -12 15.666 -18 30.999 -18c11.333 0 21 3.83301 29 11.5
s12 17.167 12 28.5zM315.997 459c-12.667 23.333 -19.001 49.333 -19.001 78c0 15.333 2 31 6 47c-30 -32.667 -49.333 -68.667 -58 -108c24.667 -1.33301 48.334 -7 71.001 -17zM372.996 362c0 19.333 -15 29 -45 29c-22 0 -46 -5.66699 -72 -17c16.667 -30 41 -45 73 -45
c29.333 0 44 11 44 33zM462.996 200c2.66699 54.667 -5.33203 99.6689 -23.999 135.002c-8.66699 16 -26.334 37.667 -53.001 65c-26 8.66699 -47 24.667 -63 48c-24.667 12.667 -51 19.667 -79 21c-2.66699 -11.333 -4 -23 -4 -35c0 -16 4 -32.333 12 -49
c32 12 58.667 18 80 18c40 0 60 -13.667 60 -41c0 -22.667 -14 -39.334 -42 -50.001c-8.66699 -3.33301 -19.667 -5 -33 -5c-32 0 -66.667 13.333 -104 40c-57.333 -38 -86 -94 -86 -168c0 -45.333 11.667 -83.333 35 -114c26 -33.333 61 -50 105 -50
c34 0 67.333 11.167 100 33.5s57.334 49.166 74.001 80.499c13.333 25.333 20.666 49 21.999 71zM158.997 458.002c-75.333 -22.667 -127.666 -64 -156.999 -124c46 0 86 19.667 120 59c13.333 15.333 25.666 37 36.999 65zM201.997 360.002
c-20.667 30 -30.666 61 -29.999 93c-8.66699 -23.333 -18.667 -41.333 -30 -54c-45.333 -52 -94 -78 -146 -78c-11.333 -28 -17 -57 -17 -87c0 -18.667 1.66699 -36 5 -52c11.333 -54 41.666 -97.667 90.999 -131c-14.667 23.333 -22 49.333 -22 78
c0 83.333 49.667 160.333 149 231z" />
    <glyph glyph-name="F" unicode="F" horiz-adv-x="718" 
d="M1316 530c0 -42.667 -10.168 -82.668 -30.501 -120.001s-48.833 -66.666 -85.5 -87.999c-61.333 -35.333 -116.666 -53 -165.999 -53c-34 0 -62.333 8.66699 -85 26c-26 19.333 -39 45.333 -39 78c0 48 22.333 93 67 135s91.334 63 140.001 63
c33.333 0 62.333 -6.33301 87 -19c31.333 -16 47 -39 47 -69c0 -8.66699 -2.83301 -19.334 -8.5 -32.001s-12.167 -21 -19.5 -25l-25 -15c26.667 26.667 40 51 40 73c0 24 -13.333 43.333 -40 58c-21.333 12 -45.333 18 -72 18c-72 0 -127 -28.333 -165 -85
c-20 -30 -30 -59 -30 -87c0 -32.667 13.333 -58.334 40 -77.001c23.333 -16.667 52 -25 86 -25c98 0 167.333 40.333 208 121c18.667 37.333 28 75.666 28 114.999c0 78.667 -34 137.667 -102 177c-36 20.667 -72.667 31 -110 31c-39.333 0 -96 -13.667 -170 -41
c-40 -14.667 -82.333 -37 -127 -67c-46.667 -32 -82.667 -63.333 -108 -94c32.667 -41.333 49 -82.666 49 -123.999c0 -21.333 -4.33301 -44 -13 -68c-3.33301 -9.33301 -10.333 -21.833 -21 -37.5s-17.667 -27.5 -21 -35.5c22 -20.667 39.667 -42.667 53 -66
c40 -70.667 60 -144.334 60 -221.001c0 -61.333 -12.667 -117.333 -38 -168c-26.667 -54 -65.334 -95.667 -116.001 -125c-79.333 -46 -169.666 -69 -270.999 -69l10 6c95.333 0 180.333 21.333 255 64c49.333 28 87 71 113 129c24 51.333 36 107.666 36 168.999
c0 80.667 -17.667 151.334 -53 212.001c-12 20.667 -29.333 42 -52 64c-27.333 -59.333 -48.666 -119.666 -63.999 -180.999h-6c10 34.667 15 63 15 85c0 20 -9.66699 35.333 -29 46c-16 8.66699 -34.667 13 -56 13l-50 -116l-48 -109
c-51.333 -106 -103.333 -185.667 -156 -239c-73.333 -74.667 -158 -112 -254 -112c-40 0 -73.667 5.5 -101 16.5s-54 30.833 -80 59.5c-41.333 44.667 -62 108 -62 190c0 59.333 11 116.333 33 171c-18.667 40 -28 84.667 -28 134c0 56 8.66699 106.333 26 151
c8 15.333 15.667 31.333 23 48l5 13c22.667 67.333 74.334 128 155.001 182c75.333 50.667 150.666 80.334 225.999 89.001c29.333 3.33301 55.666 5 78.999 5c62 0 109.333 -14.333 142 -43c14 -3.33301 51.667 -11.666 113 -24.999c45.333 -10 83 -15 113 -15
c35.333 0 76.666 10.333 123.999 31l126 56c52.667 20.667 103.667 31 153 31c68 0 125.333 -17.667 172 -53c52 -38.667 78 -90.667 78 -156zM778.999 634.999c-61.333 -22.667 -118.332 -38 -170.999 -46c17.333 -10.667 33.666 -24 48.999 -40
c28 18 68.667 46.667 122 86zM718 402.999c0 40.667 -16.001 80 -48.001 118c-35.333 -44 -69.666 -105 -102.999 -183c34.667 -20 64.667 -41 90 -63c15.333 13.333 29.333 33 42 59s19 49 19 69zM648.999 543.999c-18 17.333 -37.334 31.334 -58.001 42.001
c-18 -2 -34.667 -3 -50 -3c-17.333 0 -35.666 1.33301 -54.999 4c7.33301 -20 11 -40 11 -60c0 -45.333 -25.667 -87 -77 -125c24.667 -6.66699 52 -16.667 82 -30c40 69.333 89 126.666 147 171.999zM479.998 530c0 20 -3.66797 39.667 -11.001 59
c-15.333 2.66699 -32.666 6 -51.999 10c-23.333 -10.667 -41.666 -32 -54.999 -64c-11.333 -26.667 -17 -55 -17 -85c0 -11.333 1 -22.333 3 -33c21.333 -2.66699 42.666 -6.66699 63.999 -12c45.333 37.333 68 79 68 125zM652.997 271
c-25.333 21.333 -54.666 41.667 -87.999 61c-4.66699 -10 -16 -41 -34 -93h16c43.333 0 78.666 10.667 105.999 32zM405.997 400.001c-18.667 4.66699 -37.667 8 -57 10c4 -14 9 -25.333 15 -34c14.667 6 28.667 14 42 24zM408.997 665.001
c-30.667 19.333 -71.668 28.999 -123.001 28.999c-23.333 0 -49.666 -1.66699 -78.999 -5c-70 -8 -137.667 -33 -203 -75c-68 -43.333 -116.667 -95.666 -146 -156.999c51.333 68.667 120.333 122 207 160c81.333 36 167 54 257 54c27.333 0 56.333 -2 87 -6zM358.996 374
c-7.33301 10.667 -12.668 23 -16.001 37c-17.333 2 -35.333 3 -54 3c-45.333 0 -83.666 -3.33301 -114.999 -10c31.333 -26 74 -39 128 -39c20 0 39 3 57 9zM410.994 600c-104 22.667 -173 33.998 -207 33.998c-83.333 0 -161 -28.167 -233 -84.5
s-117.333 -124.833 -136 -205.5c-1.33301 -6 -2 -17.667 -2 -35c0 -38 11 -78.667 33 -122c52 72.667 104.333 124.334 157 155.001c38.667 22.667 77.667 41.667 117 57c-7.33301 12.667 -11 24.334 -11 35.001c0 19.333 3 31 9 35c1.33301 -22.667 11.666 -43 30.999 -61
c32.667 8 73.334 12 122.001 12c17.333 0 34.333 -0.666992 51 -2c-2.66699 10.667 -4 22 -4 34c0 72 24.333 121.333 73 148zM497.994 365.998c-30.667 14 -58.999 24.6641 -84.999 31.9971c-12 -8 -27 -17 -45 -27l7 -7l-6 -3l-6 8c-31.333 -16 -64 -24 -98 -24
c-60.667 0 -101.334 16.667 -122.001 50c-62.667 -23.333 -114.5 -51.166 -155.5 -83.499s-80.167 -76.166 -117.5 -131.499c39.333 -72 105 -108 197 -108c28 0 62 14.333 102 43c65.333 46.667 103.333 73 114 79c50 28.667 102 43.334 156 44.001
c20 51.333 39.667 94 59 128zM432.995 219.995c-14 1.33301 -23.334 1.99805 -28.001 1.99805c-45.333 0 -89 -14.333 -131 -43l-111 -81c-41.333 -28.667 -81 -43 -119 -43c-86 0 -149.667 33 -191 99c-10 -17.333 -18.667 -34.666 -26 -51.999c32 -82 81 -123 147 -123
c6 0 16.667 2.16699 32 6.5s25.333 8 30 11s16 13.5 34 31.5c13.333 13.333 25 20 35 20c14 0 21 -7 21 -21c0 -21.333 -15.667 -38.666 -47 -51.999c-26 -11.333 -50.667 -17 -74 -17c-87.333 0 -151 37.667 -191 113c-16 -45.333 -24 -89 -24 -131
c0 -62.667 14 -117.667 42 -165c9.33301 -16 24 -33.333 44 -52c6 11.333 15 17 27 17c8.66699 0 30.5 -12.667 65.5 -38s66.833 -38 95.5 -38c92 0 166 60.667 222 182c22.667 50 48.334 112 77.001 186zM-151.006 160.993c-19.333 32 -30.667 75.334 -34 130.001
c-7.33301 -20.667 -11 -44.334 -11 -71.001c0 -36 6.33301 -71.333 19 -106c7.33301 15.333 16 31 26 47z" />
    <glyph glyph-name="G" unicode="G" horiz-adv-x="674" 
d="M924 505c0 -48.667 -12.833 -95.167 -38.5 -139.5s-59.5 -78.5 -101.5 -102.5c-35.333 -20 -73.666 -32.333 -114.999 -37c-25.333 -2.66699 -46 -7.33398 -62 -14.001c-15.333 -15.333 -33.333 -50.333 -54 -105l-30 -79c-24.667 -64 -46 -111.333 -64 -142
c-28.667 -47.333 -64.334 -83.666 -107.001 -108.999c-61.333 -36 -123 -54 -185 -54c-76.667 0 -133 31 -169 93c-20.667 36 -31 79 -31 129c0 46 9 90 27 132c19.333 45.333 46 81 80 107c-3.33301 15.333 -5 31 -5 47c0 92 29.333 179 88 261
c-1.33301 12.667 -2 24.667 -2 36c0 74 30 138.333 90 193c58 53.333 124.333 80 199 80c82 0 138.667 -33 170 -99c30 10.667 60.333 16 91 16c87.333 0 151 -35 191 -105c18.667 -32.667 28 -68.667 28 -108zM623 634c-0.666992 23.333 -4.66699 44.001 -12 62.001
c-26 -8.66699 -47 -19.334 -63 -32.001c24 -6 49 -16 75 -30zM913 509.001c0 36.667 -8.33008 69.667 -24.9971 99c-39.333 69.333 -102 104 -188 104c-28.667 0 -57 -4.66699 -85 -14c9.33301 -20.667 14 -43 14 -67l37.5 -22c13 -7.33301 25.833 -9.66602 38.5 -6.99902
c13.333 2.66699 24.666 11.667 33.999 27l3 -1l2 -1c-8 -16.667 -20 -45 -36 -85c-2 -9.33301 -7.33301 -26.333 -16 -51c-18.667 -45.333 -55.334 -84 -110.001 -116c-8 -4.66699 -20.667 -11.667 -38 -21c15.333 -26.667 23 -50.667 23 -72
c0 -16.667 -4.33301 -33.334 -13 -50.001c69.333 0 122.666 5 159.999 15c52.667 15.333 96.667 44.333 132 87c44.667 54 67 112.333 67 175zM609.003 700.001c-28.667 63.333 -84.334 95 -167.001 95c-46.667 0 -92.5 -12.333 -137.5 -37s-79.167 -57 -102.5 -97
c-29.333 -50 -42.333 -103.667 -39 -161c86.667 114.667 190.334 172 311.001 172c24.667 0 47.334 -2.33301 68.001 -7c17.333 13.333 39.666 25 66.999 35zM663.003 502.001c0 34.667 -13.667 66.001 -41 94.001c-24.667 26 -54.667 43.667 -90 53
c-39.333 -39.333 -59 -89 -59 -149c0 -24 4 -46 12 -66l-5 -3c-8 21.333 -12 44.666 -12 69.999c0 60 19.333 110 58 150c-43.333 11.333 -87.666 8 -132.999 -10c-40.667 -16.667 -77.334 -42.667 -110.001 -78c-38 -41.333 -67.333 -90.666 -88 -147.999
c22.667 -30.667 52 -54.334 88 -71.001c30.667 52.667 77 79 139 79c51.333 0 91 -21.667 119 -65c81.333 38 122 86 122 144zM534.003 355.002c-22.667 41.333 -61.666 62.001 -116.999 62.001c-27.333 0 -52.333 -6.33301 -75 -19
c-26 -14.667 -41.333 -34.334 -46 -59.001c30.667 -12.667 62.667 -19 96 -19c41.333 0 88.666 11.667 141.999 35zM549.004 298.003c0 19.333 -4.33398 36.667 -13.001 52c-51.333 -24 -100 -36 -146 -36c-33.333 0 -65.333 6.33301 -96 19c-3.33301 -26 0 -48 10 -66
c11.333 -20.667 30 -31 56 -31c10.667 0 27.334 2 50.001 6s39.667 6 51 6c10 0 22.333 -2.33301 37 -7c17.333 -5.33301 29.333 -8.33301 36 -9c10 22.667 15 44.667 15 66zM496.003 205.004c-3.33301 0.666992 -9.49707 1.99902 -18.4971 3.99902s-16.167 3 -21.5 3
c-10.667 0 -26.834 -1 -48.501 -3s-37.834 -3 -48.501 -3c-44.667 0 -72.334 16 -83.001 48c-4.66699 14 -7 27.333 -7 40c0 15.333 3.66699 30.333 11 45c-34.667 16.667 -63.667 40 -87 70c-19.333 -55.333 -29 -109.666 -29 -162.999c0 -14 0.666992 -27.333 2 -40
c23.333 2.66699 40 -3.66602 50 -18.999c-13.333 9.33301 -26 14 -38 14c-4 0 -7.66699 -0.666992 -11 -2c4.66699 -40.667 17.334 -74.334 38.001 -101.001c31.333 -40 70.333 -60 117 -60c63.333 0 114.666 31.667 153.999 95c5.33301 8.66699 9 17 11 25
c-40 -28 -81 -42 -123 -42c-26 0 -51.333 5.66699 -76 17l14 8c18 -8.66699 39.667 -13 65 -13c51.333 0 92 13 122 39zM465.006 67.0029c-66 -46 -125.998 -69 -179.998 -69c-52.667 0 -98.334 17 -137.001 51s-63 77.333 -73 130c-53.333 -42.667 -80 -105.667 -80 -189
c0 -55.333 13.333 -106.333 40 -153c32.667 -57.333 90.667 -87.333 174 -90c-18.667 3.33301 -36.667 12 -54 26c-20 16 -30 32.667 -30 50c0 29.333 13 44 39 44c19.333 0 30.333 -9.33301 33 -28c0.666992 -3.33301 -0.833008 -8 -4.5 -14s-5.5 -10.667 -5.5 -14
c0 -15.333 6.16699 -28.833 18.5 -40.5s26.166 -17.5 41.499 -17.5c84 0 156.667 104.667 218 314z" />
    <glyph glyph-name="H" unicode="H" horiz-adv-x="944" 
d="M1050 650c0 -13.333 -4.17188 -25 -12.5049 -35s-18.833 -15 -31.5 -15c-18.667 0 -28 8 -28 24c0 6 6.33301 13.333 19 22c8 5.33301 12 12 12 20c0 10 -4.83301 18.5 -14.5 25.5s-19.5 10.5 -29.5 10.5c-46 0 -92.667 -35.667 -140 -107c17.333 -21.333 34 -63 50 -125
c28 -2.66699 51.333 -9 70 -19c16 -8.66699 34 -24 54 -46s32 -44.333 36 -67c2 -11.333 2.66699 -37.333 2 -78c-8 43.333 -13 67.666 -15 72.999c-7.33301 24 -20 45 -38 63c-27.333 26.667 -62.666 44 -105.999 52c0.666992 -12 1 -24 1 -36
c0 -91.333 -31.333 -173.666 -94 -246.999c-28.667 -34 -54.667 -58.333 -78 -73c-26.667 -16.667 -60 -28.334 -100 -35.001c0.666992 -23.333 12.667 -38.666 36 -45.999c11.333 -3.33301 29 -5 53 -5l-1 -6c-14 -0 -34.5 0.333008 -61.5 1s-47.5 1 -61.5 1
c-17.333 0 -43.166 -0.333008 -77.499 -1s-60.166 -1 -77.499 -1v3c42.667 4.66699 74 25.667 94 63c-13.333 6.66699 -24 17 -32 31c-20.667 35.333 -31 70.666 -31 105.999c0 50 17.333 93.667 52 131c-61.333 1.33301 -111.333 1 -150 -1
c-20.667 -50.667 -37 -89.334 -49 -116.001c51.333 -32 77 -79.333 77 -142c0 -65.333 -24.5 -124.5 -73.5 -177.5s-105.833 -79.5 -170.5 -79.5c-28 0 -56 5.66699 -84 17c-58.667 -49.333 -117 -74 -175 -74c-51.333 0 -90 18.333 -116 55c-17.333 24.667 -26 50 -26 76
c0 25.333 9 61.666 27 108.999c8.66699 23.333 27.334 51.333 56.001 84c26 29.333 51 52.333 75 69c8 5.33301 42.667 26 104 62c43.333 25.333 97.333 38 162 38c24.667 0 47.667 -2.33301 69 -7c6.66699 16.667 16 38.334 28 65.001l49 111
c6.66699 15.333 18 45.666 34 90.999c17.333 49.333 26 79.333 26 90c0 27.333 -27.333 42.333 -82 45c-36.667 1.33301 -65.334 0.333008 -86.001 -3c-42 -7.33301 -78.667 -23.333 -110 -48c-36 -29.333 -54 -63.666 -54 -102.999c0 -21.333 6 -40 18 -56
c12.667 -18 29.334 -27 50.001 -27c32 0 48 13 48 39c0 4.66699 -2.16699 11 -6.5 19s-6.16602 13.667 -5.49902 17c4 16.667 14.333 25 31 25c10.667 0 19.5 -4.5 26.5 -13.5s10.5 -19.167 10.5 -30.5c0 -22 -9 -40.5 -27 -55.5s-38.333 -22.5 -61 -22.5
c-28.667 0 -51.667 8.66699 -69 26s-26 40.333 -26 69c0 20.667 4.66699 40.334 14 59.001c38.667 78 119.334 117 242.001 117c20 0 50.333 -1.16699 91 -3.5s71 -3.5 91 -3.5c31.333 0 58.666 1.33301 81.999 4c70.667 8 103 12 97 12c68.667 0 122 -15.667 160 -47
c59.333 60 118.333 90 177 90c18 0 35.167 -6.16699 51.5 -18.5s24.5 -27.166 24.5 -44.499zM845.995 470c-6 28.667 -10.001 46.334 -12.001 53.001c-5.33301 19.333 -13.666 35.333 -24.999 48c-19.333 -32.667 -39.333 -71.334 -60 -116.001
c36 8.66699 68.333 13.667 97 15zM778.994 603c-38 34 -92.333 51.001 -163 51.001c-39.333 0 -77.333 -6.33301 -114 -19c-30 -16.667 -57 -55.667 -81 -117l-66 -171l157 -1c38 36 88.667 64.333 152 85c36 69.333 74.333 126.666 115 171.999zM855.994 377.001
c0 24 -2.33301 48.6689 -7 74.002c-8.66699 0.666992 -17.334 1 -26.001 1c-24 0 -50.333 -2.66699 -79 -8c-9.33301 -22 -32.666 -81 -69.999 -177c-9.33301 -22.667 -22.5 -56.334 -39.5 -101.001s-26.167 -79.334 -27.5 -104.001c38.667 6.66699 71 18 97 34
c22 14 47 37.333 75 70c51.333 60 77 130.333 77 211zM659.994 423.003c-59.333 -18.667 -106 -44.332 -140 -76.999c40 -0.666992 74.667 -0.333984 104 0.999023c11.333 26 23.333 51.333 36 76zM616.994 333.005l-8 0.000976562c-18 0 -51.333 0.333008 -100 1
c-34 -38.667 -51 -86 -51 -142c0 -33.333 8.33301 -64 25 -92c7.33301 -12.667 17.666 -22.334 30.999 -29.001c6.66699 12 15.334 32.333 26.001 61zM345.994 30.0059c0 64 -20.998 112.999 -62.998 146.999c-68.667 -153.333 -144.334 -265.666 -227.001 -336.999
c27.333 -10 54.666 -15 81.999 -15c57.333 0 106.333 19.833 147 59.5s61 88.167 61 145.5zM213.996 215.005c-31.333 10.667 -63.668 15.9961 -97.001 15.9961c-104 0 -193.333 -44 -268 -132c-25.333 -29.333 -42.666 -56.666 -51.999 -81.999
c-22.667 -59.333 -32.667 -107.666 -30 -144.999c8.66699 14.667 21.667 22 39 22c18.667 0 26.667 -6.66699 24 -20c-1.33301 -7.33301 -4.66602 -15.666 -9.99902 -24.999c-4 -6 -5.66699 -12.333 -5 -19c0 -17.333 9.33301 -31.666 28 -42.999
c16.667 -9.33301 34.334 -14 53.001 -14c48.667 0 93.667 23.667 135 71c-22.667 12 -42.334 28 -59.001 48l5 3c15.333 -18.667 35 -34 59 -46c27.333 32.667 59.666 88.667 96.999 168c6 13.333 33 79.333 81 198z" />
    <glyph glyph-name="I" unicode="I" horiz-adv-x="554" 
d="M620 665c-38 -12 -72 -46.666 -102 -103.999c-17.333 -33.333 -43.666 -96.333 -78.999 -189c-30 -79.333 -59.333 -143 -88 -191v-19c1.33301 -62.667 -16.667 -121 -54 -175c-40 -57.333 -90 -90 -150 -98c60.667 17.333 108 51 142 101c32.667 48 48.667 104 48 168v0
c-28.667 -42.667 -62.667 -77 -102 -103c-60.667 -40 -117 -60 -169 -60c-36 0 -65.833 10.333 -89.5 31s-35.5 48.667 -35.5 84c0 26 8.33301 47.333 25 64c10.667 71.333 43 121 97 149c30.667 16 64.667 24 102 24c62.667 0 112.667 -21.667 150 -65l19 43
c42.667 96.667 81.334 170 116.001 220c12 17.333 29.333 40 52 68c-34.667 -7.33301 -67.667 -11 -99 -11c-16.667 0 -41.834 1.5 -75.501 4.5s-58.834 4.5 -75.501 4.5c-38 0 -70.333 -8.66699 -97 -26c-31.333 -20 -47 -48 -47 -84c0 -16.667 4.66699 -30.834 14 -42.501
s22 -17.5 38 -17.5c26 0 39 11.333 39 34c0 18 1 28 3 30c4.66699 4.66699 12.667 6.66699 24 6c20.667 -2 31 -14.667 31 -38c0 -18 -7.83301 -32.333 -23.5 -43s-32.834 -16 -51.501 -16c-22.667 0 -42 9 -58 27s-24 38.333 -24 61s7.66699 45 23 67
c45.333 64 122.666 96 231.999 96c20.667 0 51.834 -1.16699 93.501 -3.5s72.834 -3.5 93.501 -3.5c18.667 0 44 3.33301 76 10zM308 268.001c-35.333 48.667 -84.998 72.999 -148.998 72.999c-77.333 0 -131.333 -30.333 -162 -91c-10 -20 -15.333 -41 -16 -63
c18.667 12.667 37 19 55 19c16.667 0 31.167 -5.16699 43.5 -15.5s18.5 -23.833 18.5 -40.5c-0.666992 -28.667 -11.334 -44.667 -32.001 -48c-14.667 -2 -24 6.66699 -28 26c-0.666992 3.33301 0.166016 8 2.49902 14s3.5 10.333 3.5 13
c0.666992 18.667 -11.666 28 -36.999 28c-9.33301 0 -18 -2.33301 -26 -7c1.33301 -25.333 8.33301 -49 21 -71c17.333 -30 52.333 -45.333 105 -46c21.333 0 45.666 7 72.999 21c20.667 10.667 43 32 67 64c9.33301 12.667 20 32.334 32 59.001zM210.002 86
c-28 -38.667 -73.334 -57.667 -136.001 -57c-41.333 0 -73.666 20.333 -96.999 61c-10.667 18.667 -15 41.667 -13 69c-10.667 -16.667 -16 -36 -16 -58c0 -29.333 11 -52.333 33 -69c20 -16 45 -24 75 -24c78 0 129.333 26 154 78z" />
    <glyph glyph-name="J" unicode="J" horiz-adv-x="525" 
d="M636 419c-12.667 -58.667 -66.334 -86.0029 -161.001 -82.0029c-23.333 1.33301 -46 4.66602 -68 9.99902l-19 -54c23.333 -5.33301 42.5 -16.666 57.5 -33.999s21.5 -37.666 19.5 -60.999c-2.66699 -36.667 -25.334 -66 -68.001 -88c-24.667 -12.667 -51 -19 -79 -19
c-49.333 -138.667 -107.666 -230.667 -174.999 -276c-32 -21.333 -71 -32 -117 -32c-18.667 0 -37.667 4.66699 -57 14c-22.667 10.667 -34 24.334 -34 41.001c0 8 3 15.167 9 21.5s13 9.5 21 9.5c7.33301 0 21.833 -11.833 43.5 -35.5s43.834 -35.5 66.501 -35.5
c53.333 0 100.333 63.667 141 191l33 110c-36.667 10 -67.334 28.333 -92.001 55c-26.667 28.667 -39.667 61.334 -39 98.001c0.666992 42 17.334 77 50.001 105c30 26 66.667 40 110 42c24 1.33301 47 -2.33398 69 -11.001c30 76 65.333 138.667 106 188
c-49.333 -21.333 -86.333 -31.333 -111 -30c-20.667 1.33301 -56.667 21.5 -108 60.5s-90.333 58.5 -117 58.5c-16 0 -30.5 -8 -43.5 -24s-19.5 -32.333 -19.5 -49c0 -11.333 4.66699 -17 14 -17c2.66699 0 7.16699 2.66699 13.5 8s12.166 8 17.499 8
c22 0 33 -10.333 33 -31c0 -21.333 -10.667 -32 -32 -32c-14.667 0 -27 6 -37 18s-15 25.333 -15 40c0 30.667 12.333 55.667 37 75c22.667 18 49.667 27 81 27c32.667 0 61.667 -9.33301 87 -28l56 -52c24.667 -19.333 47.334 -29 68.001 -29c40.667 0 69.667 3 87 9
c42 56 75.333 84 100 84c13.333 0 20 -5 20 -15c0 -19.333 -24 -41.333 -72 -66c-38 -65.333 -71.667 -142 -101 -230c8.66699 -6 25 -10.667 49 -14c19.333 -2.66699 35 -4 47 -4c59.333 0.666992 99 18.334 119 53.001zM451 206.997c0 36 -22.333 61 -67 75l-62 -181h5
c82.667 0 124 35.333 124 106zM342 374.997c-21.333 11.333 -45 16.998 -71 16.998c-24 0 -47.333 -7.66699 -70 -23c-36.667 -24.667 -55 -60 -55 -106c0 -70.667 36 -120 108 -148l55 170c-33.333 -8 -58 -26.333 -74 -55c16.667 30.667 42 51.334 76 62.001
c2.66699 6.66699 13 34.334 31 83.001z" />
    <glyph glyph-name="K" unicode="K" horiz-adv-x="826" 
d="M1342 38c0 -106.667 -45.998 -192.006 -137.998 -256.006c-59.333 -41.333 -119.333 -62 -180 -62c-91.333 0 -178 26.667 -260 80c-75.333 48.667 -138.333 114.667 -189 198c34.667 -131.333 131.334 -219 290.001 -263l-7 -5c-166 46.667 -265.333 137.667 -298 273
c-0.666992 7.33301 -2.66699 17.666 -6 30.999l-45 94c-22.667 52 -45.334 122.333 -68.001 211l-59 -42l-47 -116c-28 -71.333 -42 -114.666 -42 -129.999c0 -29.333 26 -44.333 78 -45v-6h-264l1 6c32 0 56.667 9 74 27c13.333 12.667 26.666 36.334 39.999 71.001
c1.33301 2.66699 13 32.334 35 89.001c-22.667 -10 -49 -15.333 -79 -16c-52 -0.666992 -97.167 18.833 -135.5 58.5s-57.5 85.834 -57.5 138.501c0 18.667 3.66699 39.334 11 62.001c19.333 60.667 56 110 110 148c48.667 34.667 106.667 57 174 67
c46 6.66699 71.333 10 76 10c13.333 0 33.666 -0.5 60.999 -1.5s47.666 -1.5 60.999 -1.5c46 0 83.333 1 112 3l-1 -8c-38 0 -69.333 -21 -94 -63c-6 -10 -21.667 -48 -47 -114l-58 -156c34 24 100.667 75.333 200 154l37 30c30.667 24 59.667 48 87 72
c11.333 10 17 21.333 17 34c0 23.333 -20.333 37.666 -61 42.999l-1 8c30 -2 62 -3 96 -3c34.667 0 71.334 1 110.001 3v-13c-34 -8 -77.667 -31.667 -131 -71c-23.333 -17.333 -62.666 -49.666 -117.999 -96.999c-20 -17.333 -58.333 -47.666 -115 -90.999
c14.667 -70 33.667 -138 57 -204c25.333 70 67.666 127.667 126.999 173c62 48 129 72 201 72c98.667 0 189 -29 271 -87c84.667 -60.667 138.667 -138 162 -232c8.66699 -35.333 13 -59.666 13 -72.999zM1301 15.9941c0 114 -40.668 209.831 -122.001 287.498
s-179.333 116.5 -294 116.5c-72.667 0 -138 -24.667 -196 -74c-55.333 -46.667 -93.666 -106 -114.999 -178c16.667 -47.333 31.667 -84 45 -110c44.667 -86.667 100 -158 166 -214c78.667 -65.333 161 -98 247 -98c28.667 0 58.667 8.33301 90 25c36 19.333 54 42 54 68
c0 16 -6.5 27.833 -19.5 35.5s-19.5 13.167 -19.5 16.5c0 18 10.667 27 32 27c16.667 0 30 -6.66699 40 -20s15 -28.666 15 -45.999c0 -16.667 -4.66699 -32.667 -14 -48c30 22.667 53 54.334 69 95.001c14.667 36.667 22 75.667 22 117zM403.001 591.992
c0 17.333 -12.3311 30.3369 -36.998 39.0039c-17.333 6 -37 9 -59 9c-104 0 -171.333 -33 -202 -99c-12 -25.333 -18 -46.333 -18 -63c0 -38.667 18.667 -58 56 -58c11.333 0 21.5 4 30.5 12s13.5 17.667 13.5 29c0 3.33301 -1.33301 7.66602 -4 12.999
s-4 9.66602 -4 12.999c0 20.667 9 31 27 31c28 0 42 -15.333 42 -46c0 -22.667 -8.66699 -41.167 -26 -55.5s-37.666 -21.5 -60.999 -21.5c-27.333 0 -49.833 7.66699 -67.5 23s-26.5 36.333 -26.5 63c0 20.667 7.66699 43 23 67c14 21.333 30.333 38.666 49 51.999
c-41.333 -21.333 -75.333 -53.833 -102 -97.5s-39.334 -88.167 -38.001 -133.5c1.33301 -34 13.166 -67.667 35.499 -101s49.166 -56.333 80.499 -69c18 -7.33301 40.667 -11 68 -11c28 0 53.667 4.33301 77 13c95.333 243.333 143 373.666 143 390.999z" />
    <glyph glyph-name="L" unicode="L" horiz-adv-x="389" 
d="M1137 -20c0 -91.333 -39.3291 -163.668 -117.996 -217.001c-73.333 -50 -167.666 -75 -282.999 -75c-64 0 -118.333 7.66699 -163 23c-35.333 12 -81.666 37.667 -138.999 77c-37.333 25.333 -77.333 61 -120 107l-77 87c-31.333 34 -59.333 60 -84 78
c-36.667 -38.667 -79.334 -58 -128.001 -58h-21c-14 2 -26.5 7.66699 -37.5 17s-16.5 21 -16.5 35c0 28 14.333 49.333 43 64c22.667 11.333 49.667 17 81 17c17.333 0 35.666 -4 54.999 -12c8.66699 18 23 51.667 43 101l102 288c30 78.667 74.333 142.334 133 191.001
c14 12 29 23.667 45 35c58 34 107.333 51 148 51c31.333 0 61.166 -7.5 89.499 -22.5s50 -35.833 65 -62.5s22.5 -52.334 22.5 -77.001c0 -39.333 -15.667 -72.333 -47 -99c-28 -24.667 -62.333 -39 -103 -43c-20 -26 -46.667 -39 -80 -39c-16.667 0 -32.334 5 -47.001 15
s-22 23 -22 39c0 9.33301 3.16699 18 9.5 26s14.166 12 23.499 12c-3.33301 8 -5 14.667 -5 20s2 9 6 11c0.666992 -15.333 5.66699 -29 15 -41s21.333 -18 36 -18c17.333 0 31.833 6.83301 43.5 20.5s17.5 29.167 17.5 46.5c0 30 -13.333 52.667 -40 68
c-18 9.33301 -35.667 14 -53 14c-43.333 0 -81 -21.333 -113 -64c-18.667 -24.667 -39.667 -65.334 -63 -122.001l-79 -192c-30.667 -71.333 -62.334 -133 -95.001 -185c19.333 -13.333 36.666 -27.666 51.999 -42.999l115 -114c59.333 -57.333 107.333 -98 144 -122
c59.333 -38.667 118.666 -58 177.999 -58c31.333 0 60 8 86 24c29.333 18 44 42 44 72c0 7.33301 -1.33301 13.333 -4 18c-9.33301 -1.33301 -18.666 -2 -27.999 -2c-59.333 0 -102.666 23.333 -129.999 70c-14.667 25.333 -22 51 -22 77c0 60.667 30 111.667 90 153
c54 38 112.333 57 175 57c100 0 177.333 -47.333 232 -142c16 -27.333 24 -62.666 24 -105.999zM753.004 607.998c0 25.333 -8 51.666 -24 78.999c-10.667 18 -24 32.333 -40 43c-38 24.667 -77.333 37 -118 37c-86.667 0 -159.667 -56 -219 -168c46 48.667 99 73 159 73
c38.667 0 70.667 -9.33301 96 -28c28.667 -21.333 43 -50.666 43 -87.999c0 -21.333 -5 -41 -15 -59c34 4 61.333 15 82 33c24 20 36 46 36 78zM1123 -30.002c0 44.667 -8.33203 81.001 -24.999 109.001c-56 95.333 -132 143 -228 143c-60 0 -115 -19 -165 -57
c-55.333 -40.667 -83 -90 -83 -148c0 -26 6.66699 -50.667 20 -74c24 -42 65.333 -63 124 -63c8 0 15.667 0.333008 23 1c-12.667 13.333 -19 22.333 -19 27c0 22.667 10.667 34 32 34c26.667 0 40 -15.333 40 -46v-3c16 6 30 14.333 42 25
c-10.667 -12.667 -25 -23.334 -43 -32.001c-1.33301 -27.333 -15 -54 -41 -80c-50 -50 -118.333 -73.333 -205 -70c53.333 -18.667 111.666 -28 174.999 -28c32 0 64.333 2.66699 97 8c136 22 218.667 86.667 248 194c5.33301 19.333 8 39.333 8 60zM110.005 86.999
c-28 17.333 -53 26 -75 26c-19.333 0 -36 -4.33301 -50 -13c-16 -10.667 -24 -25 -24 -43c0 -12 5.66699 -21.167 17 -27.5s23.333 -9.5 36 -9.5c39.333 0 71.333 22.333 96 67z" />
    <glyph glyph-name="M" unicode="M" horiz-adv-x="1249" 
d="M1383 625c0 -12 -5.00391 -17.9971 -15.0039 -17.9971s-15 5 -15 15c0 2.66699 0.666992 6.66699 2 12s2 9.33301 2 12c0 15.333 -9.66699 23 -29 23c-31.333 0 -69.666 -28.667 -114.999 -86c-57.333 -72 -103 -158.333 -137 -259
c-22.667 -66.667 -34 -127.667 -34 -183c0 -73.333 24 -110 72 -110c26.667 0 48.667 15.333 66 46l4 -2c-27.333 -52.667 -66.333 -79 -117 -79c-66.667 0 -100 51.667 -100 155c0 68.667 19 144 57 226c34.667 75.333 77.334 140.666 128.001 195.999
c12 13.333 23.667 25 35 35l54 48c-36 -10.667 -71.667 -26.334 -107 -47.001c-58 -34.667 -112.667 -75.667 -164 -123c-32.667 -30 -80.334 -79.333 -143.001 -148c6.66699 -44.667 10 -86.334 10 -125.001c0 -50.667 -5.33301 -93.334 -16 -128.001
c-16.667 -53.333 -44.667 -80 -84 -80c-17.333 0 -31 7 -41 21c-9.33301 12 -14 27 -14 45c0 54.667 30.667 122.334 92 203.001c-5.33301 86.667 -30 187.667 -74 303c-14 -110 -40.333 -205.333 -79 -286c-30.667 -64.667 -78.667 -130.334 -144 -197.001
c-35.333 -36 -84 -76.333 -146 -121c-94 -67.333 -197.333 -118.333 -310 -153c-67.333 -20.667 -127.333 -31 -180 -31c-67.333 0 -127.666 17 -180.999 51c-32.667 20.667 -59.167 49.334 -79.5 86.001s-30.5 74 -30.5 112c0 88 35 166 105 234
c77.333 74.667 174.333 112 291 112c125.333 0 211 -48.667 257 -146c18.667 -39.333 28 -79 28 -119c0 -24 -3.33301 -49.333 -10 -76l-19 -11c10.667 42 16 76.667 16 104c0 32.667 -7 65.334 -21 98.001c-42 98 -125.333 147 -250 147c-47.333 0 -94 -8 -140 -24
c-63.333 -22 -116 -59.333 -158 -112c-44.667 -55.333 -67 -115.333 -67 -180c0 -39.333 10.833 -77 32.5 -113s49.834 -64.333 84.501 -85c54 -32.667 114 -49 180 -49c62 0 133.667 14.333 215 43c73.333 25.333 139.666 56.666 198.999 93.999
c44.667 28 89.667 62.333 135 103c-66 -41.333 -138 -62 -216 -62c-60 0 -110.667 13 -152 39c-48 31.333 -72 75.333 -72 132c0 33.333 9.33301 62.166 28 86.499s44.334 36.5 77.001 36.5c18 0 33.667 -6 47 -18s20 -27 20 -45c0 -24.667 -11.667 -37 -35 -37
c-17.333 0 -26 4.33301 -26 13c0 2 0.5 4.83301 1.5 8.5s1.5 6.5 1.5 8.5c0 10.667 -4.5 19.5 -13.5 26.5s-18.833 10.5 -29.5 10.5c-20.667 0 -36.834 -8.5 -48.501 -25.5s-17.5 -36.5 -17.5 -58.5c0 -50.667 22.333 -90.334 67 -119.001
c38.667 -24.667 84.667 -37 138 -37c102.667 0 196.667 39.333 282 118c61.333 56.667 110.666 128 147.999 214c34 79.333 55 164 63 254c-14 6.66699 -43.333 10 -88 10c-57.333 0 -98.666 -4 -123.999 -12c-46 -14.667 -69 -44 -69 -88c0 -39.333 16.333 -59 49 -59
c11.333 0 21 4 29 12s12 18 12 30s6.66699 19.333 20 22c9.33301 2 16.833 -0.333008 22.5 -7s8.5 -15 8.5 -25c0 -17.333 -6.16699 -31.166 -18.5 -41.499s-27.5 -15.5 -45.5 -15.5c-22.667 0 -42.167 8.16699 -58.5 24.5s-24.5 35.833 -24.5 58.5
c0 48.667 23 87.334 69 116.001c40 24.667 85.667 37 137 37c8.66699 0 52.667 -1 132 -3c43.333 -122.667 71 -228.667 83 -318c78.667 86.667 147.334 153 206.001 199c114.667 90 207.334 135 278.001 135c18.667 0 35 -4 49 -12c16.667 -10 25 -23.667 25 -41z
M783.996 192.003c0 6 -1.99902 32.334 -5.99902 79.001c-56.667 -78 -85 -143.667 -85 -197c0 -35.333 12.667 -53 38 -53c19.333 0 33.666 23.667 42.999 71c6.66699 33.333 10 66.666 10 99.999z" />
    <glyph glyph-name="N" unicode="N" horiz-adv-x="1082" 
d="M1463 -148c0 -48 -38.6729 -86.3281 -116.006 -114.995c-27.333 -10 -59.333 -15 -96 -15c-53.333 0 -109.333 8.66699 -168 26c-124.667 36.667 -232.334 106.334 -323.001 209.001c-70 78.667 -139.333 191 -208 337c-48.667 103.333 -82.667 186.333 -102 249
c-40.667 -140.667 -97 -272.667 -169 -396c-36 -62 -90.333 -119 -163 -171c-66 -48 -136.333 -84.667 -211 -110c-39.333 -13.333 -83 -20 -131 -20c-34.667 0 -66.667 3.66699 -96 11c-131.333 32.667 -227.666 97.667 -288.999 195c-27.333 43.333 -41 96 -41 158
c0 44 7.66699 85.333 23 124c17.333 44.667 41.666 77.5 72.999 98.5s62.666 31.5 93.999 31.5c36.667 0 60.334 -10 71.001 -30c-12.667 15.333 -34 23 -64 23c-36.667 0 -67.667 -8.66699 -93 -26c-48 -32.667 -72 -86 -72 -160c0 -94 36 -176 108 -246
c63.333 -60.667 144 -103.334 242 -128.001c29.333 -7.33301 61.333 -11 96 -11c48 0 91.667 6.66699 131 20c74 24.667 140.333 61.667 199 111c-22 -12.667 -45.667 -19 -71 -19c-31.333 0 -57.333 9.16699 -78 27.5s-31 43.166 -31 74.499
c0 17.333 4.83301 32.166 14.5 44.499s22.834 18.5 39.501 18.5c8 0 14.833 -3.5 20.5 -10.5s8.5 -14.5 8.5 -22.5c0 -6.66699 -4.66699 -14.5 -14 -23.5s-14 -17.5 -14 -25.5c0 -18.667 7.5 -34.167 22.5 -46.5s31.833 -18.5 50.5 -18.5c36.667 0 74.667 24.333 114 73
c76.667 94.667 143 241 199 439c4 14.667 9.33301 37 16 67c-42 8 -96 12 -162 12c-104.667 0 -157 -24.333 -157 -73c0 -27.333 13 -41 39 -41c18.667 0 31.667 8 39 24c4.66699 10.667 11.334 17.334 20.001 20.001c9.33301 2 17 -0.833008 23 -8.5s9 -16.167 9 -25.5
c0 -28.667 -18 -43 -54 -43c-25.333 0 -46 7.83301 -62 23.5s-23 36.167 -21 61.5c2.66699 41.333 27 71.666 73 90.999c34 14 75 21 123 21c-10.667 0 45.333 -2.33301 168 -7c-8.66699 34 -16 71 -22 111c-10 70 -15 125 -15 165c0 82 18.667 171 56 267
c17.333 44 36.333 81.667 57 113c41.333 62.667 96.333 112.667 165 150c32.667 18 69.667 27 111 27c43.333 0 82 -9.33301 116 -28c40.667 -23.333 61 -55 61 -95c0 -41.333 -20.167 -78.5 -60.5 -111.5s-77.833 -49.5 -112.5 -49.5c-18.667 0 -34.334 4.33301 -47.001 13
c-14.667 10.667 -22 24.667 -22 42c0 10.667 3.83301 20.667 11.5 30s16.5 12.666 26.5 9.99902c8 -2 13 -6.66699 15 -14c6.66699 -20 27.334 -30.667 62.001 -32c18.667 -0.666992 37.334 4 56.001 14c-4.66699 -0.666992 -9 -1 -13 -1
c-13.333 0 -26.666 3.66699 -39.999 11c11.333 -2 21.666 -3 30.999 -3c34.667 0 58.334 16 71.001 48c4.66699 12 7 23.667 7 35c0 36 -19.333 65.333 -58 88c-32.667 18.667 -68.334 28 -107.001 28s-75.667 -9.66699 -111 -29c-60.667 -32.667 -109 -81 -145 -145
c-28.667 -50 -54.667 -120.333 -78 -211c-14 -54 -21 -108.667 -21 -164c0 -40 5 -94 15 -162c8.66699 -58.667 18.667 -106.667 30 -144l30 -98c18.667 -60.667 40.334 -119.334 65.001 -176.001c42.667 -97.333 85 -177.666 127 -240.999
c10.667 60.667 32.167 133.667 64.5 219s64.833 153.333 97.5 204c18.667 29.333 32.334 49.666 41.001 60.999c16.667 22 45.334 45.667 86.001 71c12 6.66699 26 10.334 42 11.001c14.667 0 27.167 -5.33301 37.5 -16s15.5 -23.667 15.5 -39
c0 -27.333 -12.667 -45 -38 -53c-8.66699 -2.66699 -17.334 -3.33398 -26.001 -2.00098c-7.33301 1.33301 -14 2 -20 2c-79.333 0 -152.666 -89.667 -219.999 -269c-29.333 -77.333 -49.333 -150 -60 -218c4 -6.66699 16.667 -23.334 38 -50.001
c150.667 -189.333 307.334 -284 470.001 -284c59.333 0 100 19.333 122 58c10.667 18.667 16 34.334 16 47.001c0 6 -2.83301 12.667 -8.5 20s-8.16699 12.666 -7.5 15.999c4 16.667 15 25 33 25c12.667 0 23.5 -5 32.5 -15s13.5 -21.333 13.5 -34z" />
    <glyph glyph-name="O" unicode="O" horiz-adv-x="657" 
d="M992 781c0 -44.667 -10.168 -100.669 -30.501 -168.002s-42.833 -119.666 -67.5 -156.999c-54 -81.333 -126.667 -148.333 -218 -201c-25.333 -14.667 -56.333 -28.667 -93 -42c-62.667 -102.667 -149.667 -174.667 -261 -216c-24.667 -9.33301 -44.667 -16.333 -60 -21
l-89 -28c-33.333 -10 -63 -16.333 -89 -19c-41.333 -4.66699 -78.666 -7 -111.999 -7c-163.333 0 -276 53.667 -338 161c-32 55.333 -48 117.333 -48 186c0 36.667 5 75 15 115c36.667 144.667 127 254.334 271 329.001c7.33301 64 25 118.667 53 164
c60.667 99.333 133 177.333 217 234c89.333 60.667 194 91 314 91c138 0 258.333 -35.333 361 -106c116.667 -80 175 -185 175 -315zM963.999 769.998c0 126 -54.668 228.998 -164.001 308.998c-100 73.333 -216.333 110 -349 110c-46.667 0 -91 -5.33301 -133 -16
c-72.667 -18.667 -127.667 -40.667 -165 -66c-87.333 -59.333 -159.333 -135 -216 -227c-28 -45.333 -46.667 -99.333 -56 -162c60.667 30 120 45 178 45c57.333 0 111 -14.333 161 -43l-8 -4c-47.333 27.333 -98.666 41 -153.999 41c-58 0 -117.333 -14.667 -178 -44
c-2.66699 -22 -4 -44 -4 -66c0 -36.667 4.33301 -71 13 -103l-5 -3c-10.667 37.333 -16 76.333 -16 117c0 16 1 32.667 3 50c-132 -67.333 -216 -173.333 -252 -318c-9.33301 -37.333 -14 -73.333 -14 -108c0 -69.333 16.333 -132 49 -188
c59.333 -101.333 171 -152 335 -152c39.333 0 80.333 2.33301 123 7c26.667 2.66699 64 11.667 112 27c-8 -0.666992 -16.333 -1 -25 -1c-66 0 -119 23.667 -159 71c-37.333 44 -56 99.667 -56 167c0 58 15.333 119.333 46 184c70.667 148.667 172.667 237.667 306 267l2 -2
c-74.667 -25.333 -142.334 -95.666 -203.001 -210.999c-55.333 -105.333 -83 -199.666 -83 -282.999c0 -54 11.667 -97.333 35 -130c27.333 -36.667 67 -55 119 -55c102 0 194.667 70 278 210c-10.667 -0.666992 -20.667 -1 -30 -1c-112 0 -183.667 41.667 -215 125
c-9.33301 25.333 -14 49 -14 71c0 45.333 15 92.666 45 141.999c28.667 47.333 63 83.333 103 108c35.333 22 77 33 125 33c53.333 0 94.333 -21.667 123 -65c24 -36.667 36 -83 36 -139c0 -84.667 -22.333 -165.667 -67 -243c52 16.667 104 46.334 156 89.001
c48.667 39.333 89.334 83.333 122.001 132c28 41.333 51 93.333 69 156c18 60.667 27 117 27 169zM582.998 496.996c0 42 -9.99805 76.334 -29.998 103.001c-22.667 30 -54.334 45 -95.001 45c-43.333 0 -84 -16.333 -122 -49c-34 -30 -59.333 -66.667 -76 -110
c-8.66699 -22.667 -13 -47.667 -13 -75c0 -47.333 16.333 -71 49 -71c24 0 35 12 33 36c4.66699 11.333 14 17 28 17c24 0 36 -12.333 36 -37c0 -17.333 -9 -32.333 -27 -45s-36 -19 -54 -19c-22.667 0 -41.334 7 -56.001 21c17.333 -38.667 51 -67.334 101 -86.001
c40.667 -15.333 85.667 -22 135 -20c60.667 106 91 202.667 91 290z" />
    <glyph glyph-name="P" unicode="P" horiz-adv-x="720" 
d="M1070 671c0 -94 -35.001 -183.001 -105.001 -267.001c-65.333 -78 -144.666 -134 -237.999 -168c-50.667 -18.667 -105.667 -28 -165 -28c-72 0 -137 13 -195 39l-27 -77c0 -0.666992 -7.66699 -20.667 -23 -60c-10.667 -28 -16 -47.333 -16 -58
c0 -26.667 22.333 -42 67 -46c6 0 12.667 -0.333008 20 -1l-1 -1v-4c-51.333 2 -101.333 3 -150 3c-19.333 0 -40 -0.333008 -62 -1c-22.667 -22 -54.667 -45.333 -96 -70s-76.333 -40.667 -105 -48c-65.333 -16.667 -117.666 -24.667 -156.999 -24
c-78 1.33301 -153.667 22.666 -227 63.999c-78.667 44 -140.5 103 -185.5 177s-67.5 155.333 -67.5 244c0 31.333 2.33301 60.333 7 87c20 114 59.333 203.333 118 268c66.667 73.333 154.334 110 263.001 110c40 0 83.333 -6.33301 130 -19c56 -14.667 94.667 -34 116 -58
c-62 36.667 -127 55 -195 55c-100 0 -188.333 -35.333 -265 -106c-74 -68 -120 -152 -138 -252c-6 -33.333 -9 -64 -9 -92c0 -86.667 23 -164.334 69 -233.001c44 -64.667 105.667 -118 185 -160c70.667 -37.333 152.667 -55 246 -53
c126 2.66699 222.667 39.334 290 110.001c-26.667 -1.33301 -47.334 -2 -62.001 -2l1 7c56.667 0 98 22.667 124 68c2 4 12.667 27.667 32 71c4 12 21.667 56.667 53 134c-37.333 22 -71 49.333 -101 82c-11.333 -6 -23 -9 -35 -9c-28 0 -49.667 9.33301 -65 28
s-23 42.334 -23 71.001c0 55.333 29 104 87 146c24.667 74 70 130.333 136 169c60 34.667 131.333 52 214 52l-11 -6c-158 0 -267 -69.333 -327 -208c65.333 42 154.666 63 267.999 63c14.667 0 29.667 -0.333008 45 -1c22 49.333 35 78 39 86
c16.667 32.667 33.334 59.334 50.001 80.001c52.667 64 109.667 101.333 171 112c24 4 47.667 6 71 6c91.333 0 159.666 -39.333 204.999 -118c29.333 -50.667 44 -104.667 44 -162zM1051 664.999c0 58 -14.332 111.332 -42.999 159.999c-46 77.333 -112.667 116 -200 116
c-21.333 0 -43.666 -2 -66.999 -6c-46.667 -8 -92.334 -41 -137.001 -99c-16.667 -21.333 -32 -48.666 -46 -81.999l-33 -89c178.667 -14 268 -77.667 268 -191c0 -57.333 -20.667 -103.333 -62 -138c-38.667 -32.667 -87.334 -49 -146.001 -49
c-55.333 0 -102.666 13.333 -141.999 40l2 5c39.333 -20 73.333 -30 102 -30c53.333 0 94.666 22.333 123.999 67c25.333 38.667 38 85.667 38 141c0 39.333 -12 71.333 -36 96s-55.667 37 -95 37c-45.333 0 -77 -25 -95 -75l-109 -301c64.667 -30 135 -45 211 -45
c154.667 0 280.667 65.333 378 196c58.667 78.667 88 161 88 247zM414 581.998c3.33301 20.667 -1.33398 36.334 -14.001 47.001s-30 16 -52 16c-68.667 0 -129 -20.667 -181 -62c-8.66699 -24.667 -13 -49.667 -13 -75c0 -32 7.33301 -60.333 22 -85
c2.66699 6.66699 8.33398 13.667 17.001 21c18 5.33301 29.667 0.333008 35 -15c1.33301 -2.66699 3 -8.33398 5 -17.001c4 -14 -1.33301 -27.333 -16 -40c26 -26 57 -49.667 93 -71l95 252c3.33301 9.33301 6.33301 19 9 29zM165 408.998c-16 24 -24 52.334 -24 85.001
c0 25.333 5 51.666 15 78.999c-38 -34 -57 -69.667 -57 -107c0 -15.333 5.16699 -29.333 15.5 -42s22.833 -19 37.5 -19c4.66699 0 9 1.33301 13 4z" />
    <glyph glyph-name="Q" unicode="Q" horiz-adv-x="758" 
d="M889 413c0 -128 -50.9961 -223.998 -152.996 -287.998c-57.333 -36 -112.666 -54 -165.999 -54c-24 0 -49.667 3.33301 -77 10l47 27c21.333 -4.66699 42 -7 62 -7c37.333 0 74.666 8.66699 111.999 26c92.667 43.333 139 130.333 139 261c0 25.333 -1.66699 52 -5 80
c-8.66699 74.667 -40.334 142 -95.001 202c-51.333 56.667 -114.333 97 -189 121c-49.333 16 -97.333 24 -144 24c-94 0 -173.333 -30.667 -238 -92c-60 -58 -99.333 -134.667 -118 -230c-5.33301 -27.333 -8 -54 -8 -80c0 -78 27 -154.333 81 -229
c5.33301 -7.33301 17.666 -22.333 36.999 -45c51.333 0 109.333 -18.667 174 -56c31.333 18 65.666 50 102.999 96c68.667 84.667 103 164 103 238c0 55.333 -20.333 104.166 -61 146.499s-88.667 63.5 -144 63.5c-48 0 -89 -16.5 -123 -49.5s-51 -73.5 -51 -121.5
c0 -52 20.333 -93.667 61 -125c25.333 -20.667 52.666 -31 81.999 -31c28 0 54.333 15 79 45s37 59.333 37 88c0 16 -3 30.333 -9 43c-8 16 -19.333 24 -34 24c-6 0 -12.667 -1.83301 -20 -5.5s-11 -8.16699 -11 -13.5c0 -4 2.33301 -8.33301 7 -13l13 -13
c2 -2.66699 3 -5.33398 3 -8.00098c-2 -21.333 -13 -32 -33 -32c-25.333 0 -38 12.667 -38 38c0 16.667 6.5 30.834 19.5 42.501s28.167 17.5 45.5 17.5c47.333 0 71 -25 71 -75c0 -14.667 -3.33301 -33.334 -10 -56.001c-10 -34 -29 -62.5 -57 -85.5
s-59.333 -34.5 -94 -34.5c-41.333 0 -74.5 13.333 -99.5 40s-37.5 60.667 -37.5 102c0 70 27.167 132 81.5 186s116.5 81 186.5 81c36 0 70 -12 102 -36c48.667 -36 74.667 -91.667 78 -167c2.66699 -60 -14.333 -123.333 -51 -190
c-6.66699 -12 -26.334 -38.667 -59.001 -80c-34.667 -44 -75 -87.667 -121 -131c24.667 -16 60.5 -41.833 107.5 -77.5s83.667 -61.834 110 -78.501l75.5 -46c38.667 -16.667 67.667 -25 87 -25c6 0 15.667 2.83301 29 8.5s20 10.834 20 15.501
c0 2 -2.16699 6.83301 -6.5 14.5s-6.5 14.834 -6.5 21.501c0 8.66699 3.5 16.167 10.5 22.5s14.833 9.5 23.5 9.5c22.667 0 34 -11.667 34 -35c0 -34 -38.333 -57 -115 -69c-17.333 -2.66699 -33 -4 -47 -4c-30 0 -62.333 6.33301 -97 19
c-19.333 7.33301 -52.333 22.333 -99 45c-26 12.667 -60.333 34 -103 64c-20.667 14 -55.334 39.333 -104.001 76c-61.333 -28.667 -115.333 -43 -162 -43c-28 0 -52 4.66699 -72 14c-26 12.667 -39 31.667 -39 57c0 40.667 37.667 67 113 79
c-9.33301 8.66699 -17.666 17 -24.999 25c-24.667 27.333 -44.5 63 -59.5 107s-22.5 85 -22.5 123c0 26.667 3 55.667 9 87c20 103.333 69 188.166 147 254.499s169.333 99.5 274 99.5c48 0 94.333 -7.33301 139 -22c80.667 -26 146.334 -65.667 197.001 -119
c55.333 -58 88.333 -126.667 99 -206c3.33301 -25.333 5 -49 5 -71zM278.004 35.002c-43.333 36.667 -82 61 -116 73c-26 9.33301 -46.667 14 -62 14c-12.667 0 -24 -3.83301 -34 -11.5s-15 -17.834 -15 -30.501c0 -25.333 12.333 -45.666 37 -60.999
c21.333 -14 45.333 -21 72 -21c34.667 0 74 12.333 118 37z" />
    <glyph glyph-name="R" unicode="R" horiz-adv-x="767" 
d="M1498 122c0 -108.667 -27.667 -200.334 -83 -275.001c-36.667 -48.667 -92.667 -86 -168 -112c-63.333 -21.333 -131 -32 -203 -32c-83.333 0 -166 28 -248 84c-88 60 -159.333 132 -214 216c-17.333 26 -32 51.333 -44 76c-80 -25.333 -164 -37.333 -252 -36l1 -2
c8 -24.667 36.333 -37.334 85 -38.001v-3c-62.667 1.33301 -112.667 2 -150 2c-50 0 -97.333 -0.666992 -142 -2v3c38.667 -2 72.334 12.333 101.001 43c-20.667 2.66699 -43 8.33398 -67 17.001c-112 40.667 -176.667 108.667 -194 204c-3.33301 18.667 -5 35 -5 49
c0 59.333 18.333 115.333 55 168c33.333 47.333 77.666 87 132.999 119c60.667 34.667 125 57.334 193 68.001c39.333 6 90.333 6 153 0c66.667 -6.66699 111.334 -12.334 134.001 -17.001c48.667 -10.667 88.667 -28.667 120 -54c37.333 -31.333 56 -69.666 56 -114.999
c0 -49.333 -21 -92.333 -63 -129c-20.667 -18 -44.334 -31 -71.001 -39c-14.667 -4.66699 -41.667 -9.33398 -81 -14.001c12 -67.333 31.667 -133 59 -197c60 17.333 116.667 42.333 170 75c-10.667 29.333 -16 60.333 -16 93c0 44.667 9.66699 87.5 29 128.5
s46.666 73.5 81.999 97.5c63.333 43.333 136.333 65 219 65c68 0 132.333 -15.667 193 -47s109.334 -74.666 146.001 -129.999c48 -73.333 72 -162 72 -266zM1463 104c0 53.333 -8.99902 106.003 -26.999 158.003c-14 39.333 -29.667 72.666 -47 99.999
c-36.667 57.333 -84 103 -142 137c-60.667 35.333 -124 53 -190 53c-64.667 0 -123.667 -17.667 -177 -53c-70 -46.667 -105 -122 -105 -226c0 -29.333 3.33301 -57.666 10 -84.999c44 28.667 88.667 71.334 134 128.001c36 45.333 60.667 82.333 74 111
c-10.667 -32.667 -34.334 -72 -71.001 -118c-42.667 -54.667 -88 -96.334 -136 -125.001c7.33301 -30 23.333 -61.667 48 -95c-24.667 17.333 -44.667 46.666 -60 87.999c-63.333 -37.333 -119 -63.666 -167 -78.999c10 -22 21.333 -44 34 -66
c45.333 -76.667 100.333 -143 165 -199c82 -70.667 161 -106 237 -106c26.667 0 52 5.33301 76 16c35.333 15.333 53 37.666 53 66.999c0 5.33301 -2.5 11.666 -7.5 18.999s-7.5 12.666 -7.5 15.999c0.666992 17.333 9 29 25 35c17.333 6 31.833 2.83301 43.5 -9.5
s17.5 -27.5 17.5 -45.5c0 -40.667 -24.667 -73 -74 -97c48.667 7.33301 88 17.333 118 30c38.667 16.667 70 41 94 73c54.667 73.333 82 164.333 82 273zM684.001 508.003c0 37.333 -10.665 68.667 -31.998 94s-50.333 38 -87 38c-26.667 0 -47.334 -8.66699 -62.001 -26
c-7.33301 -8.66699 -13.666 -20 -18.999 -34c-8 -22 -24 -63.667 -48 -125c-5.33301 -12 -13 -30.333 -23 -55c-12 -30 -18 -50.333 -18 -61c35.333 -10 66.666 -15 93.999 -15c65.333 0 116.666 23.333 153.999 70c27.333 34 41 72 41 114zM532.003 90.0039
c-18.667 45.333 -44 115.334 -76 210.001c-23.333 3.33301 -47 10.666 -71 21.999c-22.667 -60.667 -54 -140 -94 -238c-2 -4.66699 -4.66699 -12.667 -8 -24c80 -3.33301 163 6.66699 249 30zM404.003 594.005c0 15.333 -11.667 27.667 -35 37c-18.667 8 -37 12 -55 12
c-70.667 0 -129.334 -23.667 -176.001 -71c-30 -30.667 -42.667 -61.334 -38 -92.001c3.33301 -25.333 15 -42 35 -50c9.33301 0.666992 21.333 -0.666016 36 -3.99902c3.33301 -2.66699 5.33301 -7 6 -13c1.33301 -10.667 -3.16699 -19 -13.5 -25s-21.166 -9 -32.499 -9
c-20.667 0 -37.334 7.66699 -50.001 23s-19 33.333 -19 54c0 49.333 24.667 93 74 131c42 32 90 53 144 63c2.66699 0.666992 7.66699 2.66699 15 6c-7.33301 2 -27.333 -1 -60 -9c-27.333 -7.33301 -47.333 -13.333 -60 -18c-79.333 -31.333 -138.666 -81 -177.999 -149
c-28.667 -50 -43 -103 -43 -159c0 -74 20.333 -130 61 -168c34 -32 74.333 -56 121 -72c23.333 -8 43.333 -13.667 60 -17c12 18.667 22.667 39.667 32 63l170 442c4 10.667 6 19 6 25z" />
    <glyph glyph-name="S" unicode="S" horiz-adv-x="668" 
d="M1048 545c0 -82.667 -20.0029 -160.335 -60.0029 -233.002c-82.667 -150.667 -217 -226 -403 -226c-12 -92.667 -58.667 -179.334 -140 -260.001c-49.333 -48.667 -108 -90 -176 -124c-118.667 -58.667 -240.334 -88 -365.001 -88c-196 0 -331 72.333 -405 217
c-28 54.667 -42 116 -42 184c0 180.667 76.333 317.667 229 411c90.667 55.333 181.667 83 273 83c69.333 0 127.666 -18.333 174.999 -55c-6 34 -9 66 -9 96c0 94.667 26.667 187 80 277c27.333 46.667 53 78.667 77 96c-43.333 -50 -73.666 -92 -90.999 -126
c-36 -72.667 -54 -152.667 -54 -240c0 -37.333 5 -76.666 15 -117.999c22.667 -20.667 40.667 -45 54 -73c16 -30.667 23 -59.667 21 -87c63.333 -101.333 154 -157.666 272 -168.999c-13.333 66.667 -42.666 140.334 -87.999 221.001
c-31.333 55.333 -51.666 96.666 -60.999 123.999c-12 34.667 -18 69.334 -18 104.001c0 46 10.333 93 31 141c28 65.333 72.5 117.166 133.5 155.499s127.5 57.5 199.5 57.5c64.667 0 123.834 -14.667 177.501 -44s95.834 -71.666 126.501 -126.999
c32 -57.333 48 -123 48 -197zM1022 553.999c0 64 -13.333 121.333 -40 172c-28 54 -68.833 95.667 -122.5 125s-111.167 44 -172.5 44c-67.333 0 -128.333 -16.667 -183 -50c-58 -34 -100 -81 -126 -141c-16 -36.667 -25.333 -83.667 -28 -141
c10.667 23.333 29 44.333 55 63c42 30 92.667 45 152 45c84 0 140.333 -29.667 169 -89c9.33301 -19.333 14 -38.666 14 -57.999c0 -26.667 -8.66699 -50.334 -26 -71.001s-39 -31 -65 -31c-37.333 0 -57 16.333 -59 49c-1.33301 14.667 1.16699 26.334 7.5 35.001
s16.833 12.667 31.5 12c4.66699 0 10.334 -2.16699 17.001 -6.5s10.334 -8.16602 11.001 -11.499c1.33301 -14.667 6.33301 -21.334 15 -20.001c22.667 3.33301 34 19.333 34 48c0 37.333 -15 68 -45 92c-27.333 22.667 -60.333 34 -99 34
c-82.667 0 -128.334 -33.667 -137.001 -101c-2.66699 -21.333 5 -52 23 -92c3.33301 -6.66699 22.666 -43 57.999 -109c40 -74.667 65.333 -155.667 76 -243c184.667 5.33301 314 82.333 388 231c34.667 69.333 52 140.666 52 213.999zM220.997 290.999
c-1.33301 27.333 -10.333 55.332 -27 83.999c-6 10.667 -19 27.334 -39 50.001c10 -32 32 -76.667 66 -134zM502.997 60.998c0 8.66699 -0.333008 17.332 -1 25.999c-119.333 4 -213.333 56 -282 156c-10 -28.667 -29 -51 -57 -67l1 -1h1h3
c33.333 0.666992 59.833 -8 79.5 -26s29.5 -43.333 29.5 -76c0 -30 -11.667 -56.833 -35 -80.5s-50 -35.5 -80 -35.5c-16 0 -30.333 6.33301 -43 19s-17.667 26.667 -15 42c2.66699 12.667 8.83398 23.5 18.501 32.5s20.834 12.833 33.501 11.5
c3.33301 -0.666992 8.66602 -5.5 15.999 -14.5s15 -13.5 23 -13.5c12.667 0 23.667 4.66699 33 14s14 20.333 14 33c0 24 -8.83301 43 -26.5 57s-38.834 21 -63.501 21c-50 0 -92.833 -17.833 -128.5 -53.5s-53.5 -78.167 -53.5 -127.5
c0 -65.333 23.667 -115.666 71 -150.999c42 -31.333 96.667 -47 164 -47c80.667 0 150.5 26.833 209.5 80.5s88.5 120.5 88.5 200.5zM414.997 -175.004c-74 -42.667 -158.666 -64.001 -253.999 -64.001c-110 0 -188 33.667 -234 101c-17.333 26 -26 53.333 -26 82
c0 44.667 17.667 87.334 53 128.001c54.667 63.333 121 97.666 199 102.999l5 2c27.333 10.667 46.333 35 57 73c-38.667 58.667 -65 123 -79 193c-48 38.667 -108.667 58 -182 58c-137.333 0 -251.5 -46.167 -342.5 -138.5s-136.5 -207.166 -136.5 -344.499
c0 -65.333 14 -124.333 42 -177c72 -135.333 193.667 -203 365 -203c147.333 0 281.333 33.667 402 101l70 39c23.333 14 43.666 29.667 60.999 47z" />
    <glyph glyph-name="T" unicode="T" horiz-adv-x="842" 
d="M1155 701c0 -44 -12 -95.3301 -36 -153.997c-16.667 -40.667 -34 -71 -52 -91c-12 -13.333 -33.667 -31 -65 -53c-54.667 -37.333 -112.334 -56 -173.001 -56c-43.333 0 -84.666 10.333 -123.999 31c-16.667 8.66699 -36.667 22.667 -60 42
c-11.333 9.33301 -25 22 -41 38l-31 -76l-176 -458c-12 -30.667 -15.333 -54.334 -10 -71.001c2.66699 -8.66699 7 -16 13 -22c15.333 -8 32 -15 50 -21c8.66699 -1.33301 19.667 -2 33 -2h27v-9c-18 0.666992 -34.667 1 -50 1h-1l-2 1
c-33.333 0.666992 -77.666 1 -132.999 1c-16.667 0 -79 -1.33301 -187 -4c0.666992 1.33301 1.66699 4 3 8c42 -2 78 7 108 27c15.333 10 30.333 27.667 45 53c-86.667 75.333 -137.334 175.666 -152.001 300.999c-30 7.33301 -57 28.666 -81 63.999
c-19.333 28.667 -33.333 61 -42 97c-16.667 -5.33301 -45 -11 -85 -17c-72 -0.666992 -131 24 -177 74c-44 48 -66 108.333 -66 181c0 100 39 179.333 117 238c70 52.667 156.667 79 260 79c112 0 210 -29.667 294 -89c55.333 61.333 119.333 110 192 146
c77.333 38.667 155 58 233 58c148 0 261 -67.667 339 -203c20 -34.667 30 -72.667 30 -114zM1136 672.003c0 50.667 -12.335 97.002 -37.002 139.002c-76.667 130 -186 195 -328 195c-74 0 -148.333 -18.667 -223 -56c-70 -34.667 -130.667 -81.334 -182 -140.001
c24.667 -17.333 46.667 -36.666 66 -57.999c16 -16.667 43.667 -57.667 83 -123l18 -5l304 -96c54.667 -17.333 88.667 -26 102 -26c16.667 0 25 6.66699 25 20c0 5.33301 -3.83301 11.166 -11.5 17.499s-11.5 12.166 -11.5 17.499c0 18 7.66699 27 23 27
c10.667 0 19.834 -3.66699 27.501 -11s11.5 -16.333 11.5 -27c0 -8.66699 -3 -18.667 -9 -30c-13.333 -25.333 -43.666 -38 -90.999 -38c-26.667 0 -61.334 5.66699 -104.001 17c-50 13.333 -102.667 28.333 -158 45c-4.66699 -8.66699 -11 -21.667 -19 -39
c16.667 -15.333 37.334 -33.333 62.001 -54c8.66699 -7.33301 28.667 -21.333 60 -42c35.333 -18 73 -27 113 -27c54 0 104.167 15.667 150.5 47s80.5 72 102.5 122c17.333 39.333 26 81 26 125zM474.998 642.005c-15.333 27.333 -25.332 44.668 -29.999 52.001
c-23.333 37.333 -54 71 -92 101l-24 -30l-41 -53c-10.667 -14.667 -21 -32.334 -31 -53.001c38.667 3.33301 73 4 103 2c43.333 -2.66699 81.666 -9 114.999 -19zM347.999 799.007c-81.333 63.333 -178.333 94.999 -291 94.999c-83.333 0 -155.666 -18.667 -216.999 -56
c-70 -43.333 -109.333 -104 -118 -182c-2 -17.333 -3 -34 -3 -50c0 -70 24.667 -129.667 74 -179c53.333 -54 111 -79.333 173 -76c14 0.666992 30.667 3.66699 50 9l-1 1c-4 20.667 -6 39.334 -6 56.001c0 38.667 12.667 80 38 124c13.333 23.333 29.333 43 48 59
c-20.667 29.333 -48 44 -82 44c-36.667 0 -65.667 -15 -87 -45c20.667 43.333 55 65 103 65c41.333 0 74 -14 98 -42c31.333 18 70.666 29.667 117.999 35c10.667 22 35.667 58 75 108zM543.999 529.006c-6.66699 10 -16.334 25.332 -29.001 45.999
c-14 5.33301 -40.333 14.333 -79 27c-34 10 -74.333 16 -121 18c-16 0.666992 -41 0.333984 -75 -0.999023c-49.333 -126 -73.666 -242 -72.999 -348c2.66699 10.667 13 15.667 31 15c19.333 -1.33301 30.666 -13 33.999 -35c2.66699 -17.333 -2.16602 -32 -14.499 -44
s-27.5 -19 -45.5 -21c15.333 -106.667 59.333 -200 132 -280c10.667 20 30 67.333 58 142zM227.999 619.005c-35.333 -2.66699 -64.334 -9.00098 -87.001 -19.001c12.667 -27.333 19 -48.666 19 -63.999c0 -14 -4.33301 -34 -13 -60c-12.667 -38.667 -35.667 -70 -69 -94
c-8.66699 -6.66699 -23 -14.667 -43 -24c6 -32.667 17 -61.667 33 -87c20 -32.667 43.667 -50 71 -52c-5.33301 102.667 24.334 236 89.001 400zM106.998 478.004c8.66699 35.333 8.33398 69.001 -0.999023 101.001c-12.667 -10 -24.667 -22.667 -36 -38
c-28.667 -39.333 -43 -79 -43 -119c0 -16.667 2.33301 -35.334 7 -56.001c37.333 28.667 61.666 66 72.999 112z" />
    <glyph glyph-name="U" unicode="U" horiz-adv-x="695" 
d="M1114 463c0 -112.667 -31.9971 -217.67 -95.9971 -315.003c-42 -64 -98 -118.667 -168 -164c-76.667 -49.333 -150.334 -74 -221.001 -74c-53.333 0 -97.666 12.667 -132.999 38c-40.667 28.667 -61 68.667 -61 120c0 10.667 2.33301 33.667 7 69
c-74 -105.333 -153 -158 -237 -158c-72 0 -125.333 26.333 -160 79c-11.333 16.667 -18.666 33.334 -21.999 50.001c-6.66699 31.333 -9.66699 56 -9 74c3.33301 86.667 23 163.667 59 231c10 18 27.333 52 52 102c11.333 31.333 20 59 26 83c-14 1.33301 -49 6 -105 14
c-18.667 2.66699 -39 2.33398 -61 -0.999023c-64 -10 -96 -36.333 -96 -79c0 -28 12.333 -42 37 -42c6 0 11.5 2.83301 16.5 8.5s8.83301 7.83398 11.5 6.50098c10.667 -2 16 -10 16 -24c0 -8.66699 -3.66699 -16.5 -11 -23.5s-15.333 -10.167 -24 -9.5
c-12 1.33301 -24 10.333 -36 27c-10.667 14.667 -16.334 28.667 -17.001 42c-4 58.667 24.667 103 86 133c28.667 14 65.334 21 110.001 21c19.333 0 47.333 -2.66699 84 -8c0.666992 10 1 20 1 30c0 40 -8 74 -24 102c-44 76 -119.667 114 -227 114
c-46.667 0 -92.334 -8.33301 -137.001 -25c-72.667 -27.333 -132 -71.666 -178 -132.999c-46.667 -64 -70 -134 -70 -210c0 -92.667 32.667 -161 98 -205c33.333 -22 68.666 -34 105.999 -36c82.667 -4 144 25.333 184 88l11 6c-49.333 -78 -121 -114.667 -215 -110
c-38 2 -73.333 14 -106 36c-66 44 -99 114 -99 210c0 80 26.667 153.667 80 221c50.667 64.667 114.667 111.334 192 140.001c43.333 16 88.666 24 135.999 24c111.333 0 189.333 -39 234 -117c23.333 -40.667 34.333 -86.667 33 -138c24 -2.66699 44.667 -4 62 -4
c23.333 0 48.333 3 75 9c-4.66699 -14.667 -14.667 -32 -30 -52l-38 -47c-39.333 -50.667 -68 -93.334 -86 -128.001c-41.333 -78.667 -62 -152 -62 -220c0 -66.667 19.667 -116.334 59 -149.001c28.667 -24 62.667 -36 102 -36c59.333 0 107.666 24 144.999 72
c24 30.667 48 81 72 151c-48 63.333 -72 132 -72 206c0 70.667 22.667 138.667 68 204c70.667 102 166 153 286 153c55.333 0 110.333 -13 165 -39c124.667 -59.333 187 -165 187 -317zM1093 442.997c0 152 -61.665 259.333 -184.998 322c-48.667 24.667 -100 37 -154 37
c-106 0 -192.333 -43 -259 -129c-47.333 -61.333 -71 -128.333 -71 -201c0 -68.667 21 -133.667 63 -195l8 27c29.333 98.667 66.333 193 111 283c16.667 34 35.334 56 56.001 66c12 6 49 9 111 9c10.667 0 16 -1 16 -3c-26.667 -2.66699 -50.334 -14 -71.001 -34
c-25.333 -24.667 -56.333 -80.334 -93 -167.001c-34.667 -81.333 -62.667 -161.333 -84 -240c60.667 -51.333 142 -77 244 -77l-20 -8c-97.333 0 -174 22 -230 66c-14 -53.333 -21 -92.333 -21 -117c0 -38 16.333 -57 49 -57c25.333 0 47.666 12.333 66.999 37l3 -2
c-29.333 -54.667 -69 -80.667 -119 -78c36.667 -33.333 87.667 -50 153 -50c64.667 0 129 21.667 193 65c57.333 38 105.666 87 144.999 147c58.667 88.667 88 188.334 88 299.001zM258.005 597.997c-28.667 -2 -46 -3 -52 -3c-10.667 0 -21.667 0.333008 -33 1
c-4 -23.333 -10.333 -46.333 -19 -69c-6 -16 -16 -37.333 -30 -64c-16 -30 -26.667 -51 -32 -63c27.333 44.667 60 87 98 127z" />
    <glyph glyph-name="V" unicode="V" horiz-adv-x="629" 
d="M788 836c0 -48 -5.66797 -100.669 -17.001 -158.002c-10 -51.333 -31.333 -115 -64 -191l-89 -185c-38.667 -81.333 -85.334 -149 -140.001 -203c-69.333 -69.333 -141 -104 -215 -104c-57.333 0 -102.666 18.333 -135.999 55s-50 84 -50 142c0 78.667 19 156 57 232
c8.66699 18 19.334 36 32.001 54l33 48c-36.667 26 -69.667 58.333 -99 97c-25.333 2.66699 -48.666 4 -69.999 4c-75.333 0 -113 -20.333 -113 -61c0 -28.667 14.667 -43 44 -43c6.66699 0 15.167 2.33301 25.5 7s16.5 7 18.5 7c10.667 0 16 -6.66699 16 -20
c0 -32 -17 -48 -51 -48c-46 0 -69 25.333 -69 76c0 40 18.667 71.667 56 95c30 18.667 67 29 111 31c-35.333 64 -51 139.667 -47 227c-30.667 8.66699 -69 13 -115 13c-86.667 0 -162.667 -14.333 -228 -43c-77.333 -34 -116 -81.333 -116 -142
c0 -25.333 7.33301 -53 22 -83c8.66699 -18 22.667 -34 42 -48l54 -37c-34.667 16.667 -56 28 -64 34c-14 10 -27 24 -39 42c-20 30.667 -30 60.334 -30 89.001c0 68 46.667 121 140 159c72 30 147.333 45 226 45c40.667 0 77 -4 109 -12c2 24 6 51 12 81
c18 88.667 63 159.334 135 212.001c70 52 150.667 75.333 242 70c93.333 -5.33301 174.666 -41.333 243.999 -108c88.667 -86 133 -197.333 133 -334zM771.999 844.998c0 125.333 -42.9971 229.666 -128.997 312.999c-74 72 -162.333 108 -265 108
c-82.667 0 -154.334 -23.5 -215.001 -70.5s-99.334 -110.833 -116.001 -191.5c-6.66699 -32.667 -10.667 -63.334 -12 -92.001c116.667 -33.333 193.667 -81.666 231 -144.999c18.667 -32 28 -64.333 28 -97c0 -39.333 -17.667 -89.666 -53 -150.999
c48 -26 99.333 -39 154 -39c68.667 0 141.667 21 219 63c-25.333 20.667 -39 32 -41 34c-15.333 15.333 -23 30.666 -23 45.999c0 12.667 6 23.834 18 33.501s24.333 14.5 37 14.5c33.333 0 56.666 -30.333 69.999 -91c1.33301 -6 2 -20.333 2 -43
c0 -38 -4.33301 -73.667 -13 -107c29.333 63.333 47.333 103.333 54 120c18 44 30.333 86 37 126c11.333 66 17 122.333 17 169zM250.002 665.998c1.33301 31.333 -4.66602 58.667 -17.999 82c-38.667 67.333 -104.667 116 -198 146
c-2.66699 -84.667 14.666 -158.667 51.999 -222c24 0 51.333 -0.666992 82 -2c38.667 -2 66 -3.33301 82 -4zM238.003 603.999c-26 4 -65 9.66504 -117 16.998c26.667 -33.333 55.667 -60.666 87 -81.999c6.66699 10.667 16.667 32.334 30 65.001zM635.003 462.997
c0 35.333 -5.33203 60 -15.999 74c-80 -46.667 -157 -70 -231 -70c-54.667 0 -106.334 13 -155.001 39c-29.333 -51.333 -49 -90.333 -59 -117c-14.667 -38.667 -22 -81.334 -22 -128.001c0 -109.333 35.333 -175.666 106 -198.999c18.667 -6 41 -9 67 -9
c21.333 0 45.333 5.66699 72 17c65.333 27.333 122 82 170 164c45.333 78.667 68 155 68 229z" />
    <glyph glyph-name="W" unicode="W" horiz-adv-x="953" 
d="M1571 764c0 -116.667 -36.9971 -234.333 -110.997 -353c-25.333 -40.667 -55 -77 -89 -109c-15.333 -14 -48.333 -41 -99 -81c-20.667 -78.667 -51.667 -150.667 -93 -216c-108.667 -171.333 -296 -271 -562 -299c-38 -4 -72.333 -6 -103 -6
c-157.333 0 -290.333 49.333 -399 148c-42.667 38.667 -94.667 100.334 -156 185.001c-111.333 63.333 -193.333 143 -246 239c-49.333 90.667 -75.333 202.334 -78 335.001c-2.66699 126.667 20.666 236.167 69.999 328.5s127.166 174 233.499 245
s235.5 110.833 387.5 119.5c23.333 1.33301 43.666 2 60.999 2c127.333 0 233 -29.333 317 -88c94 -66.667 143.333 -161 148 -283c70 -14.667 140.667 -46.667 212 -96c155.333 -107.333 233 -249.333 233 -426c0 -55.333 -6.66699 -112 -20 -170
c43.333 35.333 73.333 60.333 90 75c30 27.333 56.667 58.666 80 93.999c74.667 113.333 112 236 112 368c0 60 -8 108.667 -24 146c24 -50.667 36 -103.334 36 -158.001zM1265 395.001c0 175.333 -69 316.999 -207 424.999c-56.667 44.667 -125.334 77.667 -206.001 99
c0 -74.667 -32.333 -165.667 -97 -273c-22 -36.667 -38.667 -84 -50 -142c-4 -22 -11 -72.333 -21 -151c-11.333 -92 -23.333 -164.667 -36 -218c234 216.667 351 368 351 454c0 20 -9.16699 31.833 -27.5 35.5s-27.5 12.834 -27.5 27.501c0 14 5.66699 26 17 36
s24 15 38 15c18 0 32 -8 42 -24c8.66699 -13.333 13 -29.333 13 -48c0 -76 -85.333 -199.333 -256 -370l-150 -148c-44 -44.667 -91 -85.334 -141 -122.001c42 54.667 73.667 159.667 95 315c11.333 82 23 145.667 35 191c-34 -45.333 -78.333 -109.333 -133 -192
c-48.667 -73.333 -96.334 -136.666 -143.001 -189.999c-75.333 -85.333 -135.666 -128.666 -180.999 -129.999c35.333 29.333 62 69 80 119c12 32.667 23 80 33 142l28 189c1.33301 11.333 6.5 38.333 15.5 81s13.5 67.667 13.5 75c0 20.667 -12.667 36.667 -38 48
c-19.333 8.66699 -41 13 -65 13c-40.667 0 -75.834 -13.333 -105.501 -40s-44.5 -60 -44.5 -100c0 -28.667 9.33301 -46.667 28 -54c10.667 -4.66699 18.334 -5.66699 23.001 -3c9.33301 3.33301 13.666 12.666 12.999 27.999s4.66602 25 15.999 29
c2.66699 0.666992 5.33398 1 8.00098 1c20.667 0 31 -14.667 31 -44c0 -18 -7.83301 -32.833 -23.5 -44.5s-32.834 -17.5 -51.501 -17.5c-51.333 0 -77 32.333 -77 97c0 12.667 2.66699 31.334 8 56.001c12.667 59.333 37 116 73 170c54.667 82.667 125 142 211 178
c74.667 32 166 48 274 48c24.667 0 47.334 -0.666992 68.001 -2c6 -0.666992 48.667 -7 128 -19c-20 118.667 -70.333 205 -151 259c-72.667 48 -172.667 72 -300 72c-132 0 -253.667 -26.667 -365 -80c-120.667 -56.667 -213.667 -138.334 -279 -245.001
c-55.333 -90 -83 -195.667 -83 -317c0 -232.667 98.667 -415.667 296 -549c-19.333 50 -29 106.333 -29 169c0 34 6 70.333 18 109c14 44.667 32.333 76 55 94c-35.333 -46 -53 -117.333 -53 -214c0 -66 13.333 -125.333 40 -178c142.667 -82 296.334 -123 461.001 -123
c134.667 0 275.334 26.333 422.001 79c138.667 49.333 265.667 116 381 200c17.333 62.667 26 124 26 184zM830.003 889c0 12 -1 24.001 -3 36.001c-32.667 7.33301 -73 13.666 -121 18.999c-18 2 -43.333 3 -76 3c-163.333 0 -296.666 -48.333 -399.999 -145
c-40.667 -38.667 -71.334 -74 -92.001 -106c-24.667 -38.667 -41 -82.334 -49 -131.001c39.333 68 114.333 102 225 102c13.333 0 33.5 -1.66699 60.5 -5s47.167 -5 60.5 -5c10 0 22 1.33301 36 4l4 -5c-36 -35.333 -64.667 -127.333 -86 -276
c-16 -111.333 -32.667 -200 -50 -266c50 52 112.333 136 187 252c79.333 124 140 209.667 182 257c81.333 92.667 122 181.334 122 266.001zM1233 192.001c-97.333 -69.333 -212.334 -127.667 -345.001 -175l-98 -35c-34 -12 -69 -22.333 -105 -31
c-79.333 -19.333 -165.333 -29 -258 -29c-96.667 0 -196.334 13.333 -299.001 40c-46 12 -88.333 28 -127 48l2 -4c64 -127.333 176.333 -216.333 337 -267c53.333 -16.667 112 -25 176 -25c34.667 0 74.334 2.33301 119.001 7c239.333 25.333 407 113.666 503 264.999
c40.667 64.667 72.334 133.334 95.001 206.001z" />
    <glyph glyph-name="X" unicode="X" horiz-adv-x="800" 
d="M1798 191c0 -132 -29.001 -237.995 -87.001 -317.995c-24 -32 -58 -65 -102 -99c-55.333 -42.667 -113 -71.667 -173 -87c-47.333 -12 -112.333 -18 -195 -18c-95.333 0 -192.666 16.667 -291.999 50c-68.667 23.333 -125.334 48.666 -170.001 75.999
s-92.667 66.666 -144 117.999c-66.667 66.667 -115 135.334 -145 206.001c-12.667 30.667 -33.667 90.667 -63 180c-52.667 -48.667 -93 -88 -121 -118c-57.333 -62 -86.333 -105 -87 -129c0 -21.333 24.667 -35.333 74 -42v-5c-46 1.33301 -89.333 2 -130 2
s-78 -0.666992 -112 -2v3c19.333 3.33301 41.666 12.666 66.999 27.999c35.333 21.333 86.666 65.333 153.999 132l150 150c-6.66699 17.333 -16.667 45 -30 83c-8 28 -21 70 -39 126c-21.333 63.333 -38.666 99.333 -51.999 108c-9.33301 6 -24 9 -44 9
c-41.333 0 -76.666 -12 -105.999 -36c-30.667 -26 -46 -59.333 -46 -100c0 -34.667 11.667 -52 35 -52c5.33301 0 11.5 9.33301 18.5 28s19.167 27.667 36.5 27s26 -12.334 26 -35.001c0 -18.667 -9 -34.667 -27 -48s-36.667 -20 -56 -20c-42 0 -63 24 -63 72
c0 57.333 23.333 103 70 137c40.667 30 91.334 46.333 152.001 49c-9.33301 21.333 -43 81.666 -101 180.999c-60 103.333 -123 181.666 -189 234.999c-82.667 66.667 -175.334 100 -278.001 100c-46 0 -88.667 -11 -128 -33c-19.333 -10.667 -41 -28 -65 -52
c-44.667 -44.667 -76 -90.667 -94 -138c-16.667 -44 -25 -99 -25 -165c0 -118.667 35.667 -231.334 107 -338.001c76.667 -114.667 180 -172 310 -172c60.667 0 125 13.667 193 41c-1.33301 -2 -4 -4.66699 -8 -8c-58.667 -34 -129.667 -51 -213 -51
c-128.667 0 -233.667 55 -315 165c-74 100 -111 216.667 -111 350c0 63.333 8.66699 117.833 26 163.5s47.333 90.5 90 134.5c60 62 123 102 189 120c30.667 8.66699 62.334 13 95.001 13c98 0 191.667 -32.333 281 -97c78.667 -57.333 145 -132.666 199 -225.999
c38 -66 71 -130.333 99 -193c6 -13.333 12.667 -25 20 -35c50.667 1.33301 85.667 1.66602 105 0.999023l25 -1l-1 -4c-57.333 -2 -86 -17.667 -86 -47c0 -18 9.66699 -55.333 29 -112l40 -116c75.333 72.667 136.333 135 183 187c10.667 12 16 25.333 16 40
c0 30.667 -25 46.667 -75 48l1 4l145 -2l26 2c79.333 74.667 165.333 136 258 184c112 58 216 85.667 312 83c94 -2.66699 177 -32.667 249 -90c77.333 -62 116 -138.667 116 -230c0 -40 -8.66699 -80.667 -26 -122c68 -101.333 102 -199.666 102 -294.999zM1779 174.005
c0 82.667 -31.6631 178 -94.9961 286c-34 -65.333 -85.667 -115.333 -155 -150c-62.667 -32 -133.334 -48 -212.001 -48c-64.667 0 -130.334 14 -197.001 42c-36.667 15.333 -66 33.333 -88 54c89.333 -58.667 185.666 -88 288.999 -88c78 0 147.667 15.667 209 47
c67.333 34 117 84 149 150c-28.667 44 -53 77 -73 99c-26 29.333 -58 56.333 -96 81c-54 34.667 -107 58.667 -159 72c-48 12.667 -105.667 18.667 -173 18c-88.667 -1.33301 -164.334 -19.333 -227.001 -54c-78 -43.333 -132.667 -93.5 -164 -150.5
s-47 -131.167 -47 -222.5c0 -84.667 32 -151 96 -199c52.667 -40 124.667 -66 216 -78c-60.667 5.33301 -107.667 14 -141 26c-47.333 16.667 -86 44.334 -116 83.001c-40.667 52 -61 108.667 -61 170c0 92.667 16.5 167.334 49.5 224.001s89.5 107.667 169.5 153
c70 39.333 147 59 231 59c115.333 0 211.666 -18.667 288.999 -56c82.667 -40 155.334 -106 218.001 -198c15.333 38.667 23 77 23 115c0 82.667 -40.667 153.334 -122 212.001c-74 53.333 -154 80 -240 80c-107.333 0 -236 -45.667 -386 -137
c-18 -10.667 -66 -45.334 -144 -104.001c21.333 0.666992 39 1 53 1l-1 -3c-48 -7.33301 -96.667 -30.333 -146 -69c-25.333 -20 -65 -57.667 -119 -113c-40 -40.667 -77.667 -77.334 -113 -110.001l57 -168c26.667 -78 52.334 -139 77.001 -183
c34.667 -61.333 79 -110 133 -146c35.333 -23.333 69 -35 101 -35c8.66699 0 17.334 1 26.001 3v-2c-22 -6 -40 -9 -54 -9c-24.667 0 -49.334 3.66699 -74.001 11c54 -38 134 -72.333 240 -103c104 -30.667 190.333 -46 259 -46c75.333 0 136.333 6 183 18
c60 15.333 115 43 165 83c38 30.667 67.667 61 89 91s40.166 67.667 56.499 113s24.5 105.666 24.5 180.999z" />
    <glyph glyph-name="Y" unicode="Y" horiz-adv-x="679" 
d="M1343 241c0 -20 -1.99316 -41.3301 -5.99316 -63.9971c-8 -44.667 -17.667 -80.334 -29 -107.001c-29.333 -68 -77 -127 -143 -177c-60.667 -46 -129.334 -79.333 -206.001 -100c-27.333 -7.33301 -66.333 -11 -117 -11c-44.667 0 -87 3 -127 9
c-30 4.66699 -63.333 18.667 -100 42s-62.334 47.666 -77.001 72.999c-32 55.333 -48 110 -48 164c0 78.667 29.667 145.334 89 200.001c57.333 53.333 125.666 80 204.999 80c87.333 0 151.666 -35.667 192.999 -107c22 -38 33 -77.667 33 -119
c0 -64.667 -20.667 -109 -62 -133l-7 -5c-25.333 -14 -66.666 -21 -123.999 -21l10 6c45.333 0 79.333 5 102 15c31.333 13.333 51.666 39 60.999 77c4.66699 18.667 7 38 7 58c0 44 -11.333 84.667 -34 122c-24.667 39.333 -56.667 66.333 -96 81c-27.333 10 -57 15 -89 15
c-73.333 0 -137 -23.667 -191 -71s-81 -107.333 -81 -180c0 -55.333 17 -112 51 -170c14 -23.333 40 -46.666 78 -69.999s71.333 -37 100 -41s64.334 -6 107.001 -6c63.333 0 111.666 4.33301 144.999 13c182 48 289.333 165 322 351c4.66699 26.667 7 55.334 7 86.001
c0 197.333 -91 329 -273 395c-76 27.333 -152.333 41 -229 41c-54 0 -104.667 -7 -152 -21h9c24.667 0 46 -5 64 -15c21.333 -12.667 32 -30.334 32 -53.001c0 -12 -4.33301 -22.5 -13 -31.5s-19 -13.5 -31 -13.5c-18 0 -32 12 -42 36c-11.333 28.667 -29.666 43 -54.999 43
c-45.333 0 -92 -24 -140 -72c-38.667 -39.333 -70 -84 -94 -134c-4 -8 -26.333 -63 -67 -165l-44 -108c-21.333 -53.333 -32 -87.666 -32 -102.999c0 -18 9.66699 -30.333 29 -37c5.33301 0 21 -0.666992 47 -2v-11h-6c-4.66699 0.666992 -9.33398 1 -14.001 1h-30
c-76 0 -131.667 -14 -167 -42c-8 -6.66699 -17 -16.334 -27 -29.001c-12.667 -16 -21 -26 -25 -30c-92.667 -97.333 -166.334 -164.333 -221.001 -201c-83.333 -56 -178.666 -88.667 -285.999 -98c-27.333 -2.66699 -57.666 -4 -90.999 -4c-100.667 0 -189 16 -265 48
c-90 38 -157.333 95.667 -202 173c-43.333 75.333 -65 147.333 -65 216c0 51.333 10.667 106.333 32 165c80 220 240.667 343.333 482 370c12 1.33301 24.333 2 37 2c61.333 0 119 -15.333 173 -46s96 -72.334 126 -125.001c22 -38 33 -79.667 33 -125
c0 -64 -18.667 -118.333 -56 -163c-40 -47.333 -91.333 -71 -154 -71s-95.334 10.667 -98.001 32l2 6c11.333 -16 48.333 -24 111 -24c56.667 0 102 22.333 136 67c30.667 41.333 46 91 46 149c0 102.667 -51 184.334 -153 245.001c-54 32 -111 48 -171 48
c-12.667 0 -24.667 -0.666992 -36 -2c-121.333 -14 -219 -49.333 -293 -106s-131.333 -141.667 -172 -255c-23.333 -64.667 -35 -120.667 -35 -168c0 -77.333 23.667 -149.833 71 -217.5s107 -117.5 179 -149.5c78 -34.667 167 -52 267 -52c47.333 0 95 4 143 12
c98.667 16.667 186.667 52.667 264 108c66.667 48 131.667 114.667 195 200c13.333 17.333 31.666 39.666 54.999 66.999c-20.667 0 -39.334 -0.333008 -56.001 -1v10h44c14 2 26.667 9.66699 38 23l10 12c13.333 16 33 58 59 126l65 169c24 71.333 36 129.333 36 174
c0 27.333 -6.33301 49.666 -19 66.999c-14 20 -34 30 -60 30c-52.667 0 -88.667 -45.333 -108 -136h-9c12 79.333 43 135.333 93 168c25.333 16.667 47.666 24.667 66.999 24c24.667 -0.666992 47.334 -10.334 68.001 -29.001c33.333 -30 50 -71 50 -123
c0 -10.667 -1.33301 -31 -4 -61c108 162 252.667 243 434 243c75.333 0 152.333 -14.333 231 -43c105.333 -38.667 179.666 -95 222.999 -169c47.333 -82 71 -163.333 71 -244z" />
    <glyph glyph-name="Z" unicode="Z" horiz-adv-x="620" 
d="M2382 407c0 -183.333 -50.498 -359.835 -151.498 -529.502s-231.833 -300.167 -392.5 -391.5c-142.667 -81.333 -303.334 -122 -482.001 -122c-134 0 -267.333 22.333 -400 67c-129.333 44 -249.333 106.333 -360 187c-71.333 52 -150 126 -236 222
c-22 24.667 -48.667 59 -80 103c-27.333 38.667 -48.666 66 -63.999 82c-30.667 32.667 -59.334 50 -86.001 52c-27.333 2 -55.333 -10.667 -84 -38c-124 -118 -262.333 -217.333 -415 -298c-170.667 -90.667 -316 -136 -436 -136c-90.667 0 -171.667 21 -243 63
c-75.333 44.667 -129 107.667 -161 189c-20 50.667 -30 102.334 -30 155.001c0 65.333 15.667 124.5 47 177.5s75.666 94.167 132.999 123.5c50 25.333 102.667 38 158 38c70.667 0 131.667 -19 183 -57c54 -40 86.667 -94.333 98 -163c2.66699 -16 4 -34 4 -54
c0 -96 -38.333 -166.333 -115 -211l-2 3c66.667 46 100 112.333 100 199c0 18 -1.66699 37 -5 57c-11.333 68 -39.833 122 -85.5 162s-102.834 60 -171.501 60c-55.333 0 -108.333 -13.5 -159 -40.5s-90.667 -63 -120 -108s-44 -95.5 -44 -151.5
c0 -62.667 15.833 -124.667 47.5 -186s73.167 -108.666 124.5 -141.999c48.667 -31.333 115.334 -56 200.001 -74c31.333 -6.66699 62.666 -10 93.999 -10c91.333 0 201.666 30 330.999 90c75.333 35.333 158.666 87.666 249.999 156.999c42 32 109.333 88 202 168
c11.333 9.33301 51.333 46.333 120 111l406 386c-28 0.666992 -49.333 2 -64 4c-24 3.33301 -68 21 -132 53c-60 30 -104 45 -132 45c-17.333 0 -31.333 -5.33301 -42 -16s-16 -24.667 -16 -42c0 -20 7 -37 21 -51l38 -29c15.333 -13.333 23 -25.666 23 -36.999
c0 -10 -4 -18.5 -12 -25.5s-17.333 -10.5 -28 -10.5c-21.333 0 -39.666 15 -54.999 45c-12.667 25.333 -19 50 -19 74c0 18.667 5.33301 37.334 16 56.001c23.333 40 61 60 113 60c30.667 0 66.334 -5.33301 107.001 -16l104 -30c50.667 -14.667 85.667 -22 105 -22
c15.333 0 35 7.33301 59 22c4 2.66699 11.667 7.33398 23 14.001c48.667 40.667 96.334 75 143.001 103c144 86.667 280.667 130 410 130c65.333 0 128 -13.333 188 -40c70.667 -31.333 123.334 -62 158.001 -92c43.333 -37.333 77.5 -84.833 102.5 -142.5
s37.5 -115.834 37.5 -174.501c0 -63.333 -14.667 -124 -44 -182c-47.333 -94 -113.666 -170.667 -198.999 -230c-90.667 -63.333 -186.334 -95 -287.001 -95c-68.667 0 -131.667 9.33301 -189 28c-82 26.667 -146 76.667 -192 150c-26 42 -39.667 82.333 -41 121
c-2 84 25.667 149.333 83 196c52.667 43.333 122 65 208 65c50 0 98.333 -8 145 -24l-8 -4c-37.333 13.333 -77.333 20 -120 20c-82 0 -150.333 -21.333 -205 -64c-60.667 -47.333 -88.667 -111 -84 -191c2 -32 13.667 -66 35 -102c16.667 -28 34 -49.667 52 -65
c42.667 -36.667 95.334 -65.334 158.001 -86.001c59.333 -20.667 118.333 -31 177 -31c96 0 184.667 29.333 266 88c74.667 54 135 126.333 181 217c28 54.667 42 112.667 42 174c0 57.333 -12.667 115.5 -38 174.5s-59 107.167 -101 144.5c-35.333 31.333 -86 62 -152 92
c-58.667 26.667 -120.667 40 -186 40c-123.333 0 -261.333 -47.667 -414 -143c-44.667 -28 -84.667 -58.667 -120 -92c-8.66699 -9.33301 -24.667 -25 -48 -47l-67 -61l-342 -322c-8.66699 -7.33301 -25 -22.333 -49 -45c41.333 -4.66699 90.333 -42 147 -112
c16.667 -20.667 34 -46.667 52 -78s35 -58.333 51 -81l104 -149c35.333 -48 71.666 -82.333 108.999 -103c29.333 -16 60.666 -24 93.999 -24c26.667 0 51.667 6.66699 75 20c27.333 15.333 41 35.666 41 60.999c0 8.66699 -4 16.667 -12 24
c-14.667 12.667 -22 26.334 -22 41.001c0 25.333 16 38 48 38c16 0 29 -6 39 -18s15 -26.333 15 -43c0 -42 -19.333 -76.667 -58 -104c-34 -24 -73 -36 -117 -36h-2c-32 0 -64.333 6.66699 -97 20c213.333 -146 444.666 -219 693.999 -219c186 0 354.333 40.667 505 122
c154.667 83.333 278.334 203.666 371.001 360.999c97.333 165.333 146 339.333 146 522c0 151.333 -34.833 287.333 -104.5 408s-170.5 217.667 -302.5 291c-184.667 102.667 -405 154 -661 154c-269.333 0 -512.333 -54 -729 -162
c-136.667 -68 -246.334 -139.333 -329.001 -214c-78 -70 -162 -170.667 -252 -302c-49.333 -72 -93.666 -152.667 -132.999 -242c26 74.667 65.333 154 118 238c84 134.667 162.667 237.334 236 308.001c172 166.667 397 279.667 675 339c138 29.333 277.667 44 419 44
c274 0 499.333 -49 676 -147c134.667 -74.667 238.334 -172 311 -292c72.667 -120 109 -256.333 109 -409z" />
    <glyph glyph-name="bracketleft" unicode="[" horiz-adv-x="358" 
d="M394 695l-1.99902 -4.00293c-51.333 -3.33301 -85 -21.666 -101 -54.999c-8 -16.667 -15.667 -37.667 -23 -63l-19 -65l-76 -246l-100 -318c-6 -19.333 -9 -33.666 -9 -42.999c0 -26.667 23.667 -42 71 -46l-3 -7h-146c-4 0 -6 3 -6 9
c0 4.66699 40.667 135.334 122 392.001l123 388c2.66699 8.66699 7.66699 23.667 15 45c3.33301 8.66699 8.66602 13 15.999 13h138z" />
    <glyph glyph-name="backslash" unicode="\" horiz-adv-x="287" 
d="M233 -63l-14 -9.99902c-4.66699 59.333 -8.33398 114.333 -11.001 165c-6 98 -12.333 277.667 -19 539l11 19l22 -525c0.666992 -16.667 4.33398 -79.334 11.001 -188.001z" />
    <glyph glyph-name="bracketright" unicode="]" horiz-adv-x="316" 
d="M350 690c0 -2 -3.66797 -12.335 -11.001 -31.002c-8 -20.667 -12.333 -32.334 -13 -35.001l-212 -696c-1.33301 -3.33301 -6.66602 -21.666 -15.999 -54.999c-2 -6 -5.66699 -13 -11 -21c-3.33301 -3.33301 -11 -5 -23 -5c-24 -0.666992 -66 -0.666992 -126 0l1 3
c44 2.66699 75.333 16.334 94 41.001c5.33301 6.66699 11.333 20.667 18 42l34 109l97 309c54.667 177.333 82 276 82 296c0 16.667 -8 28.334 -24 35.001c-6.66699 2 -22 4.66699 -46 8l6 6h145c3.33301 -0.666992 5 -2.66699 5 -6z" />
    <glyph glyph-name="asciicircum" unicode="^" horiz-adv-x="474" 
d="M525 288l-23.999 0.00195312c-15.333 -28 -35 -49.333 -59 -64c-26.667 -16.667 -54.667 -22.334 -84 -17.001c-33.333 6 -61.333 22.5 -84 49.5s-34 57.5 -34 91.5c0 35.333 10.167 66.5 30.5 93.5s47.5 40.5 81.5 40.5c2.66699 0 4 -1.33301 4 -4
c0 -2 -1.33301 -3 -4 -3c-32 0 -57.667 -13.667 -77 -41c-17.333 -24 -26 -52.667 -26 -86s13.5 -62.666 40.5 -87.999s57.5 -38 91.5 -38c39.333 0 74.666 23.333 105.999 70l-205 314l-210 -315h-87l14 21c-24 12.667 -36 36 -36 70c0 33.333 8.66699 64.666 26 93.999
c10.667 18 30.667 43.667 60 77c50.667 57.333 109.667 90 177 98l29 44h1l27 -44c55.333 -6 107.333 -34.667 156 -86c54.667 -58 82 -123.333 82 -196c0 -20.667 -3.33301 -40.334 -10 -59.001zM510.001 369.002c0 68.667 -26.667 131.333 -80 188
c-44.667 47.333 -91 75 -139 83l58 -91l153 -226c5.33301 14.667 8 30 8 46zM218.001 640.001c-61.333 -9.33301 -115.333 -40.668 -162 -94.001c-27.333 -31.333 -46.333 -56 -57 -74c-17.333 -29.333 -26 -59.333 -26 -90c0 -31.333 10.667 -51.666 32 -60.999z" />
    <glyph glyph-name="underscore" unicode="_" horiz-adv-x="429" 
d="M451 -94c0 -2 -5.99902 -8 -17.999 -18c-18 -10.667 -35.333 -16 -52 -16c-4.66699 0 -19.667 1 -45 3c-16.667 1.33301 -46.334 6.33301 -89.001 15c-37.333 7.33301 -67.333 11 -90 11c-40.667 -0.666992 -68 -1.66699 -82 -3c-24 -2.66699 -49 -9 -75 -19
c-2 -0.666992 -3.33301 -0.333984 -4 0.999023s0 2.33301 2 3c50 20.667 104.333 32 163 34c17.333 0.666992 40 -0.333008 68 -3c10.667 -0.666992 44.334 -6 101.001 -16c52.667 -8.66699 90 -4.66699 112 12c3.33301 2.66699 5.66602 2.83398 6.99902 0.500977
s2 -3.83301 2 -4.5z" />
    <glyph glyph-name="grave" unicode="`" horiz-adv-x="352" 
d="M388 502l-5 -5l-21 22l-59 59c-14 14 -21 24.333 -21 31c0 7.33301 3 14.333 9 21s12.667 10 20 10c18.667 0 31.667 -11 39 -33l36 -111z" />
    <glyph glyph-name="a" unicode="a" horiz-adv-x="401" 
d="M584 101c0 -34.667 -13.1689 -64.8359 -39.502 -90.5029s-56.5 -38.5 -90.5 -38.5c-5.33301 0 -11 0.333008 -17 1l-12 -6c6 -1.33301 12 -2 18 -2c36.667 0 68.5 13.667 95.5 41s39.833 59.333 38.5 96c-1.33301 35.333 -11.166 63.833 -29.499 85.5
s-44.5 32.5 -78.5 32.5c-17.333 0 -31.333 -3 -42 -9c-33.333 -19.333 -68 -53 -104 -101c-54 -72 -95 -108 -123 -108c-12 0 -18 7 -18 21c0 12.667 3.33301 31.334 10 56.001c3.33301 13.333 13.333 44.333 30 93c-39.333 -60 -67 -99 -83 -117
c-32 -36 -64 -53.667 -96 -53c-34 0.666992 -51 18.334 -51 53.001c0 44.667 18.667 98.334 56 161.001c-84 -98.667 -166.667 -148 -248 -148c-42.667 0 -76.667 19.333 -102 58c-22 34 -33 73.333 -33 118c0 50.667 14.333 99 43 145s65.667 82 111 108
c37.333 21.333 77.333 32 120 32c61.333 0 105.333 -23 132 -69c8.66699 -14.667 13 -30.667 13 -48c0 -18.667 -5 -36.667 -15 -54c-10.667 -19.333 -24.334 -32 -41.001 -38c14.667 8 26.5 21.333 35.5 40s13.5 37 13.5 55c0 16 -3.66699 30.333 -11 43
c-25.333 43.333 -68.666 65 -129.999 65c-46 0 -88.5 -12.333 -127.5 -37s-70.833 -57.667 -95.5 -99c-27.333 -46 -41 -93.667 -41 -143c0 -43.333 10 -81.666 30 -114.999c23.333 -38.667 55.333 -58 96 -58c46 0 99 22.667 159 68c47.333 35.333 87 75 119 119
c83.333 113.333 152.666 170 207.999 170c12.667 0 25.334 -7.33301 38.001 -22l17 17l53 2c-24 -48.667 -52.667 -113.334 -86 -194.001c-41.333 -99.333 -62 -158 -62 -176c0 -7.33301 3.33301 -11 10 -11c8.66699 0 28.667 20 60 60c2.66699 4 8 11 16 21
c20 23.333 34 39 42 47c16.667 17.333 32.834 30.5 48.501 39.5s33.834 13.5 54.501 13.5c14 0 27 -2.33301 39 -7c47.333 -18.667 70.666 -57.667 69.999 -117zM301.998 392.998c0 18 -8.33301 27 -25 27c-27.333 0 -64.666 -37 -111.999 -111
c-34.667 -54.667 -61.667 -105 -81 -151c-17.333 -41.333 -26 -74.333 -26 -99c0 -21.333 8 -32 24 -32c35.333 0 81.666 52.667 138.999 158c54 98.667 81 168 81 208z" />
    <glyph glyph-name="b" unicode="b" horiz-adv-x="368" 
d="M494 472c-52 -64 -96.668 -112.334 -134.001 -145.001c-8.66699 -51.333 -32.5 -106.666 -71.5 -165.999s-80.5 -103.333 -124.5 -132c-29.333 -19.333 -60.333 -29 -93 -29c-30 0 -47.333 22.667 -52 68c-18 -45.333 -63.667 -89.666 -137 -132.999
c-56.667 -33.333 -106.667 -57.333 -150 -72c-54 -18 -109 -26 -165 -24c-131.333 5.33301 -217.666 51.666 -258.999 138.999c-16.667 35.333 -25 65.333 -25 90c0 8 0.666992 15.333 2 22c0 -37.333 9 -73.666 27 -108.999c43.333 -86 129 -131.333 257 -136
c78 -3.33301 155.667 13.667 233 51c82 38.667 141.667 90.334 179 155.001c22 37.333 47.667 88.333 77 153c-45.333 7.33301 -80.166 25.5 -104.499 54.5s-36.5 66.167 -36.5 111.5c0 31.333 6 61.333 18 90c32 78 78.333 134.333 139 169c39.333 22.667 81 34 125 34
c12.667 0 26 -0.666992 40 -2c5.33301 -1.33301 10.666 -2 15.999 -2c16.667 -0.666992 31.667 0.666016 45 3.99902c-8.66699 -44 -21.667 -85 -39 -123l-39 -90c-20.667 -49.333 -31 -77 -31 -83c0 -4 2.66699 -5.33301 8 -4c31.333 44.667 67.333 67 108 67
c18 0 33.333 -10.333 46 -31c6.66699 -10.667 10 -24.334 10 -41.001c0 -7.33301 -0.666992 -15.333 -2 -24zM306.999 383.999c0 21.333 -9 31.999 -27 31.999c-26 0 -56.667 -27.333 -92 -82c-22.667 -35.333 -42.667 -73.666 -60 -114.999c48 10 99.333 31.333 154 64
c16.667 43.333 25 77 25 101zM232.999 638.998c0 10.667 -7.66699 16.668 -23 18.001c-52.667 -0.666992 -96 -11.667 -130 -33c-52 -32.667 -92.667 -84.334 -122 -155.001c-13.333 -32 -20 -66.667 -20 -104c0 -40 11 -73.333 33 -100s52.667 -43.667 92 -51l22 49
c8 17.333 53.667 129.333 137 336c7.33301 18 11 31.333 11 40zM279.999 276.999c-51.333 -31.333 -102.665 -52.667 -153.998 -64c-6.66699 -14.667 -12.334 -27.667 -17.001 -39c-25.333 -64 -38 -106.333 -38 -127c0 -25.333 9 -38 27 -38
c19.333 0 42.666 18.333 69.999 55c42 56 79.333 127 112 213z" />
    <glyph glyph-name="c" unicode="c" horiz-adv-x="310" 
d="M603 318c0 -68 -32.666 -120.998 -97.999 -158.998c-28.667 -16.667 -59.667 -25 -93 -25c-64.667 0 -111.334 24.667 -140.001 74c-2.66699 6 -5 16.667 -7 32c3.33301 -11.333 7.33301 -21 12 -29c28.667 -48 75.334 -72 140.001 -72c30.667 0 58.667 7.33301 84 22
c64.667 37.333 97 89.333 97 156c0 64 -28.667 110.333 -86 139c-30.667 15.333 -63.667 23 -99 23c-10.667 0 -21.667 -1 -33 -3c-63.333 -11.333 -113.666 -30 -150.999 -56c12.667 4.66699 25.334 7 38.001 7c13.333 0 25.5 -3.33301 36.5 -10s16.5 -16.334 16.5 -29.001
c0 -22 -8.66699 -33 -26 -33c-15.333 0 -23 7.66699 -23 23v10c0.666992 4.66699 1 8 1 10c0 14.667 -6.33301 22 -19 22c-6.66699 0 -16 -4 -28 -12c-32 -21.333 -64.667 -74.666 -98 -159.999c-31.333 -80.667 -47 -143.667 -47 -189c0 -28.667 8.66699 -43 26 -43
s39 14 65 42c22.667 24.667 39.334 48 50.001 70l6 -4c-15.333 -29.333 -34 -55.333 -56 -78c-28 -29.333 -54.667 -44 -80 -44c-22 0 -39.667 7.83301 -53 23.5s-20 34.834 -20 57.501c0 60 24.333 129 73 207c-27.333 -30 -52.333 -51.667 -75 -65
c-39.333 -23.333 -81 -35 -125 -35c-57.333 0 -99 20.333 -125 61c-18 28 -27 61.667 -27 101c0 31.333 9.33301 58.666 28 81.999c20.667 26 46 39 76 39c8.66699 0 15.667 -0.666992 21 -2c40.667 -10 61 -35.333 61 -76c0 -32 -19.667 -53.667 -59 -65
c36 13.333 54 35 54 65c0 9.33301 -1.33301 17.666 -4 24.999c-10.667 31.333 -34.334 47 -71.001 47c-28.667 0 -52.667 -12.333 -72 -37s-29 -51.667 -29 -81c0 -46 12.833 -82.5 38.5 -109.5s61.5 -40.5 107.5 -40.5c51.333 0 94.666 13.667 129.999 41
c23.333 17.333 55.666 46.666 96.999 87.999c24 31.333 55 60 93 86c4.66699 3.33301 14 9 28 17c42 24 90 41 144 51c11.333 2 22 3 32 3c37.333 0 71.666 -8.33301 102.999 -25c34 -18.667 58 -44 72 -76c9.33301 -21.333 14 -43.333 14 -66z" />
    <glyph glyph-name="d" unicode="d" horiz-adv-x="434" 
d="M704 319c0 -40.667 -7.66797 -84.668 -23.001 -132.001c-36 -110.667 -89.667 -187 -161 -229c-60.667 -36 -115 -54 -163 -54c-72 0 -122 17 -150 51c-13.333 16 -21.666 31 -24.999 45c-5.33301 21.333 -4.66602 44.666 2.00098 69.999l21 79
c-67.333 -99.333 -122.333 -149 -165 -149c-32.667 0 -49 21.333 -49 64c0 11.333 1.33301 23.333 4 36c-25.333 8.66699 -45 28.334 -59 59.001c-11.333 26 -17 54.333 -17 85c0 28.667 4.66699 61.667 14 99c22.667 90.667 77 168 163 232
c75.333 56 150.666 85 225.999 87c31.333 0.666992 52.333 0.333984 63 -0.999023l96 1l-29 -73c94.667 1.33301 162.667 -32.667 204 -102c32 -53.333 48 -109.333 48 -168zM691.999 326.999c0 60 -13.332 112.335 -39.999 157.002c-40 67.333 -107.333 100.333 -202 99
l-120 -298l-52 -127c-26 -64 -39 -99.667 -39 -107c0 -6.66699 3 -10 9 -10c11.333 0 38.666 27.667 81.999 83l3 -2c-17.333 -24.667 -39 -49.334 -65 -74.001c-32.667 -31.333 -57.334 -47 -74.001 -47c-2.66699 0 -3.33398 -1.33301 -2.00098 -4
c6.66699 -14.667 14 -26.667 22 -36c24.667 -28.667 65.334 -45.334 122.001 -50.001c50.667 -4 109.334 14.333 176.001 55c76.667 46.667 130 122.667 160 228c13.333 46.667 20 91 20 133zM407 640.001c0 6.66699 -6.67188 11.668 -20.0049 15.001
c-11.333 1.33301 -33.666 1.66602 -66.999 0.999023c-76.667 -2 -152.667 -31.333 -228 -88c-81.333 -61.333 -131.666 -136.333 -150.999 -225c-10 -45.333 -15 -81 -15 -107c0 -28.667 5 -54.334 15 -77.001c12.667 -27.333 31 -45 55 -53
c6.66699 29.333 20.334 63 41.001 101c28 50.667 60.667 96.334 98 137.001c50.667 54.667 95.334 82 134.001 82c14.667 0 29.334 -8 44.001 -24l54 130c26.667 65.333 40 101.333 40 108zM293.995 375.002c0 30 -11.665 44.999 -34.998 44.999
c-28.667 0 -76.334 -63.333 -143.001 -190c-45.333 -86.667 -68 -145.667 -68 -177c0 -21.333 7.66699 -32 23 -32c13.333 0 34.333 15.333 63 46c20.667 22.667 38 44.334 52 65.001c23.333 34 45.666 73 66.999 117c27.333 56 41 98 41 126z" />
    <glyph glyph-name="e" unicode="e" horiz-adv-x="311" 
d="M361 329c0 -63.333 -34.001 -116.669 -102.001 -160.002c-4 -16 -11 -33.667 -21 -53c-40.667 -76 -91 -114 -151 -114c-50 0 -75 29.333 -75 88c0 8.66699 0.666992 17.334 2 26.001c-13.333 -28 -33 -51.667 -59 -71c-28 -21.333 -56.333 -32 -85 -32
c-9.33301 0 -18.333 1 -27 3l8 5c8 -2 16 -3 24 -3c33.333 0 64.5 15.833 93.5 47.5s47.5 63.5 55.5 95.5l1 4c-37.333 -2 -67.666 8.33301 -90.999 31s-35 52.667 -35 90c0 58 33.667 107 101 147c58.667 34.667 119 52 181 52c73.333 0 125 -24.667 155 -74
c16.667 -27.333 25 -54.666 25 -81.999zM274.999 385.997c0 23.333 -9.66699 35.001 -29 35.001c-28 0 -59.667 -35.333 -95 -106c28 1.33301 52 -7.33398 72 -26.001c34.667 38 52 70.333 52 97zM353.999 332.998c0 26 -7.33398 51.333 -22.001 76
c-28.667 47.333 -79.667 71 -153 71c-60 0 -117.667 -16 -173 -48c-64 -38 -96 -85 -96 -141c0 -34.667 11 -63.167 33 -85.5s50.333 -33.5 85 -33.5c13.333 38.667 32.333 76.334 57 113.001c-7.33301 -4.66699 -19 -14.334 -35 -29.001c14 18 27.667 31 41 39
c60.667 88 115.334 132 164.001 132c34.667 0 52 -17.333 52 -52c0 -30.667 -23.667 -64.667 -71 -102c17.333 -24 26 -49.333 26 -76c0 -7.33301 -0.666992 -14.333 -2 -21c62.667 46 94 98.333 94 157zM218.998 284.998c-19.333 18 -42.668 26.333 -70.001 25
c-19.333 -40 -34.666 -79 -45.999 -117c38 19.333 76.667 50 116 92zM254.996 198.998c0 24.667 -8.00098 47.999 -24.001 69.999c-27.333 -25.333 -69 -52 -125 -80c-19.333 -39.333 -29 -76.333 -29 -111c0 -36 13.333 -54 40 -54c20.667 0 43.334 11.667 68.001 35
c20.667 19.333 37 40.333 49 63c8.66699 16 13.667 30 15 42c-4 -4 -15.667 -8.66699 -35 -14c6 2.66699 15.667 7.33398 29 14.001c1.33301 1.33301 4.33301 3.33301 9 6c2 10 3 19.667 3 29zM24.9951 164.997z" />
    <glyph glyph-name="f" unicode="f" horiz-adv-x="328" 
d="M658 502c0 -94.667 -43.668 -176.669 -131.001 -246.002c-22.667 -18 -48.334 -34.667 -77.001 -50c-55.333 -30 -110.333 -45.667 -165 -47c-48.667 -1.33301 -94 7.33398 -136 26.001c-58 -165.333 -114.333 -269.333 -169 -312c-24 -18.667 -49.333 -28 -76 -28
c-10 0 -19.167 2.83301 -27.5 8.5s-12.5 13.5 -12.5 23.5c0 16 9 24 27 24c6.66699 0 16.334 -5 29.001 -15s22 -15 28 -15c8 0 15.667 3 23 9c28.667 24 70.667 135 126 333c-31.333 22.667 -56.5 52.167 -75.5 88.5s-28.5 73.833 -28.5 112.5
c0 82.667 39.333 146.667 118 192c2.66699 1.33301 5 1.33301 7 0c-74 -51.333 -111 -114 -111 -188c0 -40.667 12 -82 36 -124c12.667 -22.667 32.667 -43 60 -61l29 101c-13.333 20 -21.333 41.667 -24 65h-28c2 4.66699 4.66699 11.334 8 20.001h20
c4.66699 42 21 69 49 81c-25.333 -14.667 -40 -41.667 -44 -81l42 -2c4.66699 15.333 12.334 37.333 23.001 66c8.66699 23.333 25 65 49 125c16.667 38 45 70.167 85 96.5s80.667 39.5 122 39.5c63.333 0 116.5 -24.167 159.5 -72.5s64.5 -104.833 64.5 -169.5z
M642.999 498.998c0 62.667 -19.998 117.004 -59.998 163.004c-42 48 -94 72 -156 72c-23.333 0 -45.333 -3.66699 -66 -11c-54 -19.333 -93.667 -56.333 -119 -111l-6 -13c24 32 56 52.667 96 62c11.333 2.66699 20 4 26 4c9.33301 0 18.666 -2.5 27.999 -7.5
s14 -11.833 14 -20.5c0 -16 -7.66699 -24 -23 -24c-6.66699 0 -15 4.83301 -25 14.5s-19 14.5 -27 14.5c-21.333 0 -43.666 -33 -66.999 -99c-4.66699 -12.667 -16.667 -54.334 -36 -125.001c36.667 -1.33301 63.667 4.66699 81 18c6.66699 5.33301 15.667 18.333 27 39
c8 15.333 19.333 23.333 34 24c19.333 1.33301 34.666 -6.33398 45.999 -23.001c10 -14 15 -31 15 -51c0 -31.333 -9 -61.333 -27 -90c-28 -44.667 -70.667 -67 -128 -67c-30 0 -59 7 -87 21l-13 -43l-14 -40c54 -20.667 104.667 -30.334 152 -29.001
c57.333 1.33301 111.166 16 161.499 44s91.5 66.333 123.5 115c33.333 51.333 50 105.666 50 162.999zM413.001 408.002c0 21.333 -3.66797 40 -11.001 56c-10 22 -24.333 32 -43 30c-11.333 -1.33301 -19 -10 -23 -26c-4.66699 -20 -12 -34.333 -22 -43
c-17.333 -15.333 -49.333 -23 -96 -23c-7.33301 -27.333 -17.666 -61 -30.999 -101c30 -13.333 60.667 -20 92 -20c56.667 0 96 20.667 118 62c10.667 20 16 41.667 16 65zM151 399.002c-11.333 0.666992 -24 1 -38 1c2.66699 -20 10 -38.667 22 -56z" />
    <glyph glyph-name="g" unicode="g" horiz-adv-x="372" 
d="M449 268c0 -36 -10.665 -72.167 -31.998 -108.5s-47.666 -63.5 -78.999 -81.5c-34.667 -20 -69.334 -32 -104.001 -36c36.667 -14 67.5 -36.333 92.5 -67s37.5 -64.667 37.5 -102c0 -34.667 -9.83301 -68.834 -29.5 -102.501s-44.834 -59.167 -75.501 -76.5
c-68.667 -39.333 -139.667 -59 -213 -59c-29.333 0 -57.333 3.33301 -84 10c-102.667 25.333 -167 76.333 -193 153c-9.33301 27.333 -14 55 -14 83c0 84 36.333 146 109 186c38.667 21.333 76.667 32 114 32c14 0 28.333 -1.66699 43 -5c-8.66699 1.33301 -18 2 -28 2
c-46 0 -87 -10 -123 -30c-65.333 -36.667 -98 -96 -98 -178c0 -28.667 5 -56.667 15 -84c26.667 -72.667 89.667 -121.667 189 -147c28.667 -7.33301 59 -11 91 -11c68 0 130.333 16.333 187 49c29.333 17.333 53.5 42.333 72.5 75s28.5 66 28.5 100
c0 56 -34.333 107.667 -103 155c20.667 -16.667 31 -36.667 31 -60c0 -12 -3.66699 -25.333 -11 -40c-26.667 -53.333 -84.667 -80 -174 -80c-34.667 0 -66.334 5.33301 -95.001 16c-38 14.667 -57 36.667 -57 66c0 30 28 58 84 84l46 22c-30.667 15.333 -46 32.333 -46 51
c0 29.333 26.333 58 79 86c-38.667 28 -58 62 -58 102c0 40.667 16.5 76.334 49.5 107.001s69.833 46 110.5 46c33.333 0 57.333 -11.667 72 -35c8.66699 1.33301 21.5 7.33301 38.5 18s32.167 16.334 45.5 17.001c18 1.33301 27 -6.33398 27 -23.001
c0 -9.33301 -4 -15.333 -12 -18c20.667 -9.33301 37 -25 49 -47s18 -45 18 -69zM254.002 362c0 38 -13.666 57 -40.999 57c-28.667 0 -55.334 -27 -80.001 -81c-21.333 -46.667 -32 -85.334 -32 -116.001c0 -37.333 12 -54.666 36 -51.999
c26.667 2.66699 53.667 29.667 81 81c24 45.333 36 82.333 36 111zM439.003 263c0 47.333 -19.665 83.334 -58.998 108.001c-17.333 10.667 -32 16.667 -44 18c-20.667 2 -36.667 -0.666992 -48 -8c8 -21.333 12.667 -41.666 14 -60.999c2 -42 -13.333 -78.833 -46 -110.5
s-70.334 -47.5 -113.001 -47.5c-2.66699 0 -6.83398 0.833008 -12.501 2.5s-10.167 2.5 -13.5 2.5c-8 0 -18.5 -6.33301 -31.5 -19s-19.5 -23 -19.5 -31c0 -12.667 14.667 -24.334 44 -35.001l59 -16c20 -5.33301 38.667 -12 56 -20c82.667 7.33301 144 44.666 184 111.999
c20 34.667 30 69.667 30 105zM250.005 -61.999c0 26 -30.333 49.3311 -91 69.998c-38 12.667 -61.667 20.334 -71 23.001c-28.667 -12.667 -49 -24 -61 -34c-20.667 -17.333 -31 -37.666 -31 -60.999c0 -28.667 13.333 -50.667 40 -66c22 -12 48.333 -18 79 -18
c32 0 60.333 6 85 18c33.333 16 50 38.667 50 68z" />
    <glyph glyph-name="h" unicode="h" horiz-adv-x="405" 
d="M365 375c0 -19.333 -8.33301 -50.667 -25 -94l-37 -95c-5.33301 -12.667 -14.666 -37 -27.999 -73c-3.33301 -8.66699 -7.66602 -24 -12.999 -46c-1.33301 -9.33301 2.66699 -14.666 12 -15.999c10 -1.33301 31.333 20.667 64 66l2 -2l-1 -2
c-15.333 -24.667 -34 -47.667 -56 -69c-28 -28 -52 -42 -72 -42c-17.333 0 -25.666 8.33301 -24.999 25c0.666992 10.667 8.66699 36.334 24 77.001c7.33301 18 17.666 45 30.999 81c4 11.333 14.667 37.666 32 78.999c14 33.333 23 60.333 27 81c3.33301 10 5 18.333 5 25
c0 12.667 -5.33301 17.334 -16 14.001c-36 -5.33301 -81.667 -53.333 -137 -144c9.33301 1.33301 46 14 110 38c-39.333 -22.667 -77.333 -37.334 -114 -44.001c-26 -42.667 -61.667 -119 -107 -229h-57c-96 -104.667 -214.667 -157 -356 -157
c-72.667 0 -134.334 11 -185.001 33c-36.667 16.667 -66 34 -88 52c-42 34 -74.333 70.667 -97 110c-16 27.333 -24 42 -24 44h1c2 0 11.333 -14.333 28 -43c21.333 -36 52.666 -71 93.999 -105c22 -18 51 -35 87 -51c38.667 -16.667 71 -26.334 97 -29.001
c22 -2 45.333 -3 70 -3c88.667 0 168.834 20.333 240.501 61s129.5 99 173.5 175c14.667 25.333 33.334 71.333 56.001 138c-64.667 3.33301 -107.334 22.666 -128.001 57.999c-16 27.333 -24 57.333 -24 90c0 62 27.667 130.333 83 205c41.333 56 91.333 84 150 84
c8 0 19.667 -1 35 -3s27 -3 35 -3h53c3.33301 0 8.16602 0.333008 14.499 1s11.166 1 14.499 1c-8 -25.333 -45.667 -119 -113 -281c-3.33301 -9.33301 -15.666 -40.666 -36.999 -93.999c0.666992 -1.33301 1 -2.66602 1 -3.99902c2.66699 0 5 1.66699 7 5
c18.667 31.333 41.667 58.666 69 81.999c33.333 29.333 65 44 95 44c19.333 0 29 -13.333 29 -40zM221 605.999c0 8 -1.33398 15.332 -4.00098 21.999c-11.333 20 -28.666 30 -51.999 30s-49.5 -8.33301 -78.5 -25s-50.833 -34.5 -65.5 -53.5s-31 -45.167 -49 -78.5
c-24.667 -46 -37 -88.333 -37 -127c0 -87.333 49.667 -133.666 149 -138.999l29 71c24.667 60 54.667 137.333 90 232c12 32 18 54.667 18 68z" />
    <glyph glyph-name="i" unicode="i" horiz-adv-x="261" 
d="M277 594c0 -21.333 -10.9961 -34.3301 -32.9961 -38.9971c-5.33301 -2 -20.333 -4 -45 -6c-42 -4 -65.333 -21.667 -70 -53c-2.66699 -16.667 4.16602 -32.334 20.499 -47.001s33.166 -22 50.499 -22c15.333 0 23 -8.33301 23 -25
c0 -9.33301 -12.333 -44.666 -37 -105.999l-50 -124c36.667 9.33301 71 25.333 103 48l-30 -23c-6.66699 -4 -14.667 -8.33301 -24 -13c-18.667 -9.33301 -36.334 -16 -53.001 -20l-34 -84c-5.33301 -14 -8 -23.333 -8 -28c0.666992 -8.66699 3.66699 -13 9 -13
c13.333 0 42 29.667 86 89l3 -2c-20.667 -30 -42.334 -56.333 -65.001 -79c-31.333 -30.667 -57 -46 -77 -46c-18.667 0 -28 8.66699 -28 26s14 58.666 42 123.999l3 7c-38.667 8.66699 -56 38.667 -52 90c2 21.333 21.333 51.666 58 90.999c4 4 28 24.333 72 61
c13.333 10.667 27 18.667 41 24c-16.667 2.66699 -32.334 10 -47.001 22c-17.333 13.333 -25 27.666 -23 42.999c2 19.333 15.667 36 41 50c20.667 12 42.334 18.667 65.001 20c-14 8 -21 19 -21 33c0 12 4.16699 22 12.5 30s18.5 12 30.5 12c10.667 0 19.5 -4 26.5 -12
s10.5 -17.333 10.5 -28zM154.004 377.003c0 7.33301 -3.33398 11 -10.001 11c-13.333 0 -37 -18 -71 -54c-20.667 -22 -32.667 -35.333 -36 -40c-13.333 -16.667 -20.333 -32.667 -21 -48c-1.33301 -19.333 1.66699 -36.333 9 -51c8.66699 -18 22 -28.333 40 -31
c18.667 40 36.334 80.333 53.001 121l28 67c5.33301 12.667 8 21 8 25z" />
    <glyph glyph-name="j" unicode="j" horiz-adv-x="254" 
d="M392 479c0 -27.333 -5.99805 -51.666 -17.998 -72.999c-13.333 -24.667 -32.333 -39 -57 -43c-8 -1.33301 -17 -2 -27 -2c-32 0 -55.667 11.667 -71 35c-1.33301 -21.333 -8 -50.666 -20 -87.999l-27 -86l-38 -115c-36.667 -113.333 -89.334 -192.666 -158.001 -237.999
c-3.33301 -2 -8 -5 -14 -9c-36 -21.333 -83.667 -32.666 -143 -33.999c-138.667 -4 -249.334 65.667 -332.001 209c-42.667 74 -64 157.333 -64 250c0 71.333 11.333 134 34 188c30.667 72.667 79 131 145 175l6 4c28 18.667 63.667 28 107 28c74 0 128 -29.667 162 -89
c18.667 -32.667 28 -67.667 28 -105c0 -30.667 -6.33301 -63.334 -19 -98.001c-32 -88 -83 -152 -153 -192l-4 -3c-32 -18 -69.333 -29.667 -112 -35l12 8c58 6.66699 110 31.667 156 75c41.333 39.333 73 88.666 95 147.999c12.667 34.667 19 67.667 19 99
c0 36.667 -8.66699 70 -26 100c-33.333 57.333 -86.666 86 -159.999 86c-38.667 0 -74.334 -9.33301 -107.001 -28c-61.333 -35.333 -109 -93.333 -143 -174c-22.667 -54 -34 -116.667 -34 -188c0 -93.333 21 -176 63 -248c76.667 -132 188 -198.667 334 -200
c35.333 -0.666992 62.333 1.66602 81 6.99902h-9c-9.33301 0 -18.166 2.83301 -26.499 8.5s-11.833 13.167 -10.5 22.5c2 15.333 11.667 23.666 29 24.999c14 0.666992 25.333 -3.33301 34 -12l4 -4c9.33301 -9.33301 17 -14 23 -14c20 0 40.667 29.333 62 88
c42.667 116 85 240 127 372c2 6 3 15.333 3 28c0 8 -4 12 -12 12c-14 0 -34.667 -20 -62 -60c-4 -8 -10 -19.333 -18 -34l-9 7c57.333 96.667 107.666 145 150.999 145c10 0 18.333 -6.33301 25 -19l4 -8c12.667 -24 35 -36 67 -36c6.66699 0 15.667 1 27 3
c42.667 7.33301 64 41 64 101c0 32 -6.66699 59.333 -20 82c-16 26.667 -39 41 -69 43c-20 1.33301 -34 1.33301 -42 0c-4 -1.33301 -8.66699 -2 -14 -2c-11.333 0 -20.5 3.83301 -27.5 11.5s-10.5 17.167 -10.5 28.5s4 21.166 12 29.499s17.667 12.5 29 12.5
c10.667 0 20.167 -4.5 28.5 -13.5s12.5 -18.833 12.5 -29.5s-4.33301 -19.667 -13 -27c13.333 2.66699 26 3.33398 38 2.00098c28.667 -2.66699 51 -17.667 67 -45c14 -23.333 21 -50.333 21 -81z" />
    <glyph glyph-name="k" unicode="k" horiz-adv-x="391" 
d="M1105 52c0 -60 -14.6699 -121.003 -44.0029 -183.003c-27.333 -58 -64 -109 -110 -153c-64 -62 -146 -100.667 -246 -116c-34 -5.33301 -66 -8 -96 -8c-131.333 0 -236 38.667 -314 116c-36.667 36.667 -64 72.334 -82 107.001c-22.667 44 -46 112 -70 204
c-6.66699 25.333 -20.334 67.333 -41.001 126c-14.667 -33.333 -34.667 -82 -60 -146c-5.33301 0.666992 -16.333 1.33398 -33 2.00098c-12 0.666992 -22.333 0.333984 -31 -0.999023l37 82c56 126 121.667 290 197 492c3.33301 8 5.66602 17 6.99902 27
c4.66699 26.667 -6.33301 41.667 -33 45c-2.66699 0.666992 -7.66699 1.33398 -15 2.00098l1 3c18 -0.666992 35.333 -0.333984 52 0.999023c6.66699 -0.666992 17.334 0 32.001 2c40.667 11.333 61 45.333 61 102c0 65.333 -29 119 -87 161
c-52.667 38.667 -112.667 58 -180 58c-81.333 0 -151.666 -33 -210.999 -99c-56 -62.667 -87.333 -135.334 -94 -218.001c-1.33301 -17.333 -2 -30 -2 -38c0 -120.667 48.667 -217.667 146 -291c59.333 -44.667 113.333 -66.667 162 -66c-56 2.66699 -114.333 24 -175 64
s-100.667 85.333 -120 136c-17.333 46 -26 94.667 -26 146c0 21.333 0.333008 36.333 1 45c6 83.333 40 158 102 224c64 68.667 137 103 219 103c68 0 129 -20 183 -60c58.667 -44 88 -99 88 -165c0 -37.333 -6 -69.666 -18 -96.999h1
c-3.33301 -10 -8.66602 -24.333 -15.999 -43l-116 -292c58 65.333 110.333 98 157 98c13.333 0 24.833 -4.33301 34.5 -13s14.5 -19.667 14.5 -33c0 -39.333 -46 -93.333 -138 -162c-16.667 -12 -45.334 -30.667 -86.001 -56c3.33301 -10.667 15 -52.334 35 -125.001
l39 -141c20.667 -67.333 40.334 -108.333 59.001 -123c12.667 -10 26.334 -15 41.001 -15c23.333 0 40 9.66699 50 29c0.666992 0.666992 2.66699 14.667 6 42c2 17.333 10.333 26 25 26c16 0 24 -8.33301 24 -25c0 -12.667 -6.33301 -27.334 -19 -44.001
c-20 -26.667 -49 -40 -87 -40c-24.667 0 -46.334 6 -65.001 18l3 -4c12 -15.333 24.333 -29.333 37 -42c76 -77.333 172.333 -116 289 -116c36.667 0 75.334 3.33301 116.001 10c166 26.667 282 114.334 348 263.001c24.667 56.667 37 112.667 37 168
c0 89.333 -32 161 -96 215c-36 30.667 -72.167 51.667 -108.5 63s-79.166 16 -128.499 14c-37.333 -1.33301 -71.333 -7.66602 -102 -18.999l11 8c42.667 16 77.667 24.667 105 26c49.333 2 91.5 -2.83301 126.5 -14.5s71.167 -33.5 108.5 -65.5
c63.333 -54 95 -125.333 95 -214zM328.997 340.997c0 14 -5 25.667 -15 35s-22 14 -36 14c-20 0 -43.667 -13.333 -71 -40c-22.667 -22 -38 -42.667 -46 -62c-6 -14 -15 -36.333 -27 -67l20 -55c116.667 66.667 175 125 175 175z" />
    <glyph glyph-name="l" unicode="l" horiz-adv-x="256" 
d="M1171 165c0 -53.333 -17.0029 -123.997 -51.0029 -211.997c-25.333 -65.333 -67.666 -129 -126.999 -191c-52 -54.667 -102.667 -95.834 -152 -123.501s-111 -49.834 -185 -66.501c-61.333 -14 -118 -21 -170 -21c-105.333 0 -199.666 26 -282.999 78
c-87.333 54 -149.666 128.667 -186.999 224c-16 40.667 -24 84.667 -24 132c0 42 8 82.667 24 122l200 489c6 14.667 9.66699 26 11 34c2 10 -3.33301 16.667 -16 20c-8 2.66699 -17.667 3.33398 -29 2.00098l2 7h27c3.33301 0 12 4 26 12
c41.333 23.333 60.333 64.666 57 123.999c-4 62 -30.667 115.667 -80 161c-57.333 52.667 -133 79 -227 79c-32.667 0 -67.667 -3.66699 -105 -11c-93.333 -18 -185 -59.667 -275 -125c-96 -70 -159.667 -146.333 -191 -229c25.333 82 88.333 159.333 189 232
c127.333 92 253 138 377 138c90 0 167.333 -22 232 -66c74 -50 111 -118 111 -204c0 -40 -6.66699 -76.333 -20 -109l-54 -132l-99 -244l-80 -200c-8.66699 -22 -13 -34.333 -13 -37c0 -7.33301 3.66699 -11 11 -11c22 0 57 39 105 117l2 -2
c-23.333 -36 -41 -61.667 -53 -77c-39.333 -49.333 -75 -74 -107 -74c-4.66699 0 -8 1.33301 -10 4c-1.33301 -54.667 6.66699 -104 24 -148c35.333 -90 94.666 -161.333 177.999 -214c80 -50.667 169.667 -76 269 -76c56 0 117.333 8.33301 184 25
c69.333 16.667 127.333 38.167 174 64.5s93.334 63.5 140.001 111.5c56 57.333 97.667 119.333 125 186c38.667 94.667 58 169.334 58 224.001c0 47.333 -12.667 95 -38 143s-57.333 86.667 -96 116c-35.333 26 -80 44.667 -134 56c54.667 -11.333 100 -29.833 136 -55.5
s68.333 -62.834 97 -111.501c31.333 -52.667 47 -106.334 47 -161.001z" />
    <glyph glyph-name="m" unicode="m" horiz-adv-x="617" 
d="M1270 2c-8.66699 -14 -25.3301 -37.3291 -49.9971 -69.9961c-48 -56 -120.667 -119.667 -218 -191c-116 -84.667 -213 -132.667 -291 -144c-15.333 -2 -30.333 -3 -45 -3c-86 0 -150.667 37.333 -194 112c-21.333 36.667 -32 81.334 -32 134.001
c0 46 7.33301 92.667 22 140c7.33301 24 24.333 67.667 51 131c-44 -60.667 -81.333 -96.667 -112 -108c-5.33301 -2 -13.666 -3 -24.999 -3c-12 0 -22.333 3 -31 9c-10.667 6.66699 -16 15.667 -16 27c0 21.333 8 32 24 32c14.667 0 22 -7.66699 22 -23
c0 -2 -0.666992 -6.66699 -2 -14c-4 -16.667 1 -25 15 -25c30 0 64.667 52.333 104 157c32 85.333 48 147 48 185c0 27.333 -7.33301 41 -22 41c-19.333 0 -37.333 -9 -54 -27c-76 -82.667 -153 -201.667 -231 -357h-56c25.333 51.333 53.333 114.666 84 189.999
c37.333 92.667 56 150.667 56 174c0 15.333 -4 24 -12 26c-26 5.33301 -75 -48 -147 -160c-34.667 -54 -64.334 -107 -89.001 -159l-33 -74c-5.33301 2 -12.333 3 -21 3h-32c-58.667 -10 -133.334 -11 -224.001 -3c-96 8.66699 -144 38 -144 88c0 24 11.667 50.333 35 79
c20 24 42 43 66 57s37 21 39 21v0c-5.33301 -4.66699 -18.333 -13 -39 -25c-24 -13.333 -45 -32.333 -63 -57c-21.333 -27.333 -32 -53 -32 -77c0 -44.667 46.667 -71.334 140 -80.001c87.333 -8 162.333 -6.66699 225 4l52 140l42 105c24 60 36 94 36 102
c0 7.33301 -2.66699 11.666 -8 12.999c-13.333 4 -31.333 -11.667 -54 -47c-10.667 -16.667 -23 -37.667 -37 -63l-1 1c36.667 93.333 76.334 141.666 119.001 144.999c8 0.666992 14.5 -2 19.5 -8s7.16699 -13 6.5 -21c-1.33301 -29.333 -16 -78.333 -44 -147
c-3.33301 -8.66699 -0.333008 -13 9 -13c3.33301 0 6.66602 2 9.99902 6c8.66699 15.333 18 30.333 28 45c16 24 33 47 51 69c46 56.667 88.667 85 128 85c23.333 0 35 -10.667 35 -32c0 -18 -9.33301 -56 -28 -114c-6 -11.333 -12.333 -27 -19 -47
c-0.666992 -3.33301 0.333008 -6 3 -8c2 -1.33301 5 -1 9 1c28.667 48.667 60.667 91.667 96 129c44.667 47.333 82.667 71 114 71c28.667 0 43 -21.667 43 -65c0 -50.667 -14.333 -111.667 -43 -183c-9.33301 -23.333 -24.333 -57.333 -45 -102
c-30 -66 -45 -132.667 -45 -200c0 -58.667 12.333 -109.334 37 -152.001c40.667 -70.667 104.667 -106 192 -106c27.333 0 55.666 3.33301 84.999 10c101.333 22.667 237.666 119.667 408.999 291c15.333 14.667 43.333 43 84 85z" />
    <glyph glyph-name="n" unicode="n" horiz-adv-x="459" 
d="M430 284c0 -59.333 -12.6689 -114.331 -38.002 -164.998c-49.333 -99.333 -116.666 -179.333 -201.999 -240c-118 -84 -233.333 -130 -346 -138c-76 -5.33301 -142.667 16 -200 64s-86 110 -86 186c0 12.667 1 26.667 3 42c-0.666992 -12 -1 -23.333 -1 -34
c0 -71.333 26.667 -130.333 80 -177c51.333 -44.667 113 -67 185 -67c118 0 233 39 345 117c89.333 62 159 143.333 209 244c30 60 45 118.667 45 176c0 8.66699 -0.333008 17 -1 25c-8 -72 -37.333 -144.667 -88 -218c-45.333 -66 -88.333 -99 -129 -99
c-12 0 -22.333 3.66699 -31 11s-13 16.666 -13 27.999c0 24.667 10 37 30 37c16 0 24 -8.66699 24 -26c0 -4 -1.5 -9.33301 -4.5 -16s-4.5 -11.334 -4.5 -14.001c0 -9.33301 5.66699 -14 17 -14c33.333 0 68 57.667 104 173c20 65.333 30 116.333 30 153
c0 14.667 -3.33301 28.667 -10 42c-8 16 -18.333 24 -31 24c-34.667 0 -79.334 -48.667 -134.001 -146c-9.33301 -16.667 -30 -63.667 -62 -141l-44 -106c2 0 -16.667 -0.333008 -56 -1c0.666992 3.33301 2.33398 8.66602 5.00098 15.999l99 267c19.333 52 29 81 29 87
c0 10 -4 15 -12 15c-10.667 0 -27 -14 -49 -42c-19.333 -24 -34 -45.667 -44 -65l-3 1c17.333 44.667 49 84.667 95 120c20.667 16 36.667 24 48 24c15.333 0 23 -10.667 23 -32c0 -24 -9.66699 -63 -29 -117c-1.33301 -3.33301 -0.666016 -5.66602 2.00098 -6.99902
s5 -0.666016 7 2.00098c58.667 101.333 112 152 160 152c36 0 59.667 -25.333 71 -76c4.66699 -20.667 7 -42.334 7 -65.001z" />
    <glyph glyph-name="o" unicode="o" horiz-adv-x="347" 
d="M306 339c0.666992 -18 0.331055 -31.668 -1.00195 -41.001c-22.667 -136 -74.334 -228.333 -155.001 -277c-23.333 -14 -43.666 -21 -60.999 -21c-27.333 0 -47.333 14.667 -60 44c-9.33301 21.333 -14 47.666 -14 78.999c0 20 1.66699 39.667 5 59
c-67.333 -2.66699 -115.666 15.333 -144.999 54c-14 18.667 -21 39.334 -21 62.001c0 30.667 11.333 62.334 34 95.001c20.667 30 45.334 53.333 74.001 70c41.333 24 89 36 143 36c86.667 0 147.667 -31.667 183 -95c10.667 -19.333 16.667 -41 18 -65zM277.997 411.999
c-36 52.667 -94.666 79 -175.999 79c-93.333 0 -163.666 -33.667 -210.999 -101c-21.333 -30 -32 -60 -32 -90c0 -22 6 -41.333 18 -58c27.333 -38.667 75.666 -56.667 144.999 -54c11.333 52 36.666 101.333 75.999 148c51.333 60.667 97 91 137 91c18.667 0 33 -5 43 -15z
M267.998 375.999c0 28.667 -11.001 43 -33.001 43c-35.333 0 -82.666 -73.333 -141.999 -220c34 7.33301 79.667 22 137 44c-52 -24.667 -98.667 -41.667 -140 -51c-0.666992 -1.33301 -10.667 -31 -30 -89c-4.66699 -12.667 -7 -26 -7 -40c0 -32.667 11 -51.667 33 -57
c18 -4.66699 40.667 15 68 59c10 16 24.667 44 44 84c26.667 54.667 46 106 58 154c8 32 12 56.333 12 73z" />
    <glyph glyph-name="p" unicode="p" horiz-adv-x="419" 
d="M380 277c0 -56 -13.9951 -107.333 -41.9951 -154c-28.667 -49.333 -68 -84 -118 -104c-26.667 -10.667 -49.334 -16 -68.001 -16c-20.667 0 -44 6.33301 -70 19c-0.666992 -0.666992 -3 -5.33398 -7 -14.001c-22 -47.333 -38.333 -85.666 -49 -114.999
c-2 -5.33301 -1 -12.333 3 -21c6 -14 24 -21 54 -21l-1 -4c-3.33301 -2 -18.333 -2.33301 -45 -1c-48.667 2.66699 -70 4 -64 4c-2 0 -12.333 -0.666992 -31 -2c-46.667 -70 -93.334 -122 -140.001 -156c-53.333 -38.667 -118.333 -62.667 -195 -72
c-27.333 -3.33301 -50 -5 -68 -5c-32 0 -68 6.33301 -108 19c-49.333 16 -88 34 -116 54c-32 22.667 -60 54.667 -84 96c-29.333 50.667 -44 100.667 -44 150c0 16 1 33 3 51c9.33301 84.667 44 156.167 104 214.5s132 87.5 216 87.5
c106.667 0 192.334 -43.667 257.001 -131c16.667 8.66699 35.334 13 56.001 13c40.667 0 69.334 -14.333 86.001 -43c8 -14 12 -29 12 -45c0 -52 -29 -91.667 -87 -119c1.33301 -42.667 -3.66699 -77.667 -15 -105c18.667 -6 36.667 -9 54 -9
c33.333 0 58.666 10.667 75.999 32c3.33301 4 10.666 15.333 21.999 34c21.333 44 45.666 101.667 72.999 173l68 176l46 117c-44 -16 -82 -45.667 -114 -89l-2 1c39.333 53.333 79.666 91 120.999 113l33 74l-40 -18c-125.333 -52.667 -239 -80.334 -341 -83.001
c-146.667 -3.33301 -244.334 36.667 -293.001 120c-8.66699 14.667 -13 30 -13 46c0 22.667 8.16699 46.167 24.5 70.5s34.166 41.5 53.499 51.5l4 2c46.667 23.333 98.667 35 156 35c95.333 0 157.666 -25 186.999 -75c10 -17.333 15 -35 15 -53
c0 -25.333 -8.33301 -46 -25 -62l-17 -10c23.333 23.333 35 49 35 77c0 16.667 -4 31.667 -12 45c-28.667 48.667 -90 73 -184 73c-101.333 0 -171 -28.667 -209 -86c-14.667 -22 -22 -44.333 -22 -67c0 -15.333 4 -30 12 -44c43.333 -74.667 147 -109.667 311 -105
c104.667 2.66699 212 26.667 322 72c12 4.66699 25 10.334 39 17.001l1 1l46 15c8.66699 2.66699 18.334 6.66699 29.001 12l-34 -86c44 0 78.167 -13.5 102.5 -40.5s36.5 -63.5 36.5 -109.5zM320.005 296c0 29.333 -7.50098 54.5 -22.501 75.5s-36.833 32.833 -65.5 35.5
l-150 -378c18.667 -11.333 36.334 -17 53.001 -17c36 0 71.333 23 106 69c52.667 70 79 141.667 79 215zM-83.9961 82c0 14.667 -3.66699 28.3311 -11 40.998c-15.333 27.333 -43 41 -83 41c-18.667 0 -36 -3.66699 -52 -11c40 -55.333 61.333 -117.666 64 -186.999
c22.667 10.667 42 26.834 58 48.501s24 44.167 24 67.5zM-170.996 -41.0029c-6.66699 -2.66699 -17.332 -6.66602 -31.999 -11.999l21 13c4 1.33301 7.66699 2.66602 11 3.99902c-2.66699 68.667 -24.334 130.667 -65.001 186c-56 -30.667 -84 -75.334 -84 -134.001
c0 -26 6.66699 -50.667 20 -74c21.333 -37.333 59.333 -65.333 114 -84c11.333 26.667 16.333 60.334 15 101.001zM-70.9941 -153.002l-10 -1.00098c-6.66699 -0.666992 -19 -2 -37 -4c-22 -2.66699 -44.667 -1 -68 5c-8 -16 -19 -33 -33 -51
c-56 -69.333 -124.333 -104 -205 -104c-46 0 -96 13 -150 39c68 -22.667 117 -34 147 -34c78.667 0 146.334 34.667 203.001 104c15.333 19.333 26.333 35 33 47c-55.333 15.333 -95.333 44.333 -120 87c-13.333 22.667 -20 47 -20 73c0 61.333 31 110 93 146
c-64.667 86 -148.334 129 -251.001 129c-81.333 0 -152.333 -29.333 -213 -88s-95 -129 -103 -211c-1.33301 -14 -2 -28 -2 -42c0 -47.333 12.5 -93.666 37.5 -138.999s57.833 -80.333 98.5 -105c28 -16.667 68.667 -32.667 122 -48c40 -11.333 75 -17 105 -17
c22.667 0 49 2.66699 79 8c68 12 125 34.667 171 68c43.333 31.333 84.333 77.333 123 138z" />
    <glyph glyph-name="q" unicode="q" horiz-adv-x="382" 
d="M900 205c-8 -69.333 -53.001 -139.998 -135.001 -211.998c-41.333 -36 -84 -63.333 -128 -82c-74 -31.333 -139 -52.333 -195 -63c-65.333 -12 -133.333 -13.667 -204 -5c-26.667 3.33301 -59.667 5 -99 5c-8.66699 0 -23.167 -1 -43.5 -3s-35.833 -2.66699 -46.5 -2
c-2.66699 0 -8.33398 0.333008 -17.001 1l1 2c38 2.66699 65.667 18 83 46c-30 28.667 -43 60.334 -39 95.001c0.666992 4 1.66699 8.66699 3 14c-22 0 -39.333 10.667 -52 32c-10 17.333 -15 38 -15 62c0 58.667 22.667 123.334 68 194.001c48 74 99 118.667 153 134
c12 3.33301 20.667 5 26 5c23.333 0 42 -11 56 -33c0.666992 -1.33301 1.66699 -2 3 -2c3.33301 0 9 9.66699 17 29c22 -0.666992 40.667 -0.333984 56 0.999023c-23.333 -50.667 -63.333 -147 -120 -289c-62 -156 -93 -240.667 -93 -254c0 -10 4.33301 -17.667 13 -23
c14.667 -4.66699 32.334 -8.33398 53.001 -11.001c106.667 -12.667 231 11.333 373 72c46 19.333 90.333 46 133 80c46.667 37.333 81.667 75.666 105 114.999c22 37.333 34.667 68.333 38 93c5.33301 41.333 -17 76.666 -67 105.999l14 -2
c44.667 -26 64.334 -61 59.001 -105zM299.999 377.002c0 27.333 -10.667 41.001 -32 41.001c-29.333 0 -66.333 -38.667 -111 -116c-66.667 -115.333 -100 -200.333 -100 -255c0 -23.333 8.33301 -36.333 25 -39c16 52 60 99.667 132 143
c57.333 101.333 86 176.666 86 225.999zM207.999 139.003c-65.333 -42.667 -105.666 -86.333 -120.999 -131c31.333 1.33301 71.666 45 120.999 131zM179.999 47.0039c-41.333 -28.667 -73 -44.001 -95 -46.001c-1.33301 -5.33301 -2.33301 -10 -3 -14
c-4 -31.333 8.33301 -61 37 -89c2.66699 4.66699 23 54.334 61 149.001z" />
    <glyph glyph-name="r" unicode="r" horiz-adv-x="367" 
d="M397 384c0 -26.667 -12.998 -39.001 -38.998 -37.001c-9.33301 0.666992 -17 8 -23 22c-8 18 -19.333 27 -34 27c-10 0 -21.667 -6.33301 -35 -19c-29.333 -28 -58.666 -75.667 -87.999 -143l-67 -159l-29 -70c-28.667 -2 -53 -12.667 -73 -32l-67 -66
c-52.667 -48 -118.334 -85 -197.001 -111c-72.667 -24 -147.334 -36 -224.001 -36c-192 0 -321.333 57.333 -388 172c-17.333 30 -26 59.333 -26 88c0 45.333 19.667 85 59 119c34.667 30 75.667 49.333 123 58c-112.667 -44 -169 -101 -169 -171
c0 -27.333 8.66699 -56 26 -86c66.667 -115.333 192.667 -173 378 -173c71.333 0 140.333 10.667 207 32c73.333 22.667 134.666 55.334 183.999 98.001c53.333 46 91.666 90 114.999 132l112 271c3.33301 9.33301 9.66602 25.666 18.999 48.999
c2.66699 4.66699 6.66699 16 12 34c1.33301 4.66699 -1 8.33398 -7 11.001l-9 2c-15.333 -0.666992 -48.666 -37 -99.999 -109l-3 1c19.333 31.333 41 60 65 86c33.333 36 60 54 80 54c16 0 24 -10.667 24 -32c0 -20 -3.66699 -47 -11 -81
c28.667 40.667 50.334 68 65.001 82c23.333 22 48 33 74 33c12.667 0 23.5 -4.5 32.5 -13.5s13.5 -19.833 13.5 -32.5z" />
    <glyph glyph-name="s" unicode="s" horiz-adv-x="347" 
d="M437 385c0 -22 -7.99902 -45.6719 -23.999 -71.0049c-15.333 -22.667 -33 -41 -53 -55c-16.667 -11.333 -36 -17 -58 -17c-25.333 0 -43 9.33301 -53 28c-4 7.33301 -6 15.333 -6 24c0 20 9.66699 37 29 51c17.333 13.333 36.333 19.666 57 18.999
c-18.667 -2.66699 -36.334 -10.334 -53.001 -23.001c-18.667 -14 -28 -29.667 -28 -47c0 -6.66699 1.66699 -13.667 5 -21c9.33301 -14 22 -21 38 -21c27.333 0 53 14.333 77 43s36 57 36 85c0 12.667 -3 24.334 -9 35.001c-12 22 -30 33 -54 33c-16 0 -32.333 -5 -49 -15
c-39.333 -23.333 -71 -57.666 -95 -102.999c-15.333 -29.333 -32.333 -73 -51 -131c-32 -101.333 -66 -180.333 -102 -237c-22.667 -36 -42.334 -62 -59.001 -78c-26.667 -24 -56 -36 -88 -36c-10.667 0 -21.334 2.83301 -32.001 8.5s-15.334 13.5 -14.001 23.5
c2.66699 18.667 12.334 28 29.001 28c8.66699 0 19.334 -5.33301 32.001 -16s22.667 -16 30 -16c16 0 32.667 15.667 50 47c8 14.667 17.333 36 28 64c12 30.667 25.333 68.334 40 113.001c-48.667 -67.333 -99.667 -101 -153 -101c-28.667 0 -52 15.333 -70 46
c-8.66699 14.667 -13 31.334 -13 50.001c0 22.667 6.33301 44.334 19 65.001s29 36.667 49 48c17.333 10 36 15 56 15c15.333 0 29 -4 41 -12s18 -19.333 18 -34c0 -24 -15 -44.667 -45 -62c-11.333 -6.66699 -24.666 -11 -39.999 -13c7.33301 2.66699 19.333 8 36 16
c24.667 14.667 37 32 37 52c0 6.66699 -1.66699 12.667 -5 18c-10 16 -25.333 24 -46 24c-15.333 0 -30 -4 -44 -12c-46.667 -27.333 -70 -63.666 -70 -108.999c0 -15.333 4 -29.666 12 -42.999c14 -24 35 -36 63 -36c28.667 0 57.334 12.333 86.001 37
c26 22 48.333 51.667 67 89c10 20.667 26.667 66 50 136c14 45.333 41.333 125 82 239c30.667 80.667 67.334 125 110.001 133c21.333 4 33.333 5.66699 36 5c32 -4.66699 47 -14 45 -28c-2.66699 -15.333 -10.667 -23.333 -24 -24c-8 -0.666992 -15.667 3.66602 -23 12.999
c-12.667 15.333 -23.667 23 -33 23c-18.667 0 -37.667 -28.667 -57 -86l-30 -107c-4.66699 -15.333 -12.334 -43.666 -23.001 -84.999c20.667 39.333 50 70 88 92c24 14 47 21 69 21c27.333 0 50.666 -11 69.999 -33c12.667 -14.667 19 -32 19 -52z" />
    <glyph glyph-name="t" unicode="t" horiz-adv-x="279" 
d="M795 245c0 -48.667 -12.3301 -100.331 -36.9971 -154.998c-22.667 -51.333 -52 -95.333 -88 -132c-49.333 -50.667 -112.333 -91.334 -189 -122.001s-151 -46 -223 -46c-84.667 0 -149.834 21.167 -195.501 63.5s-64.5 100.5 -56.5 174.5
c3.33301 30 19.333 82.667 48 158c-7.33301 -1.33301 -15 -2 -23 -2c-52.667 0 -92.667 23.333 -120 70c-4.66699 8 -8.33398 16 -11.001 24c-29.333 -6.66699 -57.333 -10 -84 -10c-84 0 -140 24 -168 72c-10 17.333 -15 34.666 -15 51.999
c0 64.667 39.667 118.334 119 161.001c66.667 36 135 54 205 54c104.667 0 182.667 -35.333 234 -106l69 25l-38 -89l2 -8l47 1h36l-10 -24c-15.333 -0.666992 -39 -1 -71 -1c1.33301 -36.667 -5.66699 -71 -21 -103c-16 -34 -39 -60.333 -69 -79
c-36 -92.667 -54 -146.667 -54 -162c0 -6 1 -9.66699 3 -11c10 -4 28.333 6.33301 55 31l40 39c3.33301 -4.66699 -16 -25.334 -58 -62.001c-44.667 -38.667 -77.667 -56.667 -99 -54c-1.33301 0.666992 -3 1.33398 -5 2.00098c-4.66699 -58.667 14.333 -107 57 -145
c21.333 -18.667 43.666 -32 66.999 -40c40 -14 84 -21 132 -21c68.667 0 137.667 13.667 207 41s127.333 65 174 113c84.667 87.333 127 178.666 127 273.999c0 47.333 -13.333 89.666 -40 126.999c-38.667 54.667 -99.334 82 -182.001 82c-50 0 -100.333 -9.66699 -151 -29
l11 9c54.667 22.667 107.334 34 158.001 34c80 0 140 -28.333 180 -85c24.667 -35.333 37 -75.666 37 -120.999zM219.003 404.003h-7c-13.333 -28.667 -36 -82.667 -68 -162l-3 -8c53.333 46 79.333 102.667 78 170zM185.003 499.003c-18 22 -42.334 42.667 -73.001 62
c-41.333 26 -91.333 39 -150 39c-66 0 -132 -17 -198 -51c-78.667 -40 -118 -90 -118 -150c0 -47.333 26.333 -81.333 79 -102c24 -9.33301 55.333 -14 94 -14c24.667 0 50.334 2.33301 77.001 7c-3.33301 12 -5 22.667 -5 32c0 38.667 25.333 57 76 55
c-46.667 2 -70 -18 -70 -60c0 -8 1.33301 -16.667 4 -26c80.667 15.333 139 43.333 175 84c12.667 14 24 31.667 34 53l45 1l26 68zM143.002 402.003c-7.33301 0 -16.333 -0.333008 -27 -1c-60.667 -60.667 -131 -101 -211 -121c18.667 -55.333 61.667 -83 129 -83
c8.66699 0 17 0.666992 25 2c1.33301 2.66699 9.33301 22 24 58z" />
    <glyph glyph-name="u" unicode="u" horiz-adv-x="433" 
d="M1129 423c0 -72.667 -14.6689 -146.001 -44.002 -220.001c-24 -60 -54.333 -110.667 -91 -152c-100.667 -112.667 -233 -193.667 -397 -243c-38 -11.333 -76.667 -17 -116 -17c-83.333 0 -151.333 21.333 -204 64l-4 4c-52 -52.667 -106.667 -95.334 -164 -128.001
c-34 -19.333 -67.667 -29 -101 -29c-55.333 0 -97 22 -125 66c-23.333 36 -35 83 -35 141c0 66 16.333 132.667 49 200c24.667 50.667 62.667 108.667 114 174c34 43.333 69.333 80 106 110c26.667 22 48.334 33 65.001 33c15.333 0 23 -12 23 -36
c0 -18.667 -13.333 -61.334 -40 -128.001l-45 -106c-23.333 -58 -35 -91.333 -35 -100c0 -12.667 5.66699 -19 17 -19c12.667 0 32.667 15 60 45c57.333 63.333 107.333 142.666 150 237.999c5.33301 10.667 14.333 30.334 27 59.001c3.33301 8.66699 10 24.334 20 47.001
c5.33301 -3.33301 15 -5.66602 29 -6.99902c9.33301 -0.666992 18 -0.333984 26 0.999023l-100 -233c-34 -79.333 -51 -125.333 -51 -138c0 -6.66699 3.33301 -10 10 -10c12 0 39.333 27.667 82 83l2 -1c-18.667 -29.333 -39 -54.333 -61 -75c-29.333 -28 -55 -42 -77 -42
c-6 0 -11 1.33301 -15 4v-7c0 -28.667 7.33301 -53 22 -73c10 -13.333 29 -30.333 57 -51c13.333 14.667 37.333 39.334 72 74.001l-68 -77l6 -5c49.333 -41.333 117 -62 203 -62c42.667 0 83 5.66699 121 17c62.667 18.667 127 48.167 193 88.5s121 84.166 165 131.499
c38 41.333 70 93 96 155c33.333 80 50 158 50 234c0 74.667 -16.333 140 -49 196c-48 82 -111 140.333 -189 175c-67.333 29.333 -152.666 44 -255.999 44c-23.333 0 -43.666 -0.333008 -60.999 -1c-66.667 -2.66699 -143.334 -29.334 -230.001 -80.001
c-98 -57.333 -169.333 -139 -214 -245l-9 -6c45.333 108.667 118.666 193.334 219.999 254.001l5 3c84.667 50.667 161.334 77.334 230.001 80.001c17.333 0.666992 38.333 1 63 1c104.667 0 190.667 -15.333 258 -46c77.333 -35.333 140 -94.666 188 -177.999
c34.667 -60 52 -129 52 -207zM268.998 -138.001c-50 40.667 -75.001 86.334 -75.001 137.001c0 42.667 14.667 95.334 44 158.001c2 4.66699 4 12 6 22c-42 -72.667 -93.333 -126.667 -154 -162c-18 -10.667 -33.333 -16 -46 -16c-16.667 0 -25 12.333 -25 37
c0 13.333 13.667 54 41 122l68 169c8.66699 21.333 13 35.333 13 42c0 10 -4.33301 15 -13 15c-14.667 0 -51.667 -35.667 -111 -107c-105.333 -126.667 -158 -249 -158 -367c0 -14.667 1 -31.334 3 -50.001c5.33301 -50.667 18.333 -87.334 39 -110.001
c28.667 -31.333 64.334 -47 107.001 -47c32 0 64 9.33301 96 28c58.667 34 113.667 77 165 129z" />
    <glyph glyph-name="v" unicode="v" horiz-adv-x="465" 
d="M440 318c0 -78 -35.6689 -148.002 -107.002 -210.002c-60.667 -52 -133 -89.333 -217 -112l-16 -4c70.667 90.667 102.667 192.334 96 305.001c-4 72.667 -17 126.334 -39 161.001c-13.333 21.333 -23.666 35.666 -30.999 42.999c-12 12 -27 18 -45 18
c-16 0 -28.833 -5.33301 -38.5 -16s-14.5 -24 -14.5 -40c0 -21.333 8.33301 -44.333 25 -69l-2 -1c-24.667 34 -37 63.333 -37 88c0 22.667 7.83301 41.834 23.5 57.501s34.834 23.5 57.501 23.5c29.333 0 51.666 -5.66699 66.999 -17c-54 70.667 -128 123.334 -222 158.001
c-73.333 27.333 -149.333 41 -228 41c-114 0 -218.667 -27.333 -314 -82c-97.333 -56 -172 -133.667 -224 -233s-78 -219 -78 -359c0 -186 53.333 -329 160 -429c95.333 -89.333 211.333 -134 348 -134c104.667 0 211 26 319 78c100.667 48 189.667 112.333 267 193
c-70.667 -83.333 -159.5 -150.333 -266.5 -201s-214.5 -76 -322.5 -76c-143.333 0 -262.666 45.333 -357.999 136c-104 98.667 -156 240 -156 424c0 284 103 486 309 606c97.333 56.667 203 85 317 85c64.667 0 132 -11 202 -33c72.667 -22.667 133.667 -53 183 -91
c42 -32 77.333 -76 106 -132c22 -43.333 37.333 -96.333 46 -159c5.33301 26 17 48.167 35 66.5s39.667 27.5 65 27.5c29.333 0 52.333 -12 69 -36c14 -20.667 21 -46.334 21 -77.001zM382.998 301.998c0 58 -21.667 87 -65 87c-44.667 0 -67 -30.667 -67 -92
c0 -86 -24.333 -175 -73 -267c136.667 66 205 156.667 205 272z" />
    <glyph glyph-name="w" unicode="w" 
d="M536 350c0 -89.333 -48.667 -185.335 -146 -288.002c-15.333 -16 -39.333 -37.333 -72 -64c-1.33301 0 -3.66602 -0.333008 -6.99902 -1c1.33301 8 3.33301 20.667 6 38c17.333 108.667 24.333 198.334 21 269.001c-66.667 -119.333 -146 -221.666 -238 -306.999h-4
c28 72 40.667 151 38 237c-32.667 -32 -73.667 -62 -123 -90c-81.333 -46 -158 -69 -230 -69c-42.667 0 -84.334 8.33301 -125.001 25c-78 31.333 -138 83.666 -180 156.999c-34 58.667 -51 121.334 -51 188.001c0 62 14.333 120 43 174s68.667 98 120 132
c-162.667 -16 -284 -73.667 -364 -173c-70 -86.667 -105 -180.334 -105 -281.001c0 -36 4.66699 -71 14 -105c34 -124 106.333 -217.333 217 -280c98 -55.333 215 -81.333 351 -78c62.667 1.33301 119.667 10 171 26c130.667 40 251.334 98.667 362.001 176
c-112 -84.667 -231.667 -145.667 -359 -183c-57.333 -16.667 -119.333 -25.667 -186 -27c-145.333 -2 -262.666 24.333 -351.999 79c-112 68.667 -184 163.334 -216 284.001c-8 30 -12 63 -12 99c0 115.333 31.667 212.333 95 291c84.667 105.333 216.667 165 396 179
c64 37.333 141 56 231 56c58.667 0 118 -7.66699 178 -23c133.333 -34 235.666 -110.667 306.999 -230c23.333 -39.333 46 -101.666 68 -186.999c29.333 38 57.666 57 84.999 57c22 0 38.667 -7.83301 50 -23.5s17 -34.834 17 -57.501zM494 299.998
c0 22.667 -4.66699 43.333 -14 62c-11.333 22.667 -27 34 -47 34c-16 0 -32.333 -9.66699 -49 -29c6 -41.333 9 -82.333 9 -123c0 -53.333 -6.66699 -115.333 -20 -186c80.667 83.333 121 164 121 242zM360 438.997c-16.667 52.667 -34.334 93.334 -53.001 122.001
c-77.333 118 -177.333 192.667 -300 224c-60 15.333 -120.333 23 -181 23c-87.333 0 -159.666 -16.667 -216.999 -50c18 1.33301 56.333 -2.33398 115 -11.001c174 -25.333 306 -115 396 -269c20 -33.333 33 -61 39 -83c22.667 72 60.667 108 114 108
c40 0 69 -21.333 87 -64zM335 325.997c-12.667 96.667 -44.668 144.999 -96.001 144.999c-38.667 0 -63 -28 -73 -84c8.66699 -18 15.334 -43.667 20.001 -77l17 15l-16 -24c3.33301 -26 5 -50.667 5 -74c0 -60 -5.33301 -105.667 -16 -137
c68.667 74.667 121.667 153.334 159 236.001zM143.999 420.996c-5.33301 14 -14.667 31.334 -28 52.001c-49.333 79.333 -104.666 139.833 -165.999 181.5s-138 70.834 -230 87.501c-48 8.66699 -89 11.667 -123 9c-52 -32.667 -92.5 -75.667 -121.5 -129
s-43.5 -111 -43.5 -173c0 -66 16.667 -128 50 -186c41.333 -72.667 100.666 -124.667 177.999 -156c40.667 -16.667 81.667 -25 123 -25c70.667 0 147.667 23.667 231 71c51.333 29.333 91.333 59 120 89c-2 38 -9 75 -21 111c-17.333 50.667 -40.333 76 -69 76
c-14 0 -25.833 -6 -35.5 -18s-14.5 -25.333 -14.5 -40c0 -24 7.33301 -50 22 -78c-1.33301 -0.666992 -2.33301 -1.33398 -3 -2.00098c-16.667 29.333 -25 57 -25 83c0 25.333 7.66699 47.666 23 66.999s35.333 29 60 29c28 0 52.333 -16.333 73 -49z" />
    <glyph glyph-name="x" unicode="x" horiz-adv-x="435" 
d="M774 175c0 -110 -42.667 -193.663 -128 -250.996c-55.333 -37.333 -111 -56 -167 -56c-36.667 0 -75.334 8 -116.001 24c-81.333 32 -140.333 124.667 -177 278l-74 -109c-26 -34 -52 -54.667 -78 -62c-43.333 -31.333 -99.666 -58.666 -168.999 -81.999
c-71.333 -24 -132.333 -35.333 -183 -34c-120 3.33301 -218 44.166 -294 122.499s-114 177.5 -114 297.5c0 83.333 18.333 160.666 55 231.999c38.667 75.333 92.334 133.666 161.001 174.999c76 46 151 69 225 69c37.333 0 77.666 -5.33301 120.999 -16
c46 -12 84.333 -27 115 -45c96 -56.667 166.333 -139.334 211 -248.001c14.667 -36 34 -97.333 58 -184c1.33301 -4.66699 3.66602 -13.334 6.99902 -26.001c66 111.333 115.667 167 149 167c22 0 33 -17.667 33 -53c0 -23.333 -6.66699 -48.666 -20 -75.999h-1
c6 24 9 41.333 9 52c0 28 -12 42 -36 42c-28.667 0 -72 -48 -130 -144c2.66699 -5.33301 12.667 -37.666 30 -96.999c12.667 -42.667 24.667 -73.334 36 -92.001c4 -6.66699 9 -10 15 -10c14 0 32.667 26.667 56 80l3 -1c-22.667 -60 -56 -101.667 -100 -125
c18.667 -37.333 47 -68.333 85 -93s77.667 -37 119 -37c52.667 0 108.334 20 167.001 60c80.667 54.667 121 134 121 238c0 76 -23 144.333 -69 205c-56.667 74.667 -138 112 -244 112c-60 0 -122 -12 -186 -36c70 30.667 136.333 46 199 46c99.333 0 179 -38 239 -114
c48 -60.667 72 -130.334 72 -209.001zM183 182.004c-6 26 -15 58.9951 -27 98.9951c-3.33301 12.667 -9 32 -17 58c-10 30 -20.333 45 -31 45c-10 0 -22 -14 -36 -42c-10.667 -21.333 -18 -37.666 -22 -48.999l-3 1c32.667 88 66.334 132 101.001 132
c0.666992 0 2 -0.333008 4 -1c-54 131.333 -131.333 224.333 -232 279c-66.667 36 -141.334 54 -224.001 54c-73.333 0 -141.5 -19.167 -204.5 -57.5s-112.167 -89.833 -147.5 -154.5c-42 -76 -63 -157.333 -63 -244c0 -119.333 37.333 -217.166 112 -293.499
s171.667 -116.166 291 -119.499c50 -1.33301 109.667 9.33398 179 32.001c67.333 22 122.333 48 165 78l3 3c-18 2.66699 -27 18.334 -27 47.001c0 26 6 53.333 18 82l4 -1c-6 -20.667 -9 -36.667 -9 -48c0 -12 4 -22 12 -30s18 -12 30 -12c24.667 0 66 47.333 124 142z" />
    <glyph glyph-name="y" unicode="y" horiz-adv-x="375" 
d="M345 376c0 -30 -11.667 -82 -35 -156s-63 -161.667 -119 -263c-10.667 -19.333 -22.334 -35.333 -35.001 -48c-45.333 -72.667 -135.666 -131.334 -270.999 -176.001c-117.333 -38.667 -230.333 -57.667 -339 -57c-50 0.666992 -111.667 15.334 -185 44.001
c-53.333 21.333 -99.666 48 -138.999 80c-118.667 97.333 -178 211 -178 341c0 76.667 28.333 159 85 247c38 58.667 91.667 106 161 142s139.666 54 210.999 54c110 0 204.333 -31.333 283 -94c85.333 -68 128 -155.667 128 -263c0 -40.667 -12.333 -86 -37 -136
c-24.667 -52 -53.334 -89 -86.001 -111c34 32 61.667 69.667 83 113c22.667 46 34 91 34 135c0 106.667 -42.333 193 -127 259c-77.333 60.667 -170.666 91 -279.999 91c-116.667 0 -216.667 -38.333 -300 -115c-86 -78.667 -129 -176 -129 -292
c0 -48.667 6.66699 -90.667 20 -126c10 -26 29.333 -61.667 58 -107c48.667 -76.667 111 -133.667 187 -171c64.667 -31.333 149.667 -52.666 255 -63.999c18.667 -2 38.334 -3 59.001 -3c137.333 0 269.666 39.333 396.999 118c8.66699 5.33301 23 17.666 43 36.999
c-16.667 -8 -31.667 -12 -45 -12s-25 3 -35 9c-12 7.33301 -18 17.333 -18 30c0 8 3.16699 15 9.5 21s13.5 9 21.5 9c7.33301 0 17.833 -6.66699 31.5 -20s24.5 -20 32.5 -20c9.33301 0 21.333 6 36 18c17.333 20 29 40.667 35 62c4.66699 16.667 7 40.334 7 71.001
c0 108 -8.66699 206.667 -26 296c-2.66699 13.333 -5.66699 25.666 -9 36.999c-6 20.667 -14.667 31 -26 31c-22.667 0 -44.667 -39 -66 -117l-3 1c18 75.333 44.333 123 79 143c14 8 24 12 30 12c18 0 31.333 -13 40 -39c22 -66.667 35 -186.667 39 -360
c54 102.667 81 186.667 81 252c0 12 -2 30.167 -6 54.5s-6 42.5 -6 54.5c0 25.333 9.33301 38 28 38c17.333 0 26 -16.667 26 -50z" />
    <glyph glyph-name="z" unicode="z" horiz-adv-x="374" 
d="M875 -196c0 -78.667 -20.6699 -143.336 -62.0029 -194.003c-43.333 -53.333 -103.333 -83 -180 -89c-60 -4.66699 -121 13.333 -183 54c-50 32.667 -96.667 77.334 -140 134.001c-14 18.667 -27.333 39 -40 61c-54.667 -66.667 -120 -119.667 -196 -159
c-79.333 -41.333 -160.333 -62 -243 -62c-73.333 0 -143.666 18.5 -210.999 55.5s-121 86.5 -161 148.5c-32 50 -54 112.333 -66 187c-4.66699 30 -7 58 -7 84c0 120.667 36.833 222.167 110.5 304.5s170.5 132.833 290.5 151.5c50.667 8 99.667 12 147 12
c70 0 129.333 -8.66699 178 -26l96 -37c40.667 -15.333 75.667 -25.666 105 -30.999c8 0 17 2.66699 27 8c14.667 7.33301 23.334 11.333 26.001 12c6.66699 0 10 -1.66699 10 -5c0 -4.66699 -6 -13.667 -18 -27c-8.66699 -8.66699 -24 -25 -46 -49
c98 -3.33301 195.333 -36.333 292 -99c92.667 -60.667 164.334 -135 215.001 -223c37.333 -65.333 56 -135.666 56 -210.999zM286.997 339.998c-12.667 3.33301 -51.666 18 -116.999 44c-28 11.333 -50 17 -66 17c-20.667 0 -31 -8.66699 -31 -26
c0 -19.333 6 -32.666 18 -39.999l36 -22c4 -3.33301 6.33301 -7.33301 7 -12c47.333 23.333 97.666 35.666 150.999 36.999zM858.998 -175.002c0 73.333 -15.333 136.334 -46 189.001c-50.667 86.667 -122.667 160 -216 220c-96 62 -192.667 94.667 -290 98l-221 -250
c33.333 -12 64.333 -38 93 -78l62 -89c24.667 -34.667 47.667 -63 69 -85c36 52 53.667 143.333 53 274c4 -132.667 -12.333 -225.334 -49 -278.001c40 -41.333 78.333 -62 115 -62c15.333 0 29.666 3.33301 42.999 10c16 8.66699 24 20 24 34c0 4.66699 -4 10.667 -12 18
c-5.33301 6 -8 11.667 -8 17c0 18.667 10.667 28 32 28c24.667 0 37 -13.333 37 -40c0 -24 -14 -44.333 -42 -61c-24.667 -14.667 -49.667 -22 -75 -22c-42.667 0 -88 16.333 -136 49c-3.33301 -4.66699 -8.66602 -11.334 -15.999 -20.001c11.333 -19.333 25 -39 41 -59
c41.333 -51.333 88.333 -92.666 141 -123.999c59.333 -35.333 119 -53 179 -53c74 0 131 30 171 90c34 52 51 116.667 51 194zM287.998 -200.001c-24 16.667 -47.667 38.333 -71 65l56 -84c3.33301 4 8.33301 10.333 15 19zM279.998 331.998
c-51.333 -2 -99.667 -14 -145 -36c-1.33301 -16.667 -11 -25 -29 -25c-4.66699 0 -9 0.666992 -13 2c-15.333 -10.667 -32.333 -21.667 -51 -33l-5 -3l-2 4c19.333 13.333 37 24.666 53 33.999c-24.667 12.667 -37 37 -37 73c0 30.667 14 52.667 42 66c16.667 8 33 12 49 12
c17.333 0 50.333 -5.66699 99 -17l-135 48c-47.333 16.667 -105.666 25 -174.999 25c-48.667 0 -100.334 -4.33301 -155.001 -13c-116.667 -18.667 -210 -68 -280 -148s-105 -178.667 -105 -296c0 -28 2 -55.333 6 -82c11.333 -73.333 33.333 -135.166 66 -185.499
s80.334 -95.833 143.001 -136.5c68.667 -44.667 144.667 -67 228 -67c80.667 0 160.667 21 240 63c73.333 38.667 137.666 91 192.999 157l-78 116c-31.333 46 -61 81.333 -89 106c-23.333 20.667 -44.333 31 -63 31c-4.66699 0 -12 -3.33301 -22 -10
c-12.667 -9.33301 -19.667 -14.333 -21 -15c-2.66699 0.666992 -4 2.66699 -4 6c1.33301 2 4.33301 5.66699 9 11z" />
    <glyph glyph-name="braceleft" unicode="{" horiz-adv-x="394" 
d="M431 694l-2 -4.00293c-71.333 -4.66699 -118.666 -44.667 -141.999 -120l-62 -197c-16 -51.333 -53.333 -83.333 -112 -96l-3 -12c38 -7.33301 57 -26.333 57 -57c0 -19.333 -9.33301 -59 -28 -119l-38 -119c-4 -13.333 -6 -27 -6 -41c0 -46.667 22 -72 66 -76v-1l-4 -6
c-51.333 0.666992 -83.666 4 -96.999 10c-23.333 10.667 -35 30.334 -35 59.001c0 20 3.66699 41.667 11 65l48 152c14.667 46.667 22 74.334 22 83.001c0 32 -26.333 49.333 -79 52c1.33301 2.66699 2.33301 5 3 7c47.333 2.66699 81.666 16.334 102.999 41.001
c11.333 12.667 23.333 41.334 36 86.001c25.333 86 38.666 131.667 39.999 137c20.667 57.333 44.167 98.166 70.5 122.499s76.833 35.5 151.5 33.5z" />
    <glyph glyph-name="bar" unicode="|" horiz-adv-x="338" 
d="M275 -85c0 -24.667 -1 -50.333 -3 -77c-4.66699 0 -12.5 -3.83301 -23.5 -11.5s-18.833 -11.834 -23.5 -12.501c1.33301 18.667 2 37.667 2 57c0 50 -6.83301 124.667 -20.5 224s-20.5 174 -20.5 224c0 76.667 11.667 150.334 35 221.001
c14.667 43.333 30.667 84.333 48 123c-30 -125.333 -45 -232.333 -45 -321c0 -47.333 8.5 -118 25.5 -212s25.5 -165.667 25.5 -215z" />
    <glyph glyph-name="braceright" unicode="}" horiz-adv-x="394" 
d="M432 625c0 -20.667 -3.66699 -42.666 -11 -65.999l-48 -151c-14.667 -46 -22 -73.667 -22 -83c0 -32 26.333 -49.667 79 -53l-1 -1c-0.666992 -1.33301 -1.33398 -3 -2.00098 -5c-47.333 -2.66699 -81.666 -16.334 -102.999 -41.001
c-11.333 -12.667 -23.333 -41.334 -36 -86.001c-25.333 -86 -38.666 -131.667 -39.999 -137c-20.667 -57.333 -43.667 -97.666 -69 -120.999c-27.333 -25.333 -78.333 -37.333 -153 -36l2 5c71.333 4.66699 118.666 44.334 141.999 119.001l62 198
c16 50.667 53.333 82.667 112 96l3 12c-38 7.33301 -57 26 -57 56c0 20 9.33301 59.667 28 119l38 119c4 13.333 6 27.333 6 42c0 25.333 -5 43.666 -15 54.999s-27.333 18.333 -52 21l1 1l4 6c50.667 -1.33301 83 -5 97 -11c23.333 -10 35 -29.333 35 -58z" />
    <glyph glyph-name="asciitilde" unicode="~" horiz-adv-x="490" 
d="M537 721c-39.333 -58 -82.333 -87 -129 -87c-19.333 0 -49 7 -89 21s-70 21 -90 21c-30.667 0 -61.667 -18.667 -93 -56l-6 4c39.333 60.667 84.333 91 135 91c19.333 0 47.5 -6.83301 84.5 -20.5s65.167 -20.5 84.5 -20.5c34 0 65.667 17 95 51z" />
    <glyph glyph-name="nonbreakingspace" unicode="&#xa0;" horiz-adv-x="230" 
 />
    <glyph glyph-name="exclamdown" unicode="&#xa1;" horiz-adv-x="239" 
d="M565 463c0 -94 -30.502 -174.341 -91.502 -241.008s-138.167 -102.667 -231.5 -108c-11.333 -0.666992 -25.666 -1 -42.999 -1c-28.667 0 -58.667 3.66699 -90 11l-6 -28c-2.66699 -12 -7.66699 -33.333 -15 -64c-9.33301 -24.667 -22.666 -37 -39.999 -37
c-24.667 0 -37 12.333 -37 37c0 16 7 41.667 21 77l15 38c-44.667 23.333 -79.667 57 -105 101c-24 42 -36 89 -36 141c0 22.667 8.33301 54.334 25 95.001c0.666992 2.66699 2 3.33398 4 2.00098c2.66699 -0.666992 3.33398 -2 2.00098 -4c-16 -40.667 -24 -71.667 -24 -93
c0 -49.333 12.333 -94.333 37 -135s58.667 -72 102 -94l23 62l48 122l33 82c2 6 6.33301 17.333 13 34l6 -1c-0.666992 -4 -2 -11.333 -4 -22l-60 -299c31.333 -7.33301 60.666 -11 87.999 -11c17.333 0 31.666 0.333008 42.999 1c112 6.66699 198.667 55.667 260 147
c-9.33301 -5.33301 -20 -3.66602 -32 5.00098c-19.333 13.333 -29 42.333 -29 87c0 10 5 54 15 132c1.33301 12 1.33301 19.333 0 22c-1.33301 1.33301 -3 2 -5 2c-3.33301 0 -21.333 -25 -54 -75c-16 -24.667 -30.667 -37 -44 -37c-18 0 -27 17 -27 51
c0 4.66699 1.33301 21.334 4 50.001c0 1.33301 0.333008 2 1 2c1.33301 -0.666992 2 -1.66699 2 -3c-2.66699 -28 -4 -44.333 -4 -49c0 -31.333 7.66699 -47 23 -47c9.33301 0 21.333 10.333 36 31c12.667 22.667 25 42.834 37 60.501s21 26.5 27 26.5
c12.667 0 17.667 -11.667 15 -35c-2 -16 -4.66699 -45 -8 -87c-4 -73.333 6.33301 -110 31 -110c18 0 30.667 7.66699 38 23c20.667 44 31 90.333 31 139c0 22.667 -3.66699 49.334 -11 80.001c-12 50 -39.667 92.333 -83 127s-90.666 52 -141.999 52
c-21.333 0 -42.333 -4.33301 -63 -13c-24.667 -10.667 -39.667 -25 -45 -43h8c8.66699 0 17.167 -5.16699 25.5 -15.5s12.5 -20.166 12.5 -29.499c0 -12.667 -5 -23.334 -15 -32.001s-21.667 -13 -35 -13c-12.667 0 -23 4.33301 -31 13s-12 19.334 -12 32.001
c0 12 4.16699 22.667 12.5 32s18.5 14.333 30.5 15c6.66699 19.333 22 34.333 46 45c20.667 9.33301 42.667 14 66 14c52 0 100 -17.667 144 -53s72.333 -78.333 85 -129c8.66699 -35.333 13 -62.666 13 -81.999z" />
    <glyph glyph-name="cent" unicode="&#xa2;" horiz-adv-x="300" 
d="M338 207c0 -100 -45.333 -181.001 -136 -243.001c-30 -20.667 -58.667 -31 -86 -31c-16.667 0 -31.667 4 -45 12h-1c-34 20.667 -51 54.334 -51 101.001v18c-3.33301 13.333 -5 27.666 -5 42.999c0 23.333 4 50.333 12 81c-11.333 -6 -22.333 -9 -33 -9
c-14 0 -25 4.83301 -33 14.5s-12 21.5 -12 35.5c0 48.667 22.667 91.334 68 128.001c43.333 34.667 90 52 140 52c6 0 12 -0.333008 18 -1c14.667 8 29.667 13.667 45 17l20 61l11 2l-20 -60c2.66699 0.666992 6.66699 1.33398 12 2.00098c11.333 2 22.333 0.166992 33 -5.5
s16 -14.167 16 -25.5c0 -15.333 -6.66699 -23.333 -20 -24c-3.33301 0 -7 0.666992 -11 2c52 -36.667 78 -93.334 78 -170.001zM252 381.999c-2.66699 2.66699 -3.99902 6.66699 -3.99902 12c-0.666992 4.66699 -0.666992 8 0 10c2 10.667 -4.66699 16 -20 16l-7 -22
c11.333 -4.66699 21.666 -10 30.999 -16zM217.001 419.999c-6 -2 -14.667 -6.33301 -26 -13l-1 -1c7.33301 -1.33301 14.333 -3 21 -5zM208.001 393.999c-7.33301 2.66699 -15.333 4.66602 -24 5.99902c-5.33301 -5.33301 -11.666 -13.666 -18.999 -24.999
c-27.333 -42.667 -51.333 -100 -72 -172c21.333 20.667 44.333 37 69 49c15.333 50.667 30.666 98 45.999 142zM327.001 206.998c0 40.667 -8.66797 77.332 -26.001 109.999c-19.333 35.333 -46.666 60 -81.999 74l-41 -132c28.667 12 59 18 91 18
c17.333 0 31.333 -1.33301 42 -4c-5.33301 0.666992 -12 0.666992 -20 0s-14.333 -1 -19 -1c-33.333 0 -66 -8.33301 -98 -25l-73 -235c2 -0.666992 7.33301 0.333008 16 3c35.333 10.667 67.333 46 96 106c-2 -23.333 -15.833 -48.833 -41.5 -76.5
s-50.167 -42.5 -73.5 -44.5l-13 -37c13.333 -5.33301 27 -8 41 -8c20 0 40.667 7.33301 62 22c92.667 62.667 139 139.334 139 230.001zM165 401.996l-8.99902 -0.000976562c-48.667 0 -93.667 -16.333 -135 -49c-44.667 -35.333 -67 -76.666 -67 -123.999
c0 -30 13 -45 39 -45c11.333 0 23 3.33301 35 10l1 6c27.333 94 72.666 161.333 135.999 202zM157.001 236.995c-28 -18 -52 -39 -72 -63c-11.333 -43.333 -17 -78 -17 -104c0 -23.333 7.66699 -42.333 23 -57zM87.001 -2.00488c-18.667 0 -36.667 11.667 -54 35
c4 -32 18.667 -54.333 44 -67c4 13.333 7.33301 24 10 32z" />
    <glyph glyph-name="sterling" unicode="&#xa3;" horiz-adv-x="487" 
d="M598 355c-69.333 70 -149.666 105.002 -240.999 105.002c-7.33301 0 -15 -0.333008 -23 -1l-8 -33l5 33c-26.667 -2 -53.334 -6.66699 -80.001 -14c-8.66699 -29.333 -17 -55.666 -25 -78.999c71.333 0 125.333 -5.33301 162 -16
c49.333 -14 89.166 -43.167 119.499 -87.5s43.5 -91.833 39.5 -142.5c-6 -74 -40 -135 -102 -183c-58.667 -45.333 -126 -68 -202 -68c-24 0 -47.333 2.33301 -70 7c-83.333 17.333 -141.666 61.666 -174.999 132.999c-8 -2.66699 -15.667 -4 -23 -4
c-8.66699 0 -13 4 -13 12c0 11.333 7 22.666 21 33.999c-5.33301 20.667 -8 42 -8 64c0 89.333 30.667 168 92 236c-134.667 5.33301 -202 63.333 -202 174c0 68 27 124 81 168c50 41.333 109.667 62 179 62c41.333 0 80.166 -11.333 116.499 -34
s63.833 -52.334 82.5 -89.001c38 26.667 78.333 40 121 40c20.667 0 40.334 -5 59.001 -15c22 -12 33 -27.333 33 -46c0 -16 -9.33301 -24 -28 -24c-6.66699 0 -21.167 11.5 -43.5 34.5s-44.833 34.5 -67.5 34.5c-24.667 0 -47.667 -12 -69 -36c11.333 -26 17 -53 17 -81
c0 -14 -2.66699 -34.667 -8 -62c6 0.666992 12.333 1 19 1c90.667 0 171 -41 241 -123zM341 539.002c0 26 -5.33203 51.333 -15.999 76c-24.667 -30.667 -47.334 -80.667 -68.001 -150c25.333 6.66699 51 10.667 77 12c4.66699 25.333 7 46 7 62zM319.001 629.002
c-18 35.333 -44.834 63.8359 -80.501 85.5029s-73.5 32.5 -113.5 32.5c-66 0 -123 -20.333 -171 -61c-50.667 -42.667 -76 -96.334 -76 -161.001c0 -105.333 67 -159.333 201 -162c30.667 31.333 66.334 56.666 107.001 75.999c42.667 93.333 87 156.666 133 189.999z
M174 413.005c-25.333 -14 -48.333 -30.666 -69 -49.999c11.333 0.666992 27.666 1 48.999 1c6.66699 17.333 13.334 33.666 20.001 48.999zM536 154.006c0 42 -15.6709 80.3291 -47.0039 114.996c-28.667 32 -64 54 -106 66c-39.333 11.333 -91.666 17 -156.999 17h-4
l-18 -48c14.667 -1.33301 47.334 -1.66602 98.001 -0.999023l-3 -5c-2 -3.33301 -3.33301 -6.66602 -4 -9.99902c-5.33301 0 -13.166 -0.333008 -23.499 -1s-18.166 -1 -23.499 -1h-52c-25.333 -58.667 -61.666 -121.667 -108.999 -189l48 26c20 10.667 38 16 54 16
c23.333 0 42.333 -9 57 -27l27 -34c34.667 -44.667 63.667 -67 87 -67c16.667 0 32.334 7.83301 47.001 23.5s22 31.834 22 48.501c0 13.333 -4.66699 20 -14 20c-4 0 -9.33301 -2.33301 -16 -7s-12.334 -7 -17.001 -7c-18 0 -27 9.33301 -27 28c0 21.333 10 32 30 32
c14 0 26.167 -5.5 36.5 -16.5s15.5 -23.5 15.5 -37.5c0 -37.333 -15.333 -65.666 -46 -84.999c-23.333 -14.667 -47.333 -22 -72 -22c-34.667 0 -69.667 19.667 -105 59s-61 59 -77 59c-3.33301 0 -22.333 -6 -57 -18l-28.5 -35.5
c-11.667 -14.333 -23.834 -25.833 -36.501 -34.5c32 -62.667 86.333 -102 163 -118c12.667 -2.66699 26.667 -4 42 -4c104 0 184 27.333 240 82c22 21.333 40.167 48.5 54.5 81.5s21.5 64.5 21.5 94.5zM148.996 351.002c-24 -0.666992 -43.334 -1.00098 -58.001 -1.00098
c-65.333 -66 -98 -144.333 -98 -235c0 -18 2 -35.333 6 -52c10.667 6.66699 24.334 14 41.001 22c25.333 28.667 53.666 96.334 84.999 203.001c-17.333 0 -41.666 -0.333008 -72.999 -1c0.666992 1.33301 2.66699 6.33301 6 15c16.667 0 40.667 0.666992 72 2
c6.66699 17.333 13 33 19 47z" />
    <glyph glyph-name="currency" unicode="&#xa4;" horiz-adv-x="366" 
d="M823 577c0 -53.333 -23.166 -103.164 -69.499 -149.497s-96.5 -70.833 -150.5 -73.5c-34 -2 -81.333 2.66699 -142 14c-65.333 12 -112.666 18 -141.999 18c-6.66699 0 -14.667 -2.33301 -24 -7c9.33301 -22 14 -41.667 14 -59c0 -42 -16.167 -78.833 -48.5 -110.5
s-69.5 -47.5 -111.5 -47.5c-6 0 -15 2 -27 6c-31.333 -20.667 -47 -36.667 -47 -48c0 -12.667 16.333 -25.334 49 -38.001l66 -22c60.667 -20 104 -52.333 130 -97c8.66699 -14.667 13 -29.334 13 -44.001c0 -48 -31.333 -94.333 -94 -139
c-107.333 -76 -215 -116.667 -323 -122c-74.667 -4 -142 6.33301 -202 31c-68.667 27.333 -120 70.333 -154 129c-16.667 28.667 -25 59.667 -25 93c0 58.667 23.333 118.667 70 180c43.333 57.333 93.333 99.333 150 126l2 -4c-56 -32 -104.333 -73.333 -145 -124
c-48 -59.333 -72 -117.333 -72 -174c0 -34 8.33301 -65.333 25 -94c33.333 -57.333 86.333 -99 159 -125c60.667 -21.333 129 -30 205 -26c101.333 4.66699 198.666 40 291.999 106c63.333 44.667 95 90.667 95 138c0 20.667 -8.66699 41.667 -26 63c0.666992 -4 1 -8 1 -12
c0 -22 -9 -43 -27 -63c-16 -17.333 -35.333 -31 -58 -41c-28 -12 -58.667 -18 -92 -18c-38 0 -71.333 5.66699 -100 17c-39.333 15.333 -59 37.666 -59 66.999c0 30.667 28 58.667 84 84l47 22c-30.667 16 -46 33 -46 51c0 29.333 26 58 78 86
c-18.667 8 -33.334 22.333 -44.001 43c-10 18.667 -15 38.667 -15 60c0 41.333 17 77.166 51 107.499s72 45.5 114 45.5c28.667 0 50.667 -12.667 66 -38c8 2.66699 16.333 6.66699 25 12c30 16.667 50.333 25 61 25c19.333 0 29 -7.66699 29 -23c0 -6 -3 -11.333 -9 -16
c96.667 -20 167 -28.667 211 -26c54 2.66699 102.167 27.834 144.5 75.501s63.5 98.5 63.5 152.5c0 10 -0.666992 19.333 -2 28c-9.33301 61.333 -52.666 92 -129.999 92c-48.667 0 -103.667 -11.833 -165 -35.5s-109.666 -49.834 -144.999 -78.501l-65 -59
c-23.333 -20.667 -45.666 -31 -66.999 -31c-3.33301 0 -8 0.666992 -14 2c-26.667 6 -40 30.667 -40 74c0 8.66699 0.666992 18.334 2 29.001h1c9.33301 -40 32.666 -60 69.999 -60c22 0 50.333 12 85 36c17.333 13.333 43.666 32 78.999 56
c79.333 48.667 160.333 73 243 73c83.333 0 133.666 -32 150.999 -96c3.33301 -12 5 -25.667 5 -41zM265.001 368.002c0 34.667 -14.3311 52 -42.998 52s-55 -26.667 -79 -80c-20 -44 -30 -82 -30 -114c0 -12 3.66699 -22.667 11 -32s16.666 -14.333 27.999 -15
c27.333 -1.33301 53.666 24 78.999 76c22.667 46 34 83.667 34 113zM260.003 -65.998c0 27.333 -30 51.332 -90 71.999l-72 25c-29.333 -12.667 -50 -24 -62 -34c-20 -16.667 -30 -37 -30 -61c0 -29.333 12 -51.666 36 -66.999c20 -13.333 45.667 -20 77 -20
c46.667 0 85 12.333 115 37c17.333 14 26 30 26 48z" />
    <glyph glyph-name="yen" unicode="&#xa5;" horiz-adv-x="313" 
d="M430 151c0 -22 -5.66895 -43.9971 -17.002 -65.9971c-25.333 -48 -64 -72 -116 -72c-30 0 -56 7 -78 21c-4 2.66699 -6 6.66699 -6 12c0 9.33301 4.33301 14 13 14c2.66699 0 5.33398 -0.666992 8.00098 -2c20 -12.667 44.667 -19 74 -19c39.333 0 69.333 15.333 90 46
c12 18 18 37.667 18 59c0 55.333 -25.333 101.333 -76 138c-45.333 33.333 -96.666 50 -153.999 50h-19l-21 -44c3.33301 0.666992 25.666 -4 66.999 -14c-30 7.33301 -53 10.333 -69 9c-41.333 -94.667 -62 -169 -62 -223c0 -31.333 10 -47 30 -47s42.333 14.333 67 43
c17.333 20 32.666 43.333 45.999 70l4 -1c-15.333 -31.333 -33.666 -58 -54.999 -80c-27.333 -28.667 -54.666 -42.667 -81.999 -42c-14 -12.667 -21 -21.667 -21 -27c0 -4.66699 3.33301 -8 10 -10c16.667 -5.33301 27.667 -10 33 -14c9.33301 -7.33301 14 -18.333 14 -33
c0 -20.667 -8 -36.5 -24 -47.5s-34.667 -16.5 -56 -16.5c-15.333 0 -29 2.33301 -41 7c-16.667 7.33301 -24.334 17.333 -23.001 30c-12 3.33301 -23 9.66602 -33 18.999c-30.667 26.667 -46 70 -46 130c0 51.333 18 99.666 54 144.999
c34.667 43.333 76.667 73.666 126 90.999c9.33301 16.667 19.333 32 30 46c-88 -22.667 -159.667 -80.334 -215 -173.001c-0.666992 -1.33301 -1.66699 -1.66602 -3 -0.999023s-1.66602 1.66699 -0.999023 3c58 96 132.667 155 224 177c49.333 65.333 99.666 98 150.999 98
c12 0 23.5 -3.66699 34.5 -11s16.5 -16.666 16.5 -27.999c0 -18.667 -8 -28 -24 -28c-11.333 0 -18.666 7 -21.999 21c1.33301 -4.66699 2 0.666016 2 15.999c0 13.333 -6 20 -18 20c-30.667 0 -60.667 -26.667 -90 -80h16c61.333 0 115.333 -15.333 162 -46
c54.667 -35.333 82 -82 82 -140zM87.998 -79.9971c0 12.667 -4.33398 21.667 -13.001 27c-10 2.66699 -19.667 5.66699 -29 9c-2.66699 0.666992 -4 1.66699 -4 3s13.667 15.666 41 42.999c-41.333 13.333 -62 40.333 -62 81c0 52 19.667 113.667 59 185
c-43.333 -18.667 -79.666 -49.5 -108.999 -92.5s-44 -87.833 -44 -134.5c0 -51.333 13.333 -88.666 40 -111.999c10 -9.33301 23.667 -14.333 41 -15c12.667 -0.666992 21 -7 25 -19c2 -12 5.66699 -18 11 -18c9.33301 0 19 4.83301 29 14.5s15 19.167 15 28.5z" />
    <glyph glyph-name="brokenbar" unicode="&#xa6;" horiz-adv-x="357" 
d="M471 561c0 -37.333 -25.3311 -78.665 -75.998 -123.998l-124 -97v-2h-3c-4 -3.33301 -24.333 -21.333 -61 -54c-97.333 -86 -146 -183.333 -146 -292c0 -18.667 3.66699 -42 11 -70c11.333 -42.667 28.666 -77.667 51.999 -105c28.667 -33.333 63 -50 103 -50
c39.333 0 73.666 12.667 102.999 38c2.66699 2 4.66699 3 6 3c6.66699 0 10 -3.33301 10 -10c0 -2.66699 -1.33301 -5 -4 -7c-33.333 -28.667 -71.666 -43 -114.999 -43c-48 0 -90 15.167 -126 45.5s-60.333 69.166 -73 116.499c-8.66699 32.667 -13 60 -13 82
c0 72 21.333 138.667 64 200c32 46 82 95.667 150 149v321h42v-12c21.333 22.667 50.666 34 87.999 34c32 0 58.667 -12.333 80 -37s32 -53.334 32 -86.001zM271.002 -161.999h-42v310h42v-310zM462.002 571.001c0 29.333 -9.83301 54.667 -29.5 76s-44.167 32 -73.5 32
c-38.667 0 -68 -12 -88 -36v-270l135 95c37.333 26.667 56 61 56 103z" />
    <glyph glyph-name="section" unicode="&#xa7;" horiz-adv-x="418" 
d="M459 615c0 -17.333 -9.6709 -25.999 -29.0039 -25.999c-10.667 0 -22.667 12.333 -36 37c-14.667 28 -34.667 42 -60 42c-33.333 0 -60.833 -12.667 -82.5 -38s-32.5 -55 -32.5 -89c0 -29.333 20 -59 60 -89l78 -58c29.333 -24 44 -50 44 -78v-11
c18 -20.667 26.333 -48.334 25 -83.001c-2 -64.667 -34 -113.667 -96 -147c-1.33301 -0.666992 -2.33301 -0.333984 -3 0.999023s-0.333984 2.66602 0.999023 3.99902c26.667 13.333 48.334 33 65.001 59s25.667 53.667 27 83c0.666992 28 -6.66602 51 -21.999 69
c-11.333 -37.333 -50 -74.666 -116 -111.999l-5 -6c26 -25.333 39 -51 39 -77c0 -40 -18 -77.333 -54 -112c-48 -46 -109 -69 -183 -69c-26.667 0 -51.334 3.66699 -74.001 11c-32.667 10.667 -49 26.334 -49 47.001c0 22 12 33 36 33c17.333 0 32 -11 44 -33
c16.667 -30.667 46.334 -46 89.001 -46c34.667 0 62.834 11 84.501 33s32.5 50.333 32.5 85c0 41.333 -20.667 75.333 -62 102c-12 6.66699 -29.667 17.334 -53 32.001c-40.667 26 -61 56.333 -61 91c0 43.333 29 80 87 110c-31.333 23.333 -50.666 39.666 -57.999 48.999
c-16.667 20 -25 43.667 -25 71c0 34.667 10.167 66.334 30.5 95.001s46.833 50 79.5 64c1.33301 0.666992 2.33301 0 3 -2c0.666992 -1.33301 0.333984 -2.33301 -0.999023 -3c-27.333 -11.333 -50.833 -29.333 -70.5 -54s-31.167 -51.334 -34.5 -80.001
c-4 -30.667 4 -57.334 24 -80.001c8.66699 -10 31.334 -27.667 68.001 -53c9.33301 4.66699 22.666 10.334 39.999 17.001l10 6l1 -1h1c-22.667 20.667 -38 36.667 -46 48c-12 16.667 -18 35 -18 55c0 34.667 15 67.667 45 99c38 40 86 60.333 144 61
c24.667 0 47.667 -3.66699 69 -11c29.333 -10.667 44 -26 44 -46zM330.996 272.001c0 26 -13.666 51 -40.999 75c-8 10 -31.333 30.667 -70 62l-11 -5c-12.667 -8 -23.334 -15.333 -32.001 -22c29.333 -20.667 53.5 -47.667 72.5 -81s28.5 -67.333 28.5 -102
c0 -8 -0.333008 -15.667 -1 -23l5 3c32.667 34.667 49 65.667 49 93zM252.997 189.001c6 67.333 -23.667 128 -89 182c-20.667 -20 -31 -42 -31 -66c0 -26.667 21 -53 63 -79zM276.997 176.001l-1 -3l-1 2z" />
    <glyph glyph-name="dieresis" unicode="&#xa8;" horiz-adv-x="419" 
d="M451 558c0 -22.667 -11.333 -34 -34 -34c-23.333 0 -35 11.667 -35 35c0 22.667 11.667 34 35 34c9.33301 0 17.333 -3.5 24 -10.5s10 -15.167 10 -24.5zM341 558c0 -22.667 -11.333 -34 -34 -34c-23.333 0 -35 11.667 -35 35c0 22.667 11.667 34 35 34
c9.33301 0 17.333 -3.5 24 -10.5s10 -15.167 10 -24.5z" />
    </font>
</defs>
</svg>
